<?xml version="1.0" standalone="no"?>
<!DOCTYPE svg PUBLIC "-//W3C//DTD SVG 1.1//EN" "http://www.w3.org/Graphics/SVG/1.1/DTD/svg11.dtd" >
<svg xmlns="http://www.w3.org/2000/svg" xmlns:xlink="http://www.w3.org/1999/xlink" version="1.1">
<metadata></metadata>
<defs>
<font id="fira_sans_condensedbold" horiz-adv-x="1112" >
<font-face units-per-em="2048" ascent="1638" descent="-410" />
<missing-glyph horiz-adv-x="425" />
<glyph unicode="&#xfb01;" horiz-adv-x="1122" />
<glyph unicode="&#xfb02;" horiz-adv-x="1187" />
<glyph horiz-adv-x="0" />
<glyph unicode="&#xd;" horiz-adv-x="425" />
<glyph unicode=" "  horiz-adv-x="425" />
<glyph unicode="&#x09;" horiz-adv-x="425" />
<glyph unicode="&#xa0;" horiz-adv-x="425" />
<glyph unicode="!" horiz-adv-x="471" d="M401 1419l-43 -899h-247l-43 899h333zM362.5 274.5q51.5 -53.5 51.5 -127.5q0 -76 -50.5 -129t-127.5 -53q-78 0 -129.5 53.5t-51.5 128.5q0 74 51.5 127.5t129.5 53.5q75 0 126.5 -53.5z" />
<glyph unicode="&#x22;" horiz-adv-x="870" d="M127 850l-37 569h277l-35 -569h-205zM539 850l-37 569h277l-35 -569h-205z" />
<glyph unicode="#" horiz-adv-x="1040" d="M1012 903h-123l-51 -397h106v-209h-135l-39 -297h-252l39 297h-180l-39 -297h-254l39 297h-96v209h125l53 397h-111v207h137l37 274h252l-37 -274h181l36 274h252l-37 -274h97v-207zM586 506l51 397h-180l-51 -397h180z" />
<glyph unicode="$" horiz-adv-x="1019" d="M889 142.5q-90 -109.5 -252 -148.5v-324h-223v310q-244 23 -404 192l154 170q72 -63 145.5 -97t157.5 -34q90 0 139 46t49 128q0 74 -46 120t-173 91q-205 74 -290 170t-85 246q0 152 97.5 255t255.5 130v303h223v-305q178 -29 309 -164l-141 -166q-63 55 -127 83 t-135 28q-76 0 -119 -37t-43 -103q0 -43 20.5 -73.5t69.5 -57t145 -63.5q188 -72 275.5 -167t87.5 -267q0 -156 -90 -265.5z" />
<glyph unicode="%" horiz-adv-x="1613" d="M1143 1473l190 -113l-858 -1440l-188 113zM631 1315q94 -98 94 -271q0 -172 -94 -269t-240 -97q-143 0 -237.5 97t-94.5 269t94.5 270.5t237.5 98.5q146 0 240 -98zM304.5 1180q-25.5 -47 -25.5 -136q0 -88 25.5 -135t86.5 -47t87 47t26 135t-25.5 135.5t-87.5 47.5 q-61 0 -86.5 -47zM1462 602q94 -98 94 -270t-93 -269.5t-240 -97.5q-143 0 -238.5 97.5t-95.5 269.5q0 115 44 198.5t119.5 126.5t170.5 43q145 0 239 -98zM1134.5 468q-24.5 -46 -24.5 -136q0 -88 25.5 -134t87.5 -46q63 0 87.5 45t24.5 135t-24.5 136t-87.5 46 q-64 0 -88.5 -46z" />
<glyph unicode="&#x26;" horiz-adv-x="1417" d="M884.5 1362q108.5 -92 108.5 -240q0 -119 -62.5 -208t-182.5 -177l245 -264q49 125 82 291l254 -70q-68 -223 -170 -383l227 -217l-264 -129l-145 158q-176 -158 -412 -158q-133 0 -237.5 50.5t-161.5 140.5t-57 206q0 123 60 214.5t193 185.5q-104 104 -143 179t-39 173 q0 92 45 170t137.5 124t223.5 46q190 0 298.5 -92zM508 1215.5q-29 -33.5 -29 -101.5q0 -61 21.5 -106t79.5 -113q63 59 89.5 106.5t26.5 114.5q0 133 -106 133q-53 0 -82 -33.5zM461.5 493.5q-23.5 -51.5 -23.5 -116.5q0 -90 50.5 -138.5t136.5 -48.5q111 0 198 84 l-286 316q-52 -45 -75.5 -96.5z" />
<glyph unicode="'" horiz-adv-x="458" d="M127 850l-37 569h277l-35 -569h-205z" />
<glyph unicode="(" horiz-adv-x="614" d="M590 1622q-131 -209 -187.5 -412.5t-56.5 -492.5t56.5 -493t187.5 -412l-203 -136q-115 168 -188.5 307.5t-121.5 321.5t-48 412q0 229 48 411.5t121.5 321.5t188.5 307z" />
<glyph unicode=")" horiz-adv-x="614" d="M416.5 1442q72.5 -135 121 -316.5t48.5 -408.5t-48.5 -408.5t-121 -316.5t-191.5 -316l-200 136q129 209 186 414.5t57 490.5t-56 490.5t-187 414.5l200 135q119 -180 191.5 -315z" />
<glyph unicode="*" horiz-adv-x="854" d="M834 1100l-259 -49l193 -211l-219 -150l-121 254l-121 -254l-217 148l189 213l-259 47l84 241l232 -120l-41 301h264l-39 -301l230 122z" />
<glyph unicode="+" horiz-adv-x="989" d="M625 1116v-315h280v-244h-280v-315h-258v315h-283v244h283v315h258z" />
<glyph unicode="," horiz-adv-x="462" d="M357.5 278.5q50.5 -51.5 50.5 -128.5q0 -39 -13.5 -82t-50.5 -134l-119 -294h-170l80 356q-80 57 -80 154q0 78 50.5 129t125.5 51q76 0 126.5 -51.5z" />
<glyph unicode="-" horiz-adv-x="768" d="M84 518v246h600v-246h-600z" />
<glyph unicode="." horiz-adv-x="468" d="M362.5 274.5q51.5 -53.5 51.5 -127.5q0 -76 -51.5 -129t-129.5 -53t-128 53.5t-50 128.5q0 74 51.5 127.5t126.5 53.5q78 0 129.5 -53.5z" />
<glyph unicode="/" horiz-adv-x="958" d="M565 1671l271 -61l-441 -1837l-272 61z" />
<glyph unicode="0" horiz-adv-x="1118" d="M916.5 1228.5q123.5 -184.5 123.5 -538.5q0 -358 -122.5 -541.5t-358.5 -183.5t-358.5 183.5t-122.5 541.5t123 540.5t358 182.5q234 0 357.5 -184.5zM466 1137q-34 -43 -50.5 -148.5t-16.5 -298.5q0 -195 16.5 -301t50.5 -148t93 -42t94 42t50.5 147.5t15.5 301.5 q0 195 -16.5 300.5t-50.5 147.5t-93 42t-93 -43z" />
<glyph unicode="1" horiz-adv-x="866" d="M723 1382v-1382h-309v1075l-262 -178l-140 205l428 280h283z" />
<glyph unicode="2" horiz-adv-x="948" d="M672.5 1361q99.5 -52 150.5 -140t51 -197q0 -111 -40.5 -212t-144 -232t-302.5 -336h514l-33 -244h-827v225q217 240 322.5 372t146.5 221t41 181q0 82 -40 126t-112 44q-63 0 -112 -31.5t-109 -105.5l-182 144q168 238 438 237q139 0 238.5 -52z" />
<glyph unicode="3" horiz-adv-x="968" d="M672.5 1366q97.5 -47 147.5 -128t50 -179q0 -252 -266 -328q141 -16 224 -99t83 -239q0 -117 -56 -214t-165.5 -155.5t-261.5 -58.5q-141 0 -249.5 53.5t-192.5 155.5l170 158q66 -68 122 -97.5t125 -29.5q84 0 135.5 54t51.5 153q0 106 -52.5 154t-154.5 48h-100l34 217 h68q84 0 133 48.5t49 136.5q0 78 -43 121t-118 43q-127 0 -238 -117l-158 164q186 186 434 186q131 0 228.5 -47z" />
<glyph unicode="4" horiz-adv-x="1052" d="M1018 539v-238h-135v-301h-301l-2 301h-535v211l352 907l267 -96l-299 -784h219l34 329h265v-329h135z" />
<glyph unicode="5" horiz-adv-x="1005" d="M852 1157h-451v-301q90 49 189 49q158 0 257 -117.5t99 -330.5q0 -145 -61.5 -257t-175 -173.5t-265.5 -61.5q-256 0 -424 207l175 158q53 -61 109 -94t128 -33q94 0 144.5 63.5t50.5 188.5q0 127 -43 180t-121 53q-39 0 -73 -10t-75 -37h-211v743h783z" />
<glyph unicode="6" horiz-adv-x="1071" d="M851 876.5q81 -53.5 127 -157t46 -246.5q0 -147 -55.5 -263t-158.5 -180.5t-247 -64.5q-246 0 -365.5 174t-119.5 494q0 236 67.5 412t193.5 272t298 96q162 0 289 -92l-115 -184q-82 51 -164 51q-102 0 -166.5 -98.5t-79.5 -290.5q106 131 267 131q102 0 183 -53.5z M711 469q0 137 -33 191.5t-100 54.5q-92 0 -177 -117q2 -154 18.5 -241t50.5 -125.5t93 -38.5q144 0 148 276z" />
<glyph unicode="7" horiz-adv-x="872" d="M844 1384v-215l-457 -1202l-283 94l418 1086h-504v237h826z" />
<glyph unicode="8" horiz-adv-x="1081" d="M971.5 584q62.5 -90 62.5 -209q0 -117 -58 -210t-172 -146.5t-269 -53.5q-152 0 -261.5 52.5t-167 144.5t-57.5 207q0 231 240 344q-102 66 -146.5 146.5t-44.5 180.5q0 113 55.5 197t156 130t229.5 46q201 0 323.5 -95t122.5 -261q0 -197 -211 -314q135 -69 197.5 -159z M399 1036q0 -74 33 -118t111 -78l37 -19q59 49 81.5 100.5t22.5 118.5q0 160 -141 160q-144 0 -144 -164zM678 241q45 48 45 136q0 84 -40 132t-146 93l-60 25q-117 -84 -117 -244q0 -94 48.5 -142t136.5 -48t133 48z" />
<glyph unicode="9" horiz-adv-x="1058" d="M876.5 1268.5q122.5 -144.5 122.5 -394.5q0 -281 -85 -464t-259 -293.5t-454 -173.5l-64 221q244 66 366 165t161 279q-106 -127 -256 -127q-98 0 -181.5 55.5t-132.5 159t-49 240.5q0 147 62.5 254.5t171 165t243.5 57.5q232 0 354.5 -144.5zM676 819q2 143 -12.5 223 t-48 114t-93.5 34q-76 0 -119 -59.5t-43 -184.5q0 -129 40 -187.5t108 -58.5q98 0 168 119z" />
<glyph unicode=":" horiz-adv-x="468" d="M362.5 274.5q51.5 -53.5 51.5 -127.5q0 -76 -51.5 -129t-129.5 -53t-128 53.5t-50 128.5q0 74 51.5 127.5t126.5 53.5q78 0 129.5 -53.5zM362.5 983.5q51.5 -53.5 51.5 -127.5q0 -76 -51.5 -129t-129.5 -53t-128 53.5t-50 128.5q0 74 51.5 127.5t126.5 53.5 q78 0 129.5 -53.5z" />
<glyph unicode=";" horiz-adv-x="468" d="M357.5 278.5q50.5 -51.5 50.5 -128.5q0 -39 -13.5 -82t-50.5 -134l-119 -294h-170l80 356q-80 57 -80 154q0 78 50.5 129t125.5 51q76 0 126.5 -51.5zM362.5 983.5q51.5 -53.5 51.5 -127.5q0 -76 -51.5 -129t-129.5 -53t-128 53.5t-50 128.5q0 74 51.5 127.5t126.5 53.5 q78 0 129.5 -53.5z" />
<glyph unicode="&#x3c;" horiz-adv-x="962" d="M805 1169l102 -215l-594 -272l594 -264l-102 -225l-750 354v270z" />
<glyph unicode="=" horiz-adv-x="962" d="M84 772v242h795v-242h-795zM84 344v242h795v-242h-795z" />
<glyph unicode="&#x3e;" horiz-adv-x="962" d="M158 1169l749 -352v-270l-749 -354l-103 225l594 264l-594 272z" />
<glyph unicode="?" horiz-adv-x="907" d="M693 1407q93 -47 140.5 -125t47.5 -168q0 -80 -26 -137t-61.5 -94t-97.5 -84q-76 -59 -111.5 -105.5t-35.5 -120.5v-53h-285v64q0 94 25.5 158.5t61.5 102.5t91 81q59 45 86 78.5t27 87.5q0 55 -33 84.5t-90 29.5q-111 0 -213 -121l-192 152q168 217 440 217 q133 0 226 -47zM538.5 274.5q51.5 -53.5 51.5 -127.5q0 -76 -51.5 -129t-128.5 -53q-78 0 -128.5 53.5t-50.5 128.5q0 74 51.5 127.5t127.5 53.5q77 0 128.5 -53.5z" />
<glyph unicode="@" horiz-adv-x="1892" d="M1145 1004.5q86 -23.5 158 -68.5v-506q0 -131 17 -177t64 -46q143 0 144 434q0 281 -136.5 432.5t-414.5 151.5q-195 0 -332 -90.5t-207.5 -255t-70.5 -383.5q0 -348 156.5 -533.5t455.5 -185.5q92 0 188.5 19.5t173.5 49.5l74 -213q-92 -39 -207.5 -62.5t-230.5 -23.5 q-272 0 -473 115t-308.5 329t-107.5 505q0 276 114.5 494t316.5 341t458 123t443.5 -110.5t285.5 -296t98 -402.5q0 -184 -52 -328.5t-145.5 -226.5t-211.5 -82q-100 0 -165 60.5t-81 144.5q-37 -90 -103.5 -143.5t-164.5 -53.5q-168 0 -253 124t-85 337q0 258 112.5 404.5 t319.5 146.5q84 0 170 -23.5zM1038 295v522q-31 14 -75 14q-72 0 -106 -77.5t-34 -278.5q0 -150 23.5 -207t79.5 -57q69 0 112 84z" />
<glyph unicode="A" d="M797 0l-64 309h-360l-64 -309h-332l383 1419h394l381 -1419h-338zM422 545h262l-131 635z" />
<glyph unicode="B" horiz-adv-x="1144" d="M1021 645q83 -78 83 -231q0 -414 -572 -414h-419v1419h370q272 0 420 -89t148 -273q0 -123 -70 -200t-178 -105q135 -29 218 -107zM440 1188v-338h90q188 0 189 174q0 84 -49 124t-156 40h-74zM708.5 281q59.5 43 59.5 149q0 201 -217 201h-111v-393h95q114 0 173.5 43z " />
<glyph unicode="C" horiz-adv-x="1073" d="M868.5 1415q96.5 -39 182.5 -117l-156 -182q-55 47 -109.5 70.5t-115.5 23.5q-266 0 -267 -497q0 -494 269 -494q70 0 124 27.5t122 81.5l147 -181q-76 -80 -181.5 -131t-232.5 -51q-178 0 -310 84t-206 252t-74 412q0 238 76 404.5t208 251.5t304 85q123 0 219.5 -39z " />
<glyph unicode="D" horiz-adv-x="1218" d="M828.5 1364q146.5 -55 236.5 -211t90 -436q0 -397 -176 -557t-467 -160h-399v1419h372q197 0 343.5 -55zM440 1182v-944h92q94 0 156 40.5t95.5 146t33.5 292.5q0 186 -34.5 288.5t-97 139.5t-155.5 37h-90z" />
<glyph unicode="E" horiz-adv-x="970" d="M915 1419l-34 -233h-441v-350h385v-230h-385v-368h471v-238h-798v1419h802z" />
<glyph unicode="F" horiz-adv-x="903" d="M113 0v1419h778l-35 -233h-416v-385h365v-234h-365v-567h-327z" />
<glyph unicode="G" horiz-adv-x="1208" d="M1120 1280l-159 -168q-70 55 -128.5 80t-132.5 25q-143 0 -221 -118t-78 -388q0 -195 27 -304.5t80 -154.5t141 -45q92 0 164 45v332h-158l-30 231h499v-702q-100 -70 -223 -109t-246 -39q-301 0 -447.5 185.5t-146.5 560.5q0 242 82 409.5t223.5 250.5t319.5 83 q250 0 434 -174z" />
<glyph unicode="H" horiz-adv-x="1232" d="M795 0v610h-355v-610h-327v1419h327v-553h355v553h327v-1419h-327z" />
<glyph unicode="I" horiz-adv-x="550" d="M440 1419v-1419h-327v1419h327z" />
<glyph unicode="J" horiz-adv-x="593" d="M487 215q0 -242 -114.5 -364.5t-313.5 -192.5l-86 231q80 35 120 78t53.5 102.5t13.5 157.5v1192h327v-1204z" />
<glyph unicode="K" horiz-adv-x="1189" d="M440 1419v-1419h-327v1419h327zM1182 1419l-398 -637l430 -782h-366l-397 758l397 661h334z" />
<glyph unicode="L" horiz-adv-x="952" d="M440 1419v-1159h494l-35 -260h-786v1419h327z" />
<glyph unicode="M" horiz-adv-x="1474" d="M1413 0h-313l-19 561q-8 246 -8 363q0 143 4 211l-186 -985h-307l-197 985q8 -156 8 -330q0 -78 -4 -250l-18 -555h-312l95 1419h409l178 -966l164 966h412z" />
<glyph unicode="N" horiz-adv-x="1226" d="M1114 0h-409l-349 1114q4 -25 4 -41q18 -147 28.5 -267t10.5 -278v-528h-286v1419h405l354 -1116q-45 266 -45 531v585h287v-1419z" />
<glyph unicode="O" horiz-adv-x="1290" d="M1077.5 1264.5q151.5 -189.5 151.5 -553.5q0 -360 -152.5 -553t-431.5 -193t-431.5 190.5t-152.5 555.5q0 358 153 550.5t431 192.5q281 0 432.5 -189.5zM461.5 1097.5q-58.5 -116.5 -58.5 -386.5q0 -274 59.5 -390t182.5 -116q125 0 183.5 115.5t58.5 390.5 q0 270 -58.5 386.5t-183.5 116.5t-183.5 -116.5z" />
<glyph unicode="P" horiz-adv-x="1114" d="M937 1302.5q146 -116.5 146 -344.5q0 -240 -142 -361.5t-392 -121.5h-109v-475h-327v1419h405q273 0 419 -116.5zM692.5 769q55.5 56 55.5 187q0 117 -54.5 173.5t-171.5 56.5h-82v-473h82q115 0 170.5 56z" />
<glyph unicode="Q" horiz-adv-x="1290" d="M1138 57.5q91 -32.5 175 -102.5l-197 -250q-100 127 -212.5 196.5t-278.5 69.5q-264 0 -414 191.5t-150 548.5q0 356 153 549.5t431 193.5q279 0 431.5 -190.5t152.5 -552.5q0 -246 -84 -390.5t-225 -230.5q127 0 218 -32.5zM462.5 322.5q59.5 -115.5 182.5 -115.5 q127 0 184.5 114.5t57.5 389.5q0 272 -58.5 387.5t-183.5 115.5t-183.5 -115.5t-58.5 -387.5q0 -273 59.5 -388.5z" />
<glyph unicode="R" horiz-adv-x="1150" d="M547 545h-107v-545h-327v1419h415q279 0 416 -107.5t137 -322.5q0 -272 -239 -383l321 -606h-358zM440 772h101q106 0 155 52.5t49 164.5q0 102 -53 150.5t-168 48.5h-84v-416z" />
<glyph unicode="S" horiz-adv-x="1062" d="M789.5 1408q109.5 -46 199.5 -136l-149 -172q-133 115 -273 114q-78 0 -123 -38.5t-45 -106.5q0 -45 20.5 -75.5t72 -59.5t151.5 -66q131 -49 212 -105t124 -140t43 -209q0 -131 -62.5 -232.5t-180 -159t-275.5 -57.5q-297 0 -494 201l160 178q76 -66 152.5 -100.5 t162.5 -34.5q94 0 145.5 49t51.5 131q0 78 -47 125t-178 94q-213 80 -303.5 180.5t-90.5 255.5q0 121 61.5 214.5t169 144.5t243.5 51q143 0 252.5 -46z" />
<glyph unicode="T" horiz-adv-x="1003" d="M1006 1419l-35 -250h-305v-1169h-328v1169h-324v250h992z" />
<glyph unicode="U" horiz-adv-x="1202" d="M1112 438q0 -135 -57.5 -242.5t-172 -169t-280.5 -61.5q-250 0 -380 129t-130 344v981h328v-968q0 -123 43 -181.5t139 -58.5t138 58.5t42 181.5v968h330v-981z" />
<glyph unicode="V" horiz-adv-x="1075" d="M1098 1419l-346 -1419h-414l-361 1419h336l238 -1161l219 1161h328z" />
<glyph unicode="W" horiz-adv-x="1581" d="M1563 1419l-205 -1419h-426l-144 1094l-155 -1094h-416l-199 1419h318l121 -1171l166 1171h340l155 -1171l139 1171h306z" />
<glyph unicode="X" horiz-adv-x="1085" d="M731 766l367 -766h-350l-213 547l-205 -547h-342l354 754l-328 665h348l177 -461l188 461h340z" />
<glyph unicode="Y" horiz-adv-x="1110" d="M1128 1419l-409 -887v-532h-328v530l-409 889h350l227 -631l232 631h337z" />
<glyph unicode="Z" horiz-adv-x="1007" d="M956 1419v-248l-559 -909h572l-33 -262h-907v246l563 919h-510v254h874z" />
<glyph unicode="[" horiz-adv-x="604" d="M563 1683v-233h-211v-1468h211v-232h-508v1933h508z" />
<glyph unicode="\" horiz-adv-x="958" d="M393 1669l443 -1835l-273 -61l-440 1835z" />
<glyph unicode="]" horiz-adv-x="604" d="M547 1683v-1933h-508v234h213v1466h-213v233h508z" />
<glyph unicode="^" horiz-adv-x="1044" d="M666 1729l348 -650h-305l-191 412l-178 -412h-311l348 650h289z" />
<glyph unicode="_" horiz-adv-x="964" d="M18 -346v248h928v-248h-928z" />
<glyph unicode="`" horiz-adv-x="653" d="M190 1700l408 -268l-86 -156l-445 192z" />
<glyph unicode="a" horiz-adv-x="1017" d="M921.5 219.5q14.5 -26.5 49.5 -41.5l-66 -207q-94 8 -153.5 43t-92.5 109q-100 -158 -292 -158q-147 0 -234.5 93.5t-87.5 246.5q0 178 120 272.5t347 94.5h86v51q0 96 -35 134t-123 38q-100 0 -256 -55l-71 202q90 39 192.5 59.5t190.5 20.5q211 0 311 -94t100 -287 v-440q0 -55 14.5 -81.5zM539.5 217q35.5 27 58.5 76v203h-57q-96 0 -141.5 -40t-45.5 -124q0 -70 28 -106t79 -36q43 0 78.5 27z" />
<glyph unicode="b" d="M955.5 973.5q93.5 -148.5 93.5 -430.5q0 -172 -47.5 -303t-135.5 -203t-209 -72q-78 0 -143 36t-113 101l-14 -102h-281v1520l316 32v-571q45 66 114.5 103.5t151.5 37.5q174 0 267.5 -148.5zM682 273.5q41 78.5 41 269.5q0 203 -37 275.5t-106 72.5q-45 0 -85 -33 t-73 -90v-471q57 -102 143 -102q76 0 117 78.5z" />
<glyph unicode="c" horiz-adv-x="892" d="M737 1089.5q82 -32.5 154 -100.5l-131 -180q-47 37 -90 54.5t-92 17.5q-94 0 -141.5 -78t-47.5 -266q0 -180 48 -252t138 -72q47 0 86 15.5t93 52.5l137 -187q-141 -129 -334 -129q-233 0 -365.5 149.5t-132.5 420.5q0 178 60.5 311t172 204.5t261.5 71.5 q102 0 184 -32.5z" />
<glyph unicode="d" horiz-adv-x="1116" d="M1008 1520v-1520h-279l-14 121q-104 -156 -277 -156q-182 0 -278.5 152.5t-96.5 427.5q0 172 50.5 303t141.5 202.5t210 71.5q137 0 227 -100v530zM622.5 224.5q36.5 27.5 69.5 84.5v494q-33 45 -64.5 66.5t-74.5 21.5q-164 0 -164 -346q0 -195 39 -271.5t111 -76.5 q47 0 83.5 27.5z" />
<glyph unicode="e" horiz-adv-x="1038" d="M983 451h-606q12 -143 63.5 -198.5t145.5 -55.5q61 0 116.5 22.5t120.5 69.5l129 -174q-168 -150 -391 -150q-246 0 -374 152.5t-128 421.5q0 262 123 422.5t346 160.5q215 0 338 -144t123 -413q0 -65 -6 -114zM680 655q0 129 -34 193.5t-114 64.5q-72 0 -110.5 -60 t-46.5 -212h305v14z" />
<glyph unicode="f" horiz-adv-x="673" d="M491.5 1291.5q-26.5 -29.5 -26.5 -97.5v-107h223l-35 -219h-188v-868h-315v868h-144v219h144v105q0 162 99 261t286 99q152 0 276 -65l-84 -203q-74 37 -147 37q-62 0 -88.5 -29.5z" />
<glyph unicode="g" horiz-adv-x="1017" d="M1024 1024q-94 -41 -281 -41q98 -45 144.5 -111.5t46.5 -171.5q0 -104 -51.5 -187t-146.5 -129t-224 -46q-61 0 -111 12q-35 -23 -34 -65q0 -33 23.5 -51.5t86.5 -18.5h133q180 0 287 -87t107 -224q0 -166 -135.5 -261.5t-387.5 -95.5q-270 0 -374.5 88.5t-104.5 260.5 h283q0 -76 41 -109t159 -33q113 0 158 34t45 93q0 115 -145 115h-117q-164 0 -242 58.5t-78 154.5q0 59 33 112.5t88 92.5q-94 55 -136 128.5t-42 182.5q0 184 122 290.5t327 104.5q143 -2 239.5 32t212.5 101zM360 729q0 -94 36 -141t102 -47q68 0 102.5 46t34.5 146 q0 94 -34 137t-103 43q-138 0 -138 -184z" />
<glyph unicode="h" horiz-adv-x="1073" d="M900 1037q73 -85 73 -232v-805h-316v762q0 68 -20.5 95.5t-56.5 27.5q-41 0 -79 -34t-79 -99v-752h-316v1520l316 32v-583q57 78 124.5 115.5t153.5 37.5q127 0 200 -85z" />
<glyph unicode="i" horiz-adv-x="530" d="M422 1087v-1087h-316v1087h316zM394.5 1603.5q52.5 -51.5 52.5 -126.5q0 -78 -52.5 -129.5t-132.5 -51.5t-131 51.5t-51 129.5q0 76 51 127t131 51t132.5 -51.5z" />
<glyph unicode="j" horiz-adv-x="530" d="M422 98q0 -158 -51.5 -263t-140.5 -169.5t-220 -118.5l-104 230q72 39 112.5 73.5t64 90t23.5 145.5v1001h316v-989zM394.5 1603.5q52.5 -51.5 52.5 -126.5q0 -78 -52.5 -129.5t-132.5 -51.5t-131 51.5t-51 129.5q0 76 51 127t131 51t132.5 -51.5z" />
<glyph unicode="k" horiz-adv-x="1042" d="M422 1552v-1552h-316v1520zM1036 1087l-291 -477l314 -610h-344l-283 594l295 493h309z" />
<glyph unicode="l" horiz-adv-x="559" d="M172 43q-76 78 -76 217v1260l316 32v-1278q0 -59 49 -59q20 0 45 8l59 -219q-82 -39 -182 -39q-135 0 -211 78z" />
<glyph unicode="m" horiz-adv-x="1562" d="M1393.5 1036q70.5 -86 70.5 -231v-805h-311v764q0 123 -74 123q-72 0 -137 -129v-758h-311v764q0 123 -72 123q-41 0 -73.5 -33t-65.5 -96v-758h-314v1087h277l20 -129q113 164 283 164q82 0 141.5 -44t87.5 -128q59 86 130 129t161 43q117 0 187.5 -86z" />
<glyph unicode="n" horiz-adv-x="1073" d="M900 1037q73 -85 73 -232v-805h-316v762q0 68 -19.5 95.5t-57.5 27.5q-41 0 -79 -34t-79 -99v-752h-316v1087h277l23 -129q59 82 130.5 123t163.5 41q127 0 200 -85z" />
<glyph unicode="o" horiz-adv-x="1093" d="M906 973.5q130 -148.5 130 -430.5q0 -270 -131 -424t-358 -154q-229 0 -358.5 149.5t-129.5 430.5q0 272 130 424.5t358 152.5q229 0 359 -148.5zM424 809q-39 -80 -39 -264q0 -188 39 -268t123 -80t124 80.5t40 265.5q0 188 -39 267t-125 79q-84 0 -123 -80z" />
<glyph unicode="p" d="M957.5 972.5q91.5 -149.5 91.5 -425.5q0 -172 -48.5 -304t-136.5 -205t-207 -73q-141 0 -235 113v-498l-316 -33v1540h281l14 -118q111 154 285 153q180 0 271.5 -149.5zM723 543q0 199 -36 273.5t-105 74.5q-92 0 -160 -121v-481q59 -90 141 -90q160 0 160 344z" />
<glyph unicode="q" horiz-adv-x="1116" d="M1008 1087v-1540l-316 33v516q-96 -131 -254 -131q-182 0 -278.5 152.5t-96.5 427.5q0 172 50.5 303t141.5 202.5t212 71.5q147 0 252 -127l14 92h275zM622.5 225.5q36.5 28.5 69.5 85.5v490q-33 45 -64.5 67.5t-74.5 22.5q-76 0 -120 -82t-44 -264q0 -199 39 -273.5 t111 -74.5q47 0 83.5 28.5z" />
<glyph unicode="r" horiz-adv-x="749" d="M758 1102l-51 -303q-43 12 -86 12q-84 0 -129.5 -64.5t-69.5 -191.5v-555h-316v1087h277l25 -190q37 106 102 163.5t154 57.5q53 0 94 -16z" />
<glyph unicode="s" horiz-adv-x="897" d="M663.5 1087.5q94.5 -34.5 165.5 -98.5l-114 -172q-123 80 -232 80q-57 0 -87.5 -23.5t-30.5 -64.5q0 -31 15 -52.5t58 -43t129 -51.5q152 -51 224.5 -129t72.5 -211q0 -164 -125 -260.5t-319 -96.5q-125 0 -232.5 43t-183.5 117l150 168q127 -102 254 -103q63 0 99 28 t36 77q0 39 -15.5 63.5t-57.5 47t-130 53.5q-150 51 -218.5 130t-68.5 199q0 94 49.5 170t141.5 120t217 44q108 0 202.5 -34.5z" />
<glyph unicode="t" horiz-adv-x="720" d="M741 51q-55 -41 -127.5 -63.5t-146.5 -22.5q-166 0 -250 94.5t-84 264.5v544h-131v219h131v236l316 37v-273h223l-33 -219h-190v-540q0 -113 86 -113q47 0 102 31z" />
<glyph unicode="u" horiz-adv-x="1062" d="M954 0h-274l-14 131q-106 -166 -289 -166q-133 0 -206 88t-73 238v796h316v-772q0 -117 82 -116q80 0 143 118v770h315v-1087z" />
<glyph unicode="v" horiz-adv-x="962" d="M975 1087l-303 -1087h-373l-309 1087h329l168 -847l175 847h313z" />
<glyph unicode="w" horiz-adv-x="1406" d="M1397 1087l-199 -1087h-373l-120 805l-121 -805h-369l-205 1087h309l99 -849l143 849h301l129 -849l109 849h297z" />
<glyph unicode="x" horiz-adv-x="960" d="M668 582l313 -582h-342l-168 412l-160 -412h-331l311 571l-283 516h338l133 -352l127 352h326z" />
<glyph unicode="y" horiz-adv-x="974" d="M676 -2q-117 -424 -570 -453l-34 219q141 20 210.5 72.5t110.5 163.5h-112l-291 1087h323l168 -886l187 886h317z" />
<glyph unicode="z" horiz-adv-x="856" d="M819 1087v-223l-444 -624h454l-28 -240h-778v223l444 627h-408v237h760z" />
<glyph unicode="{" horiz-adv-x="600" d="M561 1499q-80 0 -108.5 -25.5t-28.5 -95.5v-389q0 -129 -47 -187.5t-152 -86.5q102 -23 151.5 -83.5t49.5 -187.5v-389q0 -70 28.5 -95.5t106.5 -25.5v-221q-168 0 -261 37t-129 109.5t-36 189.5v383q0 86 -24.5 120t-94.5 34v260q70 0 94.5 34.5t24.5 120.5v383 q0 117 36 190t128 109.5t262 36.5v-221z" />
<glyph unicode="|" horiz-adv-x="681" d="M489 1659v-1874h-294v1874h294z" />
<glyph unicode="}" horiz-adv-x="600" d="M301 1683.5q92 -36.5 128 -109.5t36 -190v-383q0 -86 24.5 -120.5t92.5 -34.5v-260q-70 0 -93.5 -34t-23.5 -120v-383q0 -117 -36 -189.5t-129 -109.5t-261 -37v221q78 0 105.5 26t27.5 95v389q0 127 49 186.5t154 84.5q-106 29 -153.5 87t-47.5 187v389q0 70 -28.5 95.5 t-106.5 25.5v221q170 0 262 -36.5z" />
<glyph unicode="~" horiz-adv-x="970" d="M533.5 500.5q-46.5 19.5 -97.5 54.5q-43 25 -65.5 36t-48.5 11q-43 0 -70 -25.5t-62 -78.5l-159 82q53 115 124.5 183t178.5 68q59 0 104 -18t94 -53q43 -25 67 -36t50 -11q41 0 67.5 24.5t61.5 73.5l162 -82q-53 -113 -124 -180.5t-175 -67.5q-61 0 -107.5 19.5z" />
<glyph unicode="&#xa1;" horiz-adv-x="471" d="M362.5 987q51.5 -53 51.5 -127q0 -76 -50.5 -129t-127.5 -53q-78 0 -129.5 53t-51.5 129q0 74 51.5 127t129.5 53q75 0 126.5 -53zM360 485l43 -915h-333l41 915h249z" />
<glyph unicode="&#xa2;" horiz-adv-x="892" d="M891 94q-115 -100 -248 -123v-301h-223v310q-172 41 -266.5 184t-94.5 371q0 227 96.5 377.5t266.5 193.5v309h221v-299q137 -23 248 -127l-131 -180q-47 37 -90 54.5t-92 17.5q-94 0 -141.5 -78t-47.5 -266q0 -180 48 -252t138 -72q47 0 86 15.5t93 52.5z" />
<glyph unicode="&#xa3;" horiz-adv-x="1005" d="M483.5 341q-26.5 -56 -104.5 -101h571l-35 -240h-868v227q70 23 102.5 54.5t42 73.5t9.5 118v164h-127v166h127v196q0 184 104.5 299t298.5 115q125 0 219.5 -50t163.5 -153l-188 -135q-39 53 -76 77t-86 24q-66 0 -96.5 -43t-30.5 -132v-198h332v-166h-332v-145 q0 -95 -26.5 -151z" />
<glyph unicode="&#xa4;" horiz-adv-x="1032" d="M870 160l-139 155q-94 -59 -215 -59q-119 0 -215 61l-143 -157l-140 131l150 166q-59 102 -59 243q0 137 59 240l-150 170l146 129l137 -156q94 59 215 60q121 0 217 -62l141 158l140 -129l-148 -166q59 -113 60 -244q0 -141 -60 -243l150 -166zM644 524.5 q42 57.5 42 175.5q0 119 -42 176.5t-128 57.5q-168 0 -168 -234q0 -233 168 -233q86 0 128 57.5z" />
<glyph unicode="&#xa5;" horiz-adv-x="1058" d="M1077 1384l-325 -663h180v-166h-244v-149h244v-166h-244v-240h-313v240h-242v166h242v149h-242v166h176l-327 663h323l230 -579l227 579h315z" />
<glyph unicode="&#xa6;" horiz-adv-x="681" d="M489 1659v-752h-294v752h294zM489 537v-752h-294v752h294z" />
<glyph unicode="&#xa7;" horiz-adv-x="1019" d="M862.5 280.5q24.5 -49.5 24.5 -120.5q0 -147 -115 -238.5t-303 -91.5q-207 0 -363 111l103 182q61 -39 119.5 -56.5t122.5 -17.5q68 0 104.5 24.5t36.5 69.5q0 37 -15.5 59.5t-62.5 46t-143 58.5q-145 49 -213 115.5t-68 185.5q0 82 41 146.5t113 107.5q-55 45 -81 97.5 t-26 123.5q0 94 50.5 169t142.5 117t215 42q205 0 362 -115l-104 -176q-113 72 -236 72q-68 0 -101.5 -25.5t-33.5 -70.5q0 -37 15.5 -59.5t60.5 -45t141 -57.5q139 -51 210 -120t71 -183q0 -160 -150 -260q58 -41 82.5 -90.5zM616 459q45 66 46 123q0 55 -38 91t-145 72 q-49 16 -82 33q-39 -57 -39 -116q0 -57 30 -89t116 -67q92 -37 112 -47z" />
<glyph unicode="&#xa8;" horiz-adv-x="874" d="M336 1587q45 -45 45 -112q0 -68 -45 -114t-112 -46q-66 0 -112 46t-46 114q0 66 46 111.5t112 45.5q67 0 112 -45zM771.5 1587q46.5 -45 46.5 -112q0 -68 -45.5 -114t-114.5 -46q-66 0 -112 46t-46 114q0 66 46 111.5t112 45.5q67 0 113.5 -45z" />
<glyph unicode="&#xa9;" horiz-adv-x="1492" d="M1067 1481q143 -86 227 -241t84 -355q0 -199 -83 -353.5t-227 -239.5t-320 -85q-174 0 -319.5 85t-229.5 239.5t-84 353.5q0 201 84 355.5t229 240.5t320 86q176 0 319 -86zM515 1343.5q-103 -63.5 -161.5 -182.5t-58.5 -276q0 -156 58.5 -273.5t161.5 -181t233 -63.5 q129 0 231 63.5t160.5 181t58.5 273.5q0 158 -58.5 276.5t-160.5 182t-231 63.5q-130 0 -233 -63.5zM997 1188l-92 -121q-37 27 -65.5 38t-63.5 11q-59 0 -96 -54t-37 -175q0 -225 135 -225q39 0 71 13t69 42l88 -125q-51 -51 -116 -80t-136 -29q-154 0 -242 104.5 t-88 299.5q0 186 91 293.5t241 107.5q137 0 241 -100z" />
<glyph unicode="&#xaa;" horiz-adv-x="929" d="M518 1081v29q0 63 -24.5 86t-90.5 23q-80 0 -204 -43l-64 182q72 31 156 46t160 15q176 0 259 -72.5t83 -213.5v-318q0 -37 10 -56.5t37 -27.5l-58 -184q-150 12 -209 110q-78 -115 -229 -114q-119 0 -191.5 71.5t-72.5 186.5q0 137 97 208.5t280 71.5h61zM518 793v139 h-37q-68 0 -96.5 -25.5t-28.5 -81.5q0 -86 72 -86q55 1 90 54zM88 244h770v-242h-770v242z" />
<glyph unicode="&#xab;" horiz-adv-x="1206" d="M422 1137l196 -129l-241 -424l241 -426l-196 -129l-352 452v201zM940 1137l196 -129l-241 -424l241 -426l-196 -129l-352 452v201z" />
<glyph unicode="&#xac;" horiz-adv-x="991" d="M907 793v-557h-258v315h-565v242h823z" />
<glyph unicode="&#xad;" horiz-adv-x="768" d="M84 518v246h600v-246h-600z" />
<glyph unicode="&#xae;" horiz-adv-x="1173" d="M850 1481.5q117 -70.5 183.5 -197.5t66.5 -291q0 -162 -66.5 -288.5t-183.5 -197.5t-262 -71t-263 71t-184.5 197.5t-66.5 288.5q0 164 66.5 291t184 197.5t263.5 70.5q145 0 262 -70.5zM849 685q99 114 99 308q0 197 -99 311.5t-261 114.5q-106 0 -188.5 -52 t-129.5 -148.5t-47 -225.5t47 -224t129 -146.5t189 -51.5q162 0 261 114zM770 1025q-29 -40 -76 -62l135 -242h-155l-105 211h-41v-211h-137v577h158q123 0 186.5 -46t63.5 -136q0 -51 -29 -91zM528 1049h54q35 0 55 17t20 56q0 68 -77 68h-52v-141z" />
<glyph unicode="&#xaf;" horiz-adv-x="696" d="M641 1346h-574v215h574v-215z" />
<glyph unicode="&#xb0;" horiz-adv-x="958" d="M237.5 800q-75.5 42 -122.5 120.5t-47 187.5t47 187.5t122.5 118.5t163.5 40t164 -41t123 -118.5t47 -186.5t-47 -188.5t-123 -120.5t-164 -41t-163.5 42zM490.5 984q31.5 42 31.5 124t-31.5 123t-89.5 41q-57 0 -89.5 -41t-32.5 -123t32.5 -124t89.5 -42q58 0 89.5 42z " />
<glyph unicode="&#xb1;" horiz-adv-x="991" d="M98 0v242h795v-242h-795zM625 1266v-315h280v-244h-280v-315h-258v315h-283v244h283v315h258z" />
<glyph unicode="&#xb2;" horiz-adv-x="747" d="M580.5 1464q78.5 -74 78.5 -182q0 -66 -24.5 -123.5t-91 -132t-197.5 -191.5h332l-25 -178h-559v166q141 143 208 218t93.5 125t26.5 99q0 45 -23.5 71t-64.5 26t-74 -19.5t-70 -62.5l-129 102q53 74 129 115t172 41q140 0 218.5 -74z" />
<glyph unicode="&#xb3;" horiz-adv-x="747" d="M578.5 1475.5q76.5 -64.5 76.5 -163.5q0 -154 -182 -200q98 -6 154.5 -58.5t56.5 -150.5q0 -115 -86 -193t-244 -78q-190 0 -301 138l123 116q41 -41 77 -58t81 -17q51 0 81.5 27.5t30.5 80.5q0 57 -31.5 83t-97.5 26h-63l27 157h43q109 0 108 95q0 43 -25.5 65.5 t-70.5 22.5q-82 0 -156 -70l-112 119q127 123 299 123q135 0 211.5 -64.5z" />
<glyph unicode="&#xb4;" horiz-adv-x="653" d="M475 1700l123 -232l-445 -192l-86 156z" />
<glyph unicode="&#xb5;" horiz-adv-x="1079" d="M715 -35q-16 43 -24.5 79t-16.5 91q-84 -152 -197 -151q-47 0 -84 19.5t-69 68.5q41 -76 60 -140.5t19 -167.5v-184l-297 -31v1538h316v-761q0 -113 82 -113q84 0 141 127v747h316v-714q0 -209 43 -373z" />
<glyph unicode="&#xb6;" horiz-adv-x="1472" d="M1270 1419v-1839l-275 -35v1655h-164v-1620l-274 -35v996q-215 6 -330.5 125.5t-115.5 314.5q0 207 130 322.5t369 115.5h660z" />
<glyph unicode="&#xb7;" horiz-adv-x="468" d="M362.5 758q51.5 -53 51.5 -127q0 -76 -51.5 -129t-129.5 -53t-128 53t-50 129q0 74 51.5 127t126.5 53q78 0 129.5 -53z" />
<glyph unicode="&#xb8;" horiz-adv-x="620" d="M371 -104q96 -12 145.5 -62.5t49.5 -134.5q0 -104 -76 -169t-207 -65q-125 0 -215 62l72 141q57 -31 118 -30q84 0 84 63q0 37 -42 54.5t-130 17.5l31 260h170v-137z" />
<glyph unicode="&#xb9;" horiz-adv-x="747" d="M561 1519v-862h-227v641l-168 -111l-103 150l289 182h209z" />
<glyph unicode="&#xba;" horiz-adv-x="933" d="M761.5 1307.5q106.5 -111.5 106.5 -326.5q0 -207 -106.5 -322.5t-292.5 -115.5q-188 0 -295.5 111.5t-107.5 328.5q0 207 107.5 321.5t293.5 114.5q188 0 294.5 -111.5zM380 1164.5q-28 -52.5 -28 -181.5q0 -135 27 -186.5t88 -51.5t89 52.5t28 183.5q0 133 -28 184.5 t-89 51.5q-59 0 -87 -52.5zM70 0v242h794v-242h-794z" />
<glyph unicode="&#xbb;" horiz-adv-x="1202" d="M264 1137l354 -455v-201l-354 -452l-194 129l241 426l-241 424zM780 1137l354 -455v-201l-354 -452l-194 129l241 426l-241 424z" />
<glyph unicode="&#xbc;" horiz-adv-x="1818" d="M561 1419v-862h-227v641l-168 -111l-103 150l289 182h209zM1197 1552l184 -84l-758 -1642l-182 84zM1773 344v-170h-86v-174h-213l-2 174h-358v156l221 553l195 -72l-183 -467h130l45 199h165v-199h86z" />
<glyph unicode="&#xbd;" horiz-adv-x="1818" d="M561 1419v-862h-227v641l-168 -111l-103 150l289 182h209zM1197 1552l184 -84l-758 -1642l-182 84zM1651.5 807q78.5 -74 78.5 -182q0 -66 -24.5 -123.5t-91 -132t-197.5 -191.5h332l-25 -178h-559v166q141 143 208 218t93.5 125t26.5 99q0 45 -23.5 71t-64.5 26 t-74 -19.5t-70 -62.5l-129 102q53 74 129 115t172 41q140 0 218.5 -74z" />
<glyph unicode="&#xbe;" horiz-adv-x="1818" d="M578.5 1375.5q76.5 -64.5 76.5 -163.5q0 -154 -182 -200q98 -6 154.5 -58.5t56.5 -150.5q0 -115 -86 -193t-244 -78q-190 0 -301 138l123 116q41 -41 77 -58t81 -17q51 0 81.5 27.5t30.5 80.5q0 57 -31.5 83t-97.5 26h-63l27 157h43q109 0 108 95q0 43 -25.5 65.5 t-70.5 22.5q-82 0 -156 -70l-112 119q127 123 299 123q135 0 211.5 -64.5zM1197 1552l184 -84l-758 -1642l-182 84zM1773 344v-170h-86v-174h-213l-2 174h-358v156l221 553l195 -72l-183 -467h130l45 199h165v-199h86z" />
<glyph unicode="&#xbf;" horiz-adv-x="907" d="M368.5 731q-51.5 53 -51.5 127q0 76 51.5 129t129.5 53t128 -53t50 -129q0 -74 -51.5 -127t-126.5 -53q-78 0 -129.5 53zM214 -409.5q-93 47.5 -140 125t-47 169.5q0 82 25.5 140.5t62.5 95.5t98 84q74 57 109.5 104t35.5 119v55h285v-65q0 -92 -25.5 -156.5 t-61.5 -102.5t-91 -81q-59 -47 -86 -81t-27 -89t32 -85t91 -30q113 0 213 119l193 -150q-170 -219 -441 -219q-133 0 -226 47.5z" />
<glyph unicode="&#xc0;" d="M797 0l-64 309h-360l-64 -309h-332l383 1419h394l381 -1419h-338zM422 545h262l-131 635zM408 1944l410 -250l-80 -156l-449 174z" />
<glyph unicode="&#xc1;" d="M797 0l-64 309h-360l-64 -309h-332l383 1419h394l381 -1419h-338zM422 545h262l-131 635zM703 1946l119 -232l-449 -176l-80 158z" />
<glyph unicode="&#xc2;" d="M797 0l-64 309h-360l-64 -309h-332l383 1419h394l381 -1419h-338zM422 545h262l-131 635zM309 1552l-110 119l264 268h188l263 -268l-109 -119l-248 170z" />
<glyph unicode="&#xc3;" d="M797 0l-64 309h-360l-64 -309h-332l383 1419h394l381 -1419h-338zM422 545h262l-131 635zM599.5 1579q-27.5 12 -70.5 39q-27 18 -42.5 26.5t-33.5 8.5q-31 0 -51.5 -19.5t-46.5 -66.5l-152 71q37 104 100.5 169t143.5 65q41 0 71.5 -13.5t69.5 -39.5q4 -2 20.5 -12.5 t29.5 -15.5t26 -5q29 0 50 19.5t46 64.5l152 -72q-37 -106 -100.5 -168.5t-143.5 -62.5q-41 0 -68.5 12z" />
<glyph unicode="&#xc4;" d="M797 0l-64 309h-360l-64 -309h-332l383 1419h394l381 -1419h-338zM422 545h262l-131 635zM454 1845q45 -45 45 -112q0 -68 -45 -114t-112 -46q-66 0 -112 46t-46 114q0 66 46 111.5t112 45.5q67 0 112 -45zM889.5 1845q46.5 -45 46.5 -112q0 -68 -45.5 -114t-114.5 -46 q-66 0 -112 46t-46 114q0 66 46 111.5t112 45.5q67 0 113.5 -45z" />
<glyph unicode="&#xc5;" d="M797 0l-64 309h-360l-64 -309h-332l383 1419h394l381 -1419h-338zM422 545h262l-131 635zM752 1955q72 -75 72 -190t-72 -190.5t-193 -75.5t-193.5 76t-72.5 190q0 115 73 190t193 75q121 0 193 -75zM477 1765q0 -106 82 -106q80 0 80 106q0 104 -80 105q-82 -1 -82 -105 z" />
<glyph unicode="&#xc6;" horiz-adv-x="1568" d="M1092 238h428v-238h-703l-43 309h-379l-90 -309h-350l502 1419h995l-35 -233h-485l59 -352h443v-232h-404zM465 547h274l-90 633z" />
<glyph unicode="&#xc7;" horiz-adv-x="1073" d="M913 31q-88 -49 -194 -62v-73q96 -12 145 -62.5t49 -134.5q0 -104 -75.5 -169t-206.5 -65q-125 0 -215 62l71 141q57 -31 119 -30q84 0 84 63q0 37 -42 54.5t-130 17.5l25 200q-225 39 -353.5 226.5t-128.5 513.5q0 238 76 404.5t208 251.5t304 85q123 0 219.5 -39 t182.5 -117l-156 -182q-55 47 -109.5 70.5t-115.5 23.5q-266 0 -267 -497q0 -494 269 -494q70 0 124 27.5t122 81.5l147 -181q-64 -67 -152 -116z" />
<glyph unicode="&#xc8;" horiz-adv-x="970" d="M915 1419l-34 -233h-441v-350h385v-230h-385v-368h471v-238h-798v1419h802zM367 1944l410 -250l-80 -156l-449 174z" />
<glyph unicode="&#xc9;" horiz-adv-x="970" d="M915 1419l-34 -233h-441v-350h385v-230h-385v-368h471v-238h-798v1419h802zM662 1946l119 -232l-449 -176l-80 158z" />
<glyph unicode="&#xca;" horiz-adv-x="970" d="M915 1419l-34 -233h-441v-350h385v-230h-385v-368h471v-238h-798v1419h802zM268 1552l-110 119l264 268h188l263 -268l-109 -119l-248 170z" />
<glyph unicode="&#xcb;" horiz-adv-x="970" d="M915 1419l-34 -233h-441v-350h385v-230h-385v-368h471v-238h-798v1419h802zM413 1845q45 -45 45 -112q0 -68 -45 -114t-112 -46q-66 0 -112 46t-46 114q0 66 46 111.5t112 45.5q67 0 112 -45zM848.5 1845q46.5 -45 46.5 -112q0 -68 -45.5 -114t-114.5 -46q-66 0 -112 46 t-46 114q0 66 46 111.5t112 45.5q67 0 113.5 -45z" />
<glyph unicode="&#xcc;" horiz-adv-x="550" d="M440 1419v-1419h-327v1419h327zM125 1944l410 -250l-80 -156l-449 174z" />
<glyph unicode="&#xcd;" horiz-adv-x="550" d="M440 1419v-1419h-327v1419h327zM420 1946l119 -232l-449 -176l-80 158z" />
<glyph unicode="&#xce;" horiz-adv-x="550" d="M440 1419v-1419h-327v1419h327zM26 1552l-110 119l264 268h188l263 -268l-109 -119l-248 170z" />
<glyph unicode="&#xcf;" horiz-adv-x="550" d="M440 1419v-1419h-327v1419h327zM172 1845q45 -45 45 -112q0 -68 -45 -114t-112 -46q-66 0 -112 46t-46 114q0 66 46 111.5t112 45.5q67 0 112 -45zM607.5 1845q46.5 -45 46.5 -112q0 -68 -45.5 -114t-114.5 -46q-66 0 -112 46t-46 114q0 66 46 111.5t112 45.5 q67 0 113.5 -45z" />
<glyph unicode="&#xd0;" horiz-adv-x="1251" d="M861.5 1364q146.5 -55 236.5 -211t90 -436q0 -397 -176 -557t-467 -160h-400v625h-116v196h116v598h373q197 0 343.5 -55zM720.5 278.5q61.5 40.5 95.5 146t34 292.5q0 186 -35 288.5t-97.5 139.5t-154.5 37h-90v-361h217v-196h-217v-387h92q94 0 155.5 40.5z" />
<glyph unicode="&#xd1;" horiz-adv-x="1226" d="M1114 0h-409l-349 1114q4 -25 4 -41q18 -147 28.5 -267t10.5 -278v-528h-286v1419h405l354 -1116q-45 266 -45 531v585h287v-1419zM660.5 1579q-27.5 12 -70.5 39q-27 18 -42.5 26.5t-33.5 8.5q-31 0 -51.5 -19.5t-46.5 -66.5l-152 71q37 104 100.5 169t143.5 65 q41 0 71.5 -13.5t69.5 -39.5q4 -2 20.5 -12.5t29.5 -15.5t26 -5q29 0 50 19.5t46 64.5l152 -72q-37 -106 -100.5 -168.5t-143.5 -62.5q-41 0 -68.5 12z" />
<glyph unicode="&#xd2;" horiz-adv-x="1290" d="M1077.5 1264.5q151.5 -189.5 151.5 -553.5q0 -360 -152.5 -553t-431.5 -193t-431.5 190.5t-152.5 555.5q0 358 153 550.5t431 192.5q281 0 432.5 -189.5zM461.5 1097.5q-58.5 -116.5 -58.5 -386.5q0 -274 59.5 -390t182.5 -116q125 0 183.5 115.5t58.5 390.5 q0 270 -58.5 386.5t-183.5 116.5t-183.5 -116.5zM496 1944l410 -250l-80 -156l-449 174z" />
<glyph unicode="&#xd3;" horiz-adv-x="1290" d="M1077.5 1264.5q151.5 -189.5 151.5 -553.5q0 -360 -152.5 -553t-431.5 -193t-431.5 190.5t-152.5 555.5q0 358 153 550.5t431 192.5q281 0 432.5 -189.5zM461.5 1097.5q-58.5 -116.5 -58.5 -386.5q0 -274 59.5 -390t182.5 -116q125 0 183.5 115.5t58.5 390.5 q0 270 -58.5 386.5t-183.5 116.5t-183.5 -116.5zM791 1946l119 -232l-449 -176l-80 158z" />
<glyph unicode="&#xd4;" horiz-adv-x="1290" d="M1077.5 1264.5q151.5 -189.5 151.5 -553.5q0 -360 -152.5 -553t-431.5 -193t-431.5 190.5t-152.5 555.5q0 358 153 550.5t431 192.5q281 0 432.5 -189.5zM461.5 1097.5q-58.5 -116.5 -58.5 -386.5q0 -274 59.5 -390t182.5 -116q125 0 183.5 115.5t58.5 390.5 q0 270 -58.5 386.5t-183.5 116.5t-183.5 -116.5zM397 1552l-110 119l264 268h188l263 -268l-109 -119l-248 170z" />
<glyph unicode="&#xd5;" horiz-adv-x="1290" d="M1077.5 1264.5q151.5 -189.5 151.5 -553.5q0 -360 -152.5 -553t-431.5 -193t-431.5 190.5t-152.5 555.5q0 358 153 550.5t431 192.5q281 0 432.5 -189.5zM461.5 1097.5q-58.5 -116.5 -58.5 -386.5q0 -274 59.5 -390t182.5 -116q125 0 183.5 115.5t58.5 390.5 q0 270 -58.5 386.5t-183.5 116.5t-183.5 -116.5zM687.5 1579q-27.5 12 -70.5 39q-27 18 -42.5 26.5t-33.5 8.5q-31 0 -51.5 -19.5t-46.5 -66.5l-152 71q37 104 100.5 169t143.5 65q41 0 71.5 -13.5t69.5 -39.5q4 -2 20.5 -12.5t29.5 -15.5t26 -5q29 0 50 19.5t46 64.5 l152 -72q-37 -106 -100.5 -168.5t-143.5 -62.5q-41 0 -68.5 12z" />
<glyph unicode="&#xd6;" horiz-adv-x="1290" d="M1077.5 1264.5q151.5 -189.5 151.5 -553.5q0 -360 -152.5 -553t-431.5 -193t-431.5 190.5t-152.5 555.5q0 358 153 550.5t431 192.5q281 0 432.5 -189.5zM461.5 1097.5q-58.5 -116.5 -58.5 -386.5q0 -274 59.5 -390t182.5 -116q125 0 183.5 115.5t58.5 390.5 q0 270 -58.5 386.5t-183.5 116.5t-183.5 -116.5zM542 1845q45 -45 45 -112q0 -68 -45 -114t-112 -46q-66 0 -112 46t-46 114q0 66 46 111.5t112 45.5q67 0 112 -45zM977.5 1845q46.5 -45 46.5 -112q0 -68 -45.5 -114t-114.5 -46q-66 0 -112 46t-46 114q0 66 46 111.5 t112 45.5q67 0 113.5 -45z" />
<glyph unicode="&#xd7;" horiz-adv-x="962" d="M696 1042l181 -159l-226 -252l226 -258l-181 -160l-213 254l-217 -254l-180 160l225 252l-225 258l180 159l213 -254z" />
<glyph unicode="&#xd8;" horiz-adv-x="1290" d="M1160.5 1120q68.5 -166 68.5 -409q0 -358 -152.5 -552t-431.5 -194q-31 0 -80 4l-67 -243l-242 65l74 258q-131 86 -200 252t-69 410q0 358 153 550.5t431 192.5q31 0 80 -4l68 244l243 -66l-75 -258q131 -84 199.5 -250zM453.5 1101q-60.5 -116 -60.5 -390 q0 -303 66 -418l235 919q-29 4 -49 5q-131 0 -191.5 -116zM789.5 252q54.5 49 80 159.5t27.5 299.5q0 297 -66 409l-235 -915q16 -2 49 -2q90 0 144.5 49z" />
<glyph unicode="&#xd9;" horiz-adv-x="1202" d="M1112 438q0 -135 -57.5 -242.5t-172 -169t-280.5 -61.5q-250 0 -380 129t-130 344v981h328v-968q0 -123 43 -181.5t139 -58.5t138 58.5t42 181.5v968h330v-981zM453 1944l410 -250l-80 -156l-449 174z" />
<glyph unicode="&#xda;" horiz-adv-x="1202" d="M1112 438q0 -135 -57.5 -242.5t-172 -169t-280.5 -61.5q-250 0 -380 129t-130 344v981h328v-968q0 -123 43 -181.5t139 -58.5t138 58.5t42 181.5v968h330v-981zM748 1946l119 -232l-449 -176l-80 158z" />
<glyph unicode="&#xdb;" horiz-adv-x="1202" d="M1112 438q0 -135 -57.5 -242.5t-172 -169t-280.5 -61.5q-250 0 -380 129t-130 344v981h328v-968q0 -123 43 -181.5t139 -58.5t138 58.5t42 181.5v968h330v-981zM354 1552l-110 119l264 268h188l263 -268l-109 -119l-248 170z" />
<glyph unicode="&#xdc;" horiz-adv-x="1202" d="M1112 438q0 -135 -57.5 -242.5t-172 -169t-280.5 -61.5q-250 0 -380 129t-130 344v981h328v-968q0 -123 43 -181.5t139 -58.5t138 58.5t42 181.5v968h330v-981zM499 1845q45 -45 45 -112q0 -68 -45 -114t-112 -46q-66 0 -112 46t-46 114q0 66 46 111.5t112 45.5 q67 0 112 -45zM934.5 1845q46.5 -45 46.5 -112q0 -68 -45.5 -114t-114.5 -46q-66 0 -112 46t-46 114q0 66 46 111.5t112 45.5q67 0 113.5 -45z" />
<glyph unicode="&#xdd;" horiz-adv-x="1110" d="M1128 1419l-409 -887v-532h-328v530l-409 889h350l227 -631l232 631h337zM701 1946l119 -232l-449 -176l-80 158z" />
<glyph unicode="&#xde;" horiz-adv-x="1114" d="M940 1078.5q143 -117.5 143 -349.5q0 -248 -140 -370.5t-384 -122.5h-119v-236h-327v1419h327v-223h95q262 0 405 -117.5zM695.5 530.5q54.5 59.5 54.5 198.5q0 123 -55.5 178.5t-168.5 55.5h-86v-492h90q111 0 165.5 59.5z" />
<glyph unicode="&#xdf;" horiz-adv-x="1130" d="M767 1511q89 -41 134 -109.5t45 -152.5q0 -72 -25.5 -120t-72.5 -103q-37 -45 -54.5 -74.5t-17.5 -68.5q0 -41 27.5 -74t87.5 -84q63 -53 106 -99t74 -118t31 -168q0 -115 -49 -200t-135.5 -130t-192.5 -45q-125 0 -225 53l94 209q41 -18 82 -18q47 0 75.5 33.5 t28.5 101.5q0 72 -32.5 120t-98.5 109q-72 66 -107.5 120.5t-35.5 137.5q0 68 19.5 111t58.5 94q35 47 52 84t17 90q0 59 -28.5 90t-77.5 31q-125 0 -125 -196v-1135h-316v1120q0 199 118 315.5t331 116.5q123 0 212 -41z" />
<glyph unicode="&#xe0;" horiz-adv-x="1017" d="M921.5 219.5q14.5 -26.5 49.5 -41.5l-66 -207q-94 8 -153.5 43t-92.5 109q-100 -158 -292 -158q-147 0 -234.5 93.5t-87.5 246.5q0 178 120 272.5t347 94.5h86v51q0 96 -35 134t-123 38q-100 0 -256 -55l-71 202q90 39 192.5 59.5t190.5 20.5q211 0 311 -94t100 -287 v-440q0 -55 14.5 -81.5zM539.5 217q35.5 27 58.5 76v203h-57q-96 0 -141.5 -40t-45.5 -124q0 -70 28 -106t79 -36q43 0 78.5 27zM379 1700l408 -268l-86 -156l-445 192z" />
<glyph unicode="&#xe1;" horiz-adv-x="1017" d="M921.5 219.5q14.5 -26.5 49.5 -41.5l-66 -207q-94 8 -153.5 43t-92.5 109q-100 -158 -292 -158q-147 0 -234.5 93.5t-87.5 246.5q0 178 120 272.5t347 94.5h86v51q0 96 -35 134t-123 38q-100 0 -256 -55l-71 202q90 39 192.5 59.5t190.5 20.5q211 0 311 -94t100 -287 v-440q0 -55 14.5 -81.5zM539.5 217q35.5 27 58.5 76v203h-57q-96 0 -141.5 -40t-45.5 -124q0 -70 28 -106t79 -36q43 0 78.5 27zM633 1700l123 -232l-445 -192l-86 156z" />
<glyph unicode="&#xe2;" horiz-adv-x="1017" d="M921.5 219.5q14.5 -26.5 49.5 -41.5l-66 -207q-94 8 -153.5 43t-92.5 109q-100 -158 -292 -158q-147 0 -234.5 93.5t-87.5 246.5q0 178 120 272.5t347 94.5h86v51q0 96 -35 134t-123 38q-100 0 -256 -55l-71 202q90 39 192.5 59.5t190.5 20.5q211 0 311 -94t100 -287 v-440q0 -55 14.5 -81.5zM539.5 217q35.5 27 58.5 76v203h-57q-96 0 -141.5 -40t-45.5 -124q0 -70 28 -106t79 -36q43 0 78.5 27zM256 1276l-110 121l262 282h190l263 -282l-111 -121l-246 188z" />
<glyph unicode="&#xe3;" horiz-adv-x="1017" d="M921.5 219.5q14.5 -26.5 49.5 -41.5l-66 -207q-94 8 -153.5 43t-92.5 109q-100 -158 -292 -158q-147 0 -234.5 93.5t-87.5 246.5q0 178 120 272.5t347 94.5h86v51q0 96 -35 134t-123 38q-100 0 -256 -55l-71 202q90 39 192.5 59.5t190.5 20.5q211 0 311 -94t100 -287 v-440q0 -55 14.5 -81.5zM539.5 217q35.5 27 58.5 76v203h-57q-96 0 -141.5 -40t-45.5 -124q0 -70 28 -106t79 -36q43 0 78.5 27zM546.5 1321q-27.5 12 -70.5 39q-27 18 -42.5 26.5t-33.5 8.5q-31 0 -51.5 -19.5t-46.5 -66.5l-152 71q37 104 100.5 169t143.5 65 q41 0 71.5 -13.5t69.5 -39.5q4 -2 20.5 -12.5t29.5 -15.5t26 -5q29 0 50 19.5t46 64.5l152 -72q-37 -106 -100.5 -168.5t-143.5 -62.5q-41 0 -68.5 12z" />
<glyph unicode="&#xe4;" horiz-adv-x="1017" d="M921.5 219.5q14.5 -26.5 49.5 -41.5l-66 -207q-94 8 -153.5 43t-92.5 109q-100 -158 -292 -158q-147 0 -234.5 93.5t-87.5 246.5q0 178 120 272.5t347 94.5h86v51q0 96 -35 134t-123 38q-100 0 -256 -55l-71 202q90 39 192.5 59.5t190.5 20.5q211 0 311 -94t100 -287 v-440q0 -55 14.5 -81.5zM539.5 217q35.5 27 58.5 76v203h-57q-96 0 -141.5 -40t-45.5 -124q0 -70 28 -106t79 -36q43 0 78.5 27zM397 1587q45 -45 45 -112q0 -68 -45 -114t-112 -46q-66 0 -112 46t-46 114q0 66 46 111.5t112 45.5q67 0 112 -45zM832.5 1587 q46.5 -45 46.5 -112q0 -68 -45.5 -114t-114.5 -46q-66 0 -112 46t-46 114q0 66 46 111.5t112 45.5q67 0 113.5 -45z" />
<glyph unicode="&#xe5;" horiz-adv-x="1017" d="M921.5 219.5q14.5 -26.5 49.5 -41.5l-66 -207q-94 8 -153.5 43t-92.5 109q-100 -158 -292 -158q-147 0 -234.5 93.5t-87.5 246.5q0 178 120 272.5t347 94.5h86v51q0 96 -35 134t-123 38q-100 0 -256 -55l-71 202q90 39 192.5 59.5t190.5 20.5q211 0 311 -94t100 -287 v-440q0 -55 14.5 -81.5zM539.5 217q35.5 27 58.5 76v203h-57q-96 0 -141.5 -40t-45.5 -124q0 -70 28 -106t79 -36q43 0 78.5 27zM696 1697q72 -75 72 -190t-72 -190.5t-193 -75.5t-193.5 76t-72.5 190q0 115 73 190t193 75q121 0 193 -75zM421 1507q0 -106 82 -106 q80 0 80 106q0 104 -80 105q-82 -1 -82 -105z" />
<glyph unicode="&#xe6;" horiz-adv-x="1589" d="M1534 451h-604q12 -141 65.5 -197.5t149.5 -56.5q55 0 109.5 22.5t119.5 69.5l129 -172q-166 -152 -387 -152q-131 0 -230.5 48t-162.5 134q-127 -182 -344 -182q-154 0 -244 94.5t-90 245.5q0 174 123 267.5t356 93.5h86v53q0 98 -34.5 136t-122.5 38q-100 0 -256 -55 l-70 204q193 80 375 80q111 0 182.5 -34.5t116.5 -102.5q117 137 305 137q199 0 316.5 -145.5t117.5 -411.5q0 -65 -6 -114zM1235 655q0 256 -150 256q-72 0 -110.5 -61.5t-46.5 -208.5h307v14zM641 324q-23 78 -25 161v2h-61q-94 0 -139 -38.5t-45 -122.5q0 -135 104 -136 q92 1 166 134z" />
<glyph unicode="&#xe7;" horiz-adv-x="892" d="M610 -33v-71q96 -12 145.5 -62.5t49.5 -134.5q0 -104 -76 -169t-207 -65q-125 0 -215 62l72 141q57 -31 119 -30q84 0 84 63q0 37 -42 54.5t-130 17.5l24 204q-178 37 -276.5 181.5t-98.5 376.5q0 178 60.5 311t172 204.5t261.5 71.5q102 0 184 -32.5t154 -100.5 l-131 -180q-47 37 -90 54.5t-92 17.5q-94 0 -141.5 -78t-47.5 -266q0 -180 48 -252t138 -72q47 0 86 15.5t93 52.5l137 -187q-119 -109 -281 -127z" />
<glyph unicode="&#xe8;" horiz-adv-x="1038" d="M983 451h-606q12 -143 63.5 -198.5t145.5 -55.5q61 0 116.5 22.5t120.5 69.5l129 -174q-168 -150 -391 -150q-246 0 -374 152.5t-128 421.5q0 262 123 422.5t346 160.5q215 0 338 -144t123 -413q0 -65 -6 -114zM680 655q0 129 -34 193.5t-114 64.5q-72 0 -110.5 -60 t-46.5 -212h305v14zM408 1700l408 -268l-86 -156l-445 192z" />
<glyph unicode="&#xe9;" horiz-adv-x="1038" d="M983 451h-606q12 -143 63.5 -198.5t145.5 -55.5q61 0 116.5 22.5t120.5 69.5l129 -174q-168 -150 -391 -150q-246 0 -374 152.5t-128 421.5q0 262 123 422.5t346 160.5q215 0 338 -144t123 -413q0 -65 -6 -114zM680 655q0 129 -34 193.5t-114 64.5q-72 0 -110.5 -60 t-46.5 -212h305v14zM662 1700l123 -232l-445 -192l-86 156z" />
<glyph unicode="&#xea;" horiz-adv-x="1038" d="M983 451h-606q12 -143 63.5 -198.5t145.5 -55.5q61 0 116.5 22.5t120.5 69.5l129 -174q-168 -150 -391 -150q-246 0 -374 152.5t-128 421.5q0 262 123 422.5t346 160.5q215 0 338 -144t123 -413q0 -65 -6 -114zM680 655q0 129 -34 193.5t-114 64.5q-72 0 -110.5 -60 t-46.5 -212h305v14zM284 1276l-110 121l262 282h190l263 -282l-111 -121l-246 188z" />
<glyph unicode="&#xeb;" horiz-adv-x="1038" d="M983 451h-606q12 -143 63.5 -198.5t145.5 -55.5q61 0 116.5 22.5t120.5 69.5l129 -174q-168 -150 -391 -150q-246 0 -374 152.5t-128 421.5q0 262 123 422.5t346 160.5q215 0 338 -144t123 -413q0 -65 -6 -114zM680 655q0 129 -34 193.5t-114 64.5q-72 0 -110.5 -60 t-46.5 -212h305v14zM426 1587q45 -45 45 -112q0 -68 -45 -114t-112 -46q-66 0 -112 46t-46 114q0 66 46 111.5t112 45.5q67 0 112 -45zM861.5 1587q46.5 -45 46.5 -112q0 -68 -45.5 -114t-114.5 -46q-66 0 -112 46t-46 114q0 66 46 111.5t112 45.5q67 0 113.5 -45z" />
<glyph unicode="&#xec;" horiz-adv-x="530" d="M422 1087v-1087h-316v1087h316zM139 1700l408 -268l-86 -156l-445 192z" />
<glyph unicode="&#xed;" horiz-adv-x="530" d="M422 1087v-1087h-316v1087h316zM394 1700l123 -232l-445 -192l-86 156z" />
<glyph unicode="&#xee;" horiz-adv-x="530" d="M422 1087v-1087h-316v1087h316zM16 1276l-110 121l262 282h190l263 -282l-111 -121l-246 188z" />
<glyph unicode="&#xef;" horiz-adv-x="530" d="M422 1087v-1087h-316v1087h316zM157 1587q45 -45 45 -112q0 -68 -45 -114t-112 -46q-66 0 -112 46t-46 114q0 66 46 111.5t112 45.5q67 0 112 -45zM592.5 1587q46.5 -45 46.5 -112q0 -68 -45.5 -114t-114.5 -46q-66 0 -112 46t-46 114q0 66 46 111.5t112 45.5 q67 0 113.5 -45z" />
<glyph unicode="&#xf0;" horiz-adv-x="1089" d="M940 1032.5q80 -194.5 80 -465.5q0 -172 -57.5 -309t-167 -215t-263.5 -78q-135 0 -242.5 60.5t-169 177t-61.5 276.5q0 143 51.5 258t138.5 179.5t193 64.5q76 0 133.5 -24.5t108.5 -71.5q-27 100 -69 174t-115 137l-103 -115l-194 93l116 126q-74 25 -169 48l59 202 q131 -20 272 -75l137 155l164 -131l-110 -129q188 -143 268 -337.5zM660.5 272.5q39.5 75.5 39.5 239.5l-2 160q-66 88 -163 88q-82 0 -120 -69.5t-38 -207.5q0 -154 41 -220t119 -66q84 0 123.5 75.5z" />
<glyph unicode="&#xf1;" horiz-adv-x="1073" d="M900 1037q73 -85 73 -232v-805h-316v762q0 68 -19.5 95.5t-57.5 27.5q-41 0 -79 -34t-79 -99v-752h-316v1087h277l23 -129q59 82 130.5 123t163.5 41q127 0 200 -85zM587.5 1321q-27.5 12 -70.5 39q-27 18 -42.5 26.5t-33.5 8.5q-31 0 -51.5 -19.5t-46.5 -66.5l-152 71 q37 104 100.5 169t143.5 65q41 0 71.5 -13.5t69.5 -39.5q4 -2 20.5 -12.5t29.5 -15.5t26 -5q29 0 50 19.5t46 64.5l152 -72q-37 -106 -100.5 -168.5t-143.5 -62.5q-41 0 -68.5 12z" />
<glyph unicode="&#xf2;" horiz-adv-x="1093" d="M906 973.5q130 -148.5 130 -430.5q0 -270 -131 -424t-358 -154q-229 0 -358.5 149.5t-129.5 430.5q0 272 130 424.5t358 152.5q229 0 359 -148.5zM424 809q-39 -80 -39 -264q0 -188 39 -268t123 -80t124 80.5t40 265.5q0 188 -39 267t-125 79q-84 0 -123 -80zM422 1700 l408 -268l-86 -156l-445 192z" />
<glyph unicode="&#xf3;" horiz-adv-x="1093" d="M906 973.5q130 -148.5 130 -430.5q0 -270 -131 -424t-358 -154q-229 0 -358.5 149.5t-129.5 430.5q0 272 130 424.5t358 152.5q229 0 359 -148.5zM424 809q-39 -80 -39 -264q0 -188 39 -268t123 -80t124 80.5t40 265.5q0 188 -39 267t-125 79q-84 0 -123 -80zM676 1700 l123 -232l-445 -192l-86 156z" />
<glyph unicode="&#xf4;" horiz-adv-x="1093" d="M906 973.5q130 -148.5 130 -430.5q0 -270 -131 -424t-358 -154q-229 0 -358.5 149.5t-129.5 430.5q0 272 130 424.5t358 152.5q229 0 359 -148.5zM424 809q-39 -80 -39 -264q0 -188 39 -268t123 -80t124 80.5t40 265.5q0 188 -39 267t-125 79q-84 0 -123 -80zM299 1276 l-110 121l262 282h190l263 -282l-111 -121l-246 188z" />
<glyph unicode="&#xf5;" horiz-adv-x="1093" d="M906 973.5q130 -148.5 130 -430.5q0 -270 -131 -424t-358 -154q-229 0 -358.5 149.5t-129.5 430.5q0 272 130 424.5t358 152.5q229 0 359 -148.5zM424 809q-39 -80 -39 -264q0 -188 39 -268t123 -80t124 80.5t40 265.5q0 188 -39 267t-125 79q-84 0 -123 -80zM589.5 1321 q-27.5 12 -70.5 39q-27 18 -42.5 26.5t-33.5 8.5q-31 0 -51.5 -19.5t-46.5 -66.5l-152 71q37 104 100.5 169t143.5 65q41 0 71.5 -13.5t69.5 -39.5q4 -2 20.5 -12.5t29.5 -15.5t26 -5q29 0 50 19.5t46 64.5l152 -72q-37 -106 -100.5 -168.5t-143.5 -62.5q-41 0 -68.5 12z " />
<glyph unicode="&#xf6;" horiz-adv-x="1093" d="M906 973.5q130 -148.5 130 -430.5q0 -270 -131 -424t-358 -154q-229 0 -358.5 149.5t-129.5 430.5q0 272 130 424.5t358 152.5q229 0 359 -148.5zM424 809q-39 -80 -39 -264q0 -188 39 -268t123 -80t124 80.5t40 265.5q0 188 -39 267t-125 79q-84 0 -123 -80zM440 1587 q45 -45 45 -112q0 -68 -45 -114t-112 -46q-66 0 -112 46t-46 114q0 66 46 111.5t112 45.5q67 0 112 -45zM875.5 1587q46.5 -45 46.5 -112q0 -68 -45.5 -114t-114.5 -46q-66 0 -112 46t-46 114q0 66 46 111.5t112 45.5q67 0 113.5 -45z" />
<glyph unicode="&#xf7;" horiz-adv-x="962" d="M610.5 315.5q51.5 -53.5 51.5 -127.5q0 -76 -51.5 -129t-129.5 -53t-128 53.5t-50 128.5q0 74 51.5 127.5t126.5 53.5q78 0 129.5 -53.5zM610.5 1298.5q51.5 -53.5 51.5 -127.5q0 -76 -51.5 -129t-129.5 -53t-128 53.5t-50 128.5q0 74 51.5 127.5t126.5 53.5 q78 0 129.5 -53.5zM84 559v242h795v-242h-795z" />
<glyph unicode="&#xf8;" horiz-adv-x="1093" d="M981 849q55 -126 55 -306q0 -270 -131 -424t-358 -154q-35 0 -53 2l-68 -241l-227 63l73 254q-102 70 -157.5 197t-55.5 305q0 272 130 424.5t358 152.5q39 0 57 -2l72 244l227 -66l-80 -254q103 -69 158 -195zM398 812q-48 -81 -48 -267q0 -205 45 -283l176 631h-24 q-101 0 -149 -81zM696 274.5q49 81.5 49 268.5q0 201 -45 278l-176 -628h23q100 0 149 81.5z" />
<glyph unicode="&#xf9;" horiz-adv-x="1062" d="M954 0h-274l-14 131q-106 -166 -289 -166q-133 0 -206 88t-73 238v796h316v-772q0 -117 82 -116q80 0 143 118v770h315v-1087zM403 1700l408 -268l-86 -156l-445 192z" />
<glyph unicode="&#xfa;" horiz-adv-x="1062" d="M954 0h-274l-14 131q-106 -166 -289 -166q-133 0 -206 88t-73 238v796h316v-772q0 -117 82 -116q80 0 143 118v770h315v-1087zM658 1700l123 -232l-445 -192l-86 156z" />
<glyph unicode="&#xfb;" horiz-adv-x="1062" d="M954 0h-274l-14 131q-106 -166 -289 -166q-133 0 -206 88t-73 238v796h316v-772q0 -117 82 -116q80 0 143 118v770h315v-1087zM280 1276l-110 121l262 282h190l263 -282l-111 -121l-246 188z" />
<glyph unicode="&#xfc;" horiz-adv-x="1062" d="M954 0h-274l-14 131q-106 -166 -289 -166q-133 0 -206 88t-73 238v796h316v-772q0 -117 82 -116q80 0 143 118v770h315v-1087zM422 1587q45 -45 45 -112q0 -68 -45 -114t-112 -46q-66 0 -112 46t-46 114q0 66 46 111.5t112 45.5q67 0 112 -45zM857.5 1587 q46.5 -45 46.5 -112q0 -68 -45.5 -114t-114.5 -46q-66 0 -112 46t-46 114q0 66 46 111.5t112 45.5q67 0 113.5 -45z" />
<glyph unicode="&#xfd;" horiz-adv-x="974" d="M676 -2q-117 -424 -570 -453l-34 219q141 20 210.5 72.5t110.5 163.5h-112l-291 1087h323l168 -886l187 886h317zM617 1700l123 -232l-445 -192l-86 156z" />
<glyph unicode="&#xfe;" d="M957.5 972.5q91.5 -149.5 91.5 -425.5q0 -172 -48.5 -304t-136.5 -205t-207 -73q-145 0 -235 121v-502l-316 -37v1973l316 32v-567q104 137 262 137q182 0 273.5 -149.5zM723 543q0 199 -36 273.5t-109 74.5q-88 0 -156 -121v-481q59 -90 141 -90q160 0 160 344z" />
<glyph unicode="&#xff;" horiz-adv-x="974" d="M676 -2q-117 -424 -570 -453l-34 219q141 20 210.5 72.5t110.5 163.5h-112l-291 1087h323l168 -886l187 886h317zM381 1587q45 -45 45 -112q0 -68 -45 -114t-112 -46q-66 0 -112 46t-46 114q0 66 46 111.5t112 45.5q67 0 112 -45zM816.5 1587q46.5 -45 46.5 -112 q0 -68 -45.5 -114t-114.5 -46q-66 0 -112 46t-46 114q0 66 46 111.5t112 45.5q67 0 113.5 -45z" />
<glyph unicode="&#x100;" d="M797 0l-64 309h-360l-64 -309h-332l383 1419h394l381 -1419h-338zM422 545h262l-131 635zM844 1604h-574v215h574v-215z" />
<glyph unicode="&#x101;" horiz-adv-x="1017" d="M921.5 219.5q14.5 -26.5 49.5 -41.5l-66 -207q-94 8 -153.5 43t-92.5 109q-100 -158 -292 -158q-147 0 -234.5 93.5t-87.5 246.5q0 178 120 272.5t347 94.5h86v51q0 96 -35 134t-123 38q-100 0 -256 -55l-71 202q90 39 192.5 59.5t190.5 20.5q211 0 311 -94t100 -287 v-440q0 -55 14.5 -81.5zM539.5 217q35.5 27 58.5 76v203h-57q-96 0 -141.5 -40t-45.5 -124q0 -70 28 -106t79 -36q43 0 78.5 27zM791 1346h-574v215h574v-215z" />
<glyph unicode="&#x102;" d="M797 0l-64 309h-360l-64 -309h-332l383 1419h394l381 -1419h-338zM422 545h262l-131 635zM327 1629q-83 91 -96 237l170 30q16 -66 54 -102.5t100 -36.5q61 0 100 38t56 101l170 -30q-12 -143 -96.5 -235.5t-229.5 -92.5t-228 91z" />
<glyph unicode="&#x103;" horiz-adv-x="1017" d="M921.5 219.5q14.5 -26.5 49.5 -41.5l-66 -207q-94 8 -153.5 43t-92.5 109q-100 -158 -292 -158q-147 0 -234.5 93.5t-87.5 246.5q0 178 120 272.5t347 94.5h86v51q0 96 -35 134t-123 38q-100 0 -256 -55l-71 202q90 39 192.5 59.5t190.5 20.5q211 0 311 -94t100 -287 v-440q0 -55 14.5 -81.5zM539.5 217q35.5 27 58.5 76v203h-57q-96 0 -141.5 -40t-45.5 -124q0 -70 28 -106t79 -36q43 0 78.5 27zM271.5 1391.5q-82.5 95.5 -93.5 253.5l170 30q37 -162 154 -162q61 0 100 42t56 120l170 -30q-10 -158 -94.5 -253.5t-231.5 -95.5 q-148 0 -230.5 95.5z" />
<glyph unicode="&#x104;" d="M796 -103.5q-46 -52.5 -46 -107.5q0 -94 96 -94q39 0 110 14l-20 -194q-61 -16 -129 -17q-125 0 -204 63.5t-79 172.5t69 186.5t193 132.5l-53 256h-360l-64 -309h-332l383 1419h394l381 -1419h-170q-123 -51 -169 -103.5zM422 545h262l-131 635z" />
<glyph unicode="&#x105;" horiz-adv-x="1017" d="M736 -132q-46 -52 -46 -108q0 -94 96 -94q39 0 111 15l-20 -195q-61 -16 -129 -16q-125 0 -204 63.5t-79 171.5q0 111 69.5 188.5t198.5 133.5q-47 35 -74 96q-100 -158 -292 -158q-147 0 -234.5 93.5t-87.5 246.5q0 178 120 272.5t347 94.5h86v51q0 96 -35 134t-123 38 q-100 0 -256 -55l-71 202q90 39 192.5 59.5t190.5 20.5q211 0 311 -94t100 -287v-440q0 -55 14.5 -81.5t49.5 -41.5l-66 -207q-123 -51 -169 -103zM539.5 217q35.5 27 58.5 76v203h-57q-96 0 -141.5 -40t-45.5 -124q0 -70 28 -106t79 -36q43 0 78.5 27z" />
<glyph unicode="&#x106;" horiz-adv-x="1073" d="M868.5 1415q96.5 -39 182.5 -117l-156 -182q-55 47 -109.5 70.5t-115.5 23.5q-266 0 -267 -497q0 -494 269 -494q70 0 124 27.5t122 81.5l147 -181q-76 -80 -181.5 -131t-232.5 -51q-178 0 -310 84t-206 252t-74 412q0 238 76 404.5t208 251.5t304 85q123 0 219.5 -39z M809 1946l119 -232l-449 -176l-80 158z" />
<glyph unicode="&#x107;" horiz-adv-x="892" d="M737 1089.5q82 -32.5 154 -100.5l-131 -180q-47 37 -90 54.5t-92 17.5q-94 0 -141.5 -78t-47.5 -266q0 -180 48 -252t138 -72q47 0 86 15.5t93 52.5l137 -187q-141 -129 -334 -129q-233 0 -365.5 149.5t-132.5 420.5q0 178 60.5 311t172 204.5t261.5 71.5 q102 0 184 -32.5zM678 1700l123 -232l-445 -192l-86 156z" />
<glyph unicode="&#x108;" horiz-adv-x="1073" d="M868.5 1415q96.5 -39 182.5 -117l-156 -182q-55 47 -109.5 70.5t-115.5 23.5q-266 0 -267 -497q0 -494 269 -494q70 0 124 27.5t122 81.5l147 -181q-76 -80 -181.5 -131t-232.5 -51q-178 0 -310 84t-206 252t-74 412q0 238 76 404.5t208 251.5t304 85q123 0 219.5 -39z M415 1552l-110 119l264 268h188l263 -268l-109 -119l-248 170z" />
<glyph unicode="&#x109;" horiz-adv-x="892" d="M737 1089.5q82 -32.5 154 -100.5l-131 -180q-47 37 -90 54.5t-92 17.5q-94 0 -141.5 -78t-47.5 -266q0 -180 48 -252t138 -72q47 0 86 15.5t93 52.5l137 -187q-141 -129 -334 -129q-233 0 -365.5 149.5t-132.5 420.5q0 178 60.5 311t172 204.5t261.5 71.5 q102 0 184 -32.5zM301 1276l-110 121l262 282h190l263 -282l-111 -121l-246 188z" />
<glyph unicode="&#x10a;" horiz-adv-x="1073" d="M868.5 1415q96.5 -39 182.5 -117l-156 -182q-55 47 -109.5 70.5t-115.5 23.5q-266 0 -267 -497q0 -494 269 -494q70 0 124 27.5t122 81.5l147 -181q-76 -80 -181.5 -131t-232.5 -51q-178 0 -310 84t-206 252t-74 412q0 238 76 404.5t208 251.5t304 85q123 0 219.5 -39z M793.5 1861.5q52.5 -51.5 52.5 -126.5q0 -78 -52.5 -129.5t-132.5 -51.5t-131 51.5t-51 129.5q0 76 51 127t131 51t132.5 -51.5z" />
<glyph unicode="&#x10b;" horiz-adv-x="892" d="M737 1089.5q82 -32.5 154 -100.5l-131 -180q-47 37 -90 54.5t-92 17.5q-94 0 -141.5 -78t-47.5 -266q0 -180 48 -252t138 -72q47 0 86 15.5t93 52.5l137 -187q-141 -129 -334 -129q-233 0 -365.5 149.5t-132.5 420.5q0 178 60.5 311t172 204.5t261.5 71.5 q102 0 184 -32.5zM679.5 1603.5q52.5 -51.5 52.5 -126.5q0 -78 -52.5 -129.5t-132.5 -51.5t-131 51.5t-51 129.5q0 76 51 127t131 51t132.5 -51.5z" />
<glyph unicode="&#x10c;" horiz-adv-x="1073" d="M868.5 1415q96.5 -39 182.5 -117l-156 -182q-55 47 -109.5 70.5t-115.5 23.5q-266 0 -267 -497q0 -494 269 -494q70 0 124 27.5t122 81.5l147 -181q-76 -80 -181.5 -131t-232.5 -51q-178 0 -310 84t-206 252t-74 412q0 238 76 404.5t208 251.5t304 85q123 0 219.5 -39z M911 1923l109 -121l-263 -266h-190l-262 266l110 121l248 -170z" />
<glyph unicode="&#x10d;" horiz-adv-x="892" d="M737 1089.5q82 -32.5 154 -100.5l-131 -180q-47 37 -90 54.5t-92 17.5q-94 0 -141.5 -78t-47.5 -266q0 -180 48 -252t138 -72q47 0 86 15.5t93 52.5l137 -187q-141 -129 -334 -129q-233 0 -365.5 149.5t-132.5 420.5q0 178 60.5 311t172 204.5t261.5 71.5 q102 0 184 -32.5zM797 1659l109 -123l-263 -283h-190l-262 283l110 123l248 -189z" />
<glyph unicode="&#x10e;" horiz-adv-x="1218" d="M828.5 1364q146.5 -55 236.5 -211t90 -436q0 -397 -176 -557t-467 -160h-399v1419h372q197 0 343.5 -55zM440 1182v-944h92q94 0 156 40.5t95.5 146t33.5 292.5q0 186 -34.5 288.5t-97 139.5t-155.5 37h-90zM797 1923l109 -121l-263 -266h-190l-262 266l110 121l248 -170 z" />
<glyph unicode="&#x10f;" horiz-adv-x="1300" d="M1008 1520v-1520h-279l-14 121q-104 -156 -277 -156q-182 0 -278.5 152.5t-96.5 427.5q0 172 50.5 303t141.5 202.5t210 71.5q137 0 227 -100v530zM622.5 224.5q36.5 27.5 69.5 84.5v494q-33 45 -64.5 66.5t-74.5 21.5q-164 0 -164 -346q0 -195 39 -271.5t111 -76.5 q47 0 83.5 27.5zM1251 1081l103 438l-232 33l-45 -444z" />
<glyph unicode="&#x110;" horiz-adv-x="1251" d="M861.5 1364q146.5 -55 236.5 -211t90 -436q0 -397 -176 -557t-467 -160h-400v625h-116v196h116v598h373q197 0 343.5 -55zM720.5 278.5q61.5 40.5 95.5 146t34 292.5q0 186 -35 288.5t-97.5 139.5t-154.5 37h-90v-361h217v-196h-217v-387h92q94 0 155.5 40.5z" />
<glyph unicode="&#x111;" horiz-adv-x="1128" d="M1116 1409v-186h-108v-1223h-279l-14 121q-104 -156 -277 -156q-182 0 -278.5 152.5t-96.5 427.5q0 172 50.5 303t141.5 202.5t210 71.5q137 0 227 -100v201h-243v186h243v143l316 -32v-111h108zM622.5 224.5q36.5 27.5 69.5 84.5v494q-33 45 -64.5 66.5t-74.5 21.5 q-164 0 -164 -346q0 -195 39 -271.5t111 -76.5q47 0 83.5 27.5z" />
<glyph unicode="&#x112;" horiz-adv-x="970" d="M915 1419l-34 -233h-441v-350h385v-230h-385v-368h471v-238h-798v1419h802zM803 1604h-574v215h574v-215z" />
<glyph unicode="&#x113;" horiz-adv-x="1038" d="M983 451h-606q12 -143 63.5 -198.5t145.5 -55.5q61 0 116.5 22.5t120.5 69.5l129 -174q-168 -150 -391 -150q-246 0 -374 152.5t-128 421.5q0 262 123 422.5t346 160.5q215 0 338 -144t123 -413q0 -65 -6 -114zM680 655q0 129 -34 193.5t-114 64.5q-72 0 -110.5 -60 t-46.5 -212h305v14zM820 1346h-574v215h574v-215z" />
<glyph unicode="&#x114;" horiz-adv-x="970" d="M915 1419l-34 -233h-441v-350h385v-230h-385v-368h471v-238h-798v1419h802zM286 1629q-83 91 -96 237l170 30q16 -66 54 -102.5t100 -36.5q61 0 100 38t56 101l170 -30q-12 -143 -96.5 -235.5t-229.5 -92.5t-228 91z" />
<glyph unicode="&#x115;" horiz-adv-x="1038" d="M983 451h-606q12 -143 63.5 -198.5t145.5 -55.5q61 0 116.5 22.5t120.5 69.5l129 -174q-168 -150 -391 -150q-246 0 -374 152.5t-128 421.5q0 262 123 422.5t346 160.5q215 0 338 -144t123 -413q0 -65 -6 -114zM680 655q0 129 -34 193.5t-114 64.5q-72 0 -110.5 -60 t-46.5 -212h305v14zM300.5 1391.5q-82.5 95.5 -93.5 253.5l170 30q37 -162 154 -162q61 0 100 42t56 120l170 -30q-10 -158 -94.5 -253.5t-231.5 -95.5q-148 0 -230.5 95.5z" />
<glyph unicode="&#x116;" horiz-adv-x="970" d="M915 1419l-34 -233h-441v-350h385v-230h-385v-368h471v-238h-798v1419h802zM646.5 1861.5q52.5 -51.5 52.5 -126.5q0 -78 -52.5 -129.5t-132.5 -51.5t-131 51.5t-51 129.5q0 76 51 127t131 51t132.5 -51.5z" />
<glyph unicode="&#x117;" horiz-adv-x="1038" d="M983 451h-606q12 -143 63.5 -198.5t145.5 -55.5q61 0 116.5 22.5t120.5 69.5l129 -174q-168 -150 -391 -150q-246 0 -374 152.5t-128 421.5q0 262 123 422.5t346 160.5q215 0 338 -144t123 -413q0 -65 -6 -114zM680 655q0 129 -34 193.5t-114 64.5q-72 0 -110.5 -60 t-46.5 -212h305v14zM662.5 1603.5q52.5 -51.5 52.5 -126.5q0 -78 -52.5 -129.5t-132.5 -51.5t-131 51.5t-51 129.5q0 76 51 127t131 51t132.5 -51.5z" />
<glyph unicode="&#x118;" horiz-adv-x="970" d="M440 238h471v-238h-71q-123 -51 -169 -103.5t-46 -107.5q0 -94 96 -94q39 0 110 14l-20 -194q-61 -16 -129 -17q-125 0 -204 63.5t-79 172.5q0 164 162 266h-448v1419h802l-34 -233h-441v-350h385v-230h-385v-368z" />
<glyph unicode="&#x119;" horiz-adv-x="1038" d="M983 451h-606q12 -143 63.5 -198.5t145.5 -55.5q61 0 116.5 22.5t120.5 69.5l129 -174q-86 -76 -192 -117q-172 -82 -172 -191q0 -45 24.5 -69.5t71.5 -24.5t113 17l-21 -197q-61 -16 -131 -16q-121 0 -199.5 65.5t-78.5 171.5q0 133 131 213q-215 20 -327 171t-112 401 q0 262 123 422.5t346 160.5q215 0 338 -144t123 -413q0 -65 -6 -114zM680 655q0 129 -34 193.5t-114 64.5q-72 0 -110.5 -60t-46.5 -212h305v14z" />
<glyph unicode="&#x11a;" horiz-adv-x="970" d="M915 1419l-34 -233h-441v-350h385v-230h-385v-368h471v-238h-798v1419h802zM764 1923l109 -121l-263 -266h-190l-262 266l110 121l248 -170z" />
<glyph unicode="&#x11b;" horiz-adv-x="1038" d="M983 451h-606q12 -143 63.5 -198.5t145.5 -55.5q61 0 116.5 22.5t120.5 69.5l129 -174q-168 -150 -391 -150q-246 0 -374 152.5t-128 421.5q0 262 123 422.5t346 160.5q215 0 338 -144t123 -413q0 -65 -6 -114zM680 655q0 129 -34 193.5t-114 64.5q-72 0 -110.5 -60 t-46.5 -212h305v14zM780 1659l109 -123l-263 -283h-190l-262 283l110 123l248 -189z" />
<glyph unicode="&#x11c;" horiz-adv-x="1208" d="M1120 1280l-159 -168q-70 55 -128.5 80t-132.5 25q-143 0 -221 -118t-78 -388q0 -195 27 -304.5t80 -154.5t141 -45q92 0 164 45v332h-158l-30 231h499v-702q-100 -70 -223 -109t-246 -39q-301 0 -447.5 185.5t-146.5 560.5q0 242 82 409.5t223.5 250.5t319.5 83 q250 0 434 -174zM407 1552l-110 119l264 268h188l263 -268l-109 -119l-248 170z" />
<glyph unicode="&#x11d;" horiz-adv-x="1017" d="M1024 1024q-94 -41 -281 -41q98 -45 144.5 -111.5t46.5 -171.5q0 -104 -51.5 -187t-146.5 -129t-224 -46q-61 0 -111 12q-35 -23 -34 -65q0 -33 23.5 -51.5t86.5 -18.5h133q180 0 287 -87t107 -224q0 -166 -135.5 -261.5t-387.5 -95.5q-270 0 -374.5 88.5t-104.5 260.5 h283q0 -76 41 -109t159 -33q113 0 158 34t45 93q0 115 -145 115h-117q-164 0 -242 58.5t-78 154.5q0 59 33 112.5t88 92.5q-94 55 -136 128.5t-42 182.5q0 184 122 290.5t327 104.5q143 -2 239.5 32t212.5 101zM360 729q0 -94 36 -141t102 -47q68 0 102.5 46t34.5 146 q0 94 -34 137t-103 43q-138 0 -138 -184zM264 1276l-110 121l262 282h190l263 -282l-111 -121l-246 188z" />
<glyph unicode="&#x11e;" horiz-adv-x="1208" d="M1120 1280l-159 -168q-70 55 -128.5 80t-132.5 25q-143 0 -221 -118t-78 -388q0 -195 27 -304.5t80 -154.5t141 -45q92 0 164 45v332h-158l-30 231h499v-702q-100 -70 -223 -109t-246 -39q-301 0 -447.5 185.5t-146.5 560.5q0 242 82 409.5t223.5 250.5t319.5 83 q250 0 434 -174zM425 1629q-83 91 -96 237l170 30q16 -66 54 -102.5t100 -36.5q61 0 100 38t56 101l170 -30q-12 -143 -96.5 -235.5t-229.5 -92.5t-228 91z" />
<glyph unicode="&#x11f;" horiz-adv-x="1017" d="M1024 1024q-94 -41 -281 -41q98 -45 144.5 -111.5t46.5 -171.5q0 -104 -51.5 -187t-146.5 -129t-224 -46q-61 0 -111 12q-35 -23 -34 -65q0 -33 23.5 -51.5t86.5 -18.5h133q180 0 287 -87t107 -224q0 -166 -135.5 -261.5t-387.5 -95.5q-270 0 -374.5 88.5t-104.5 260.5 h283q0 -76 41 -109t159 -33q113 0 158 34t45 93q0 115 -145 115h-117q-164 0 -242 58.5t-78 154.5q0 59 33 112.5t88 92.5q-94 55 -136 128.5t-42 182.5q0 184 122 290.5t327 104.5q143 -2 239.5 32t212.5 101zM360 729q0 -94 36 -141t102 -47q68 0 102.5 46t34.5 146 q0 94 -34 137t-103 43q-138 0 -138 -184zM279.5 1391.5q-82.5 95.5 -93.5 253.5l170 30q37 -162 154 -162q61 0 100 42t56 120l170 -30q-10 -158 -94.5 -253.5t-231.5 -95.5q-148 0 -230.5 95.5z" />
<glyph unicode="&#x120;" horiz-adv-x="1208" d="M1120 1280l-159 -168q-70 55 -128.5 80t-132.5 25q-143 0 -221 -118t-78 -388q0 -195 27 -304.5t80 -154.5t141 -45q92 0 164 45v332h-158l-30 231h499v-702q-100 -70 -223 -109t-246 -39q-301 0 -447.5 185.5t-146.5 560.5q0 242 82 409.5t223.5 250.5t319.5 83 q250 0 434 -174zM785.5 1861.5q52.5 -51.5 52.5 -126.5q0 -78 -52.5 -129.5t-132.5 -51.5t-131 51.5t-51 129.5q0 76 51 127t131 51t132.5 -51.5z" />
<glyph unicode="&#x121;" horiz-adv-x="1017" d="M1024 1024q-94 -41 -281 -41q98 -45 144.5 -111.5t46.5 -171.5q0 -104 -51.5 -187t-146.5 -129t-224 -46q-61 0 -111 12q-35 -23 -34 -65q0 -33 23.5 -51.5t86.5 -18.5h133q180 0 287 -87t107 -224q0 -166 -135.5 -261.5t-387.5 -95.5q-270 0 -374.5 88.5t-104.5 260.5 h283q0 -76 41 -109t159 -33q113 0 158 34t45 93q0 115 -145 115h-117q-164 0 -242 58.5t-78 154.5q0 59 33 112.5t88 92.5q-94 55 -136 128.5t-42 182.5q0 184 122 290.5t327 104.5q143 -2 239.5 32t212.5 101zM360 729q0 -94 36 -141t102 -47q68 0 102.5 46t34.5 146 q0 94 -34 137t-103 43q-138 0 -138 -184zM642.5 1603.5q52.5 -51.5 52.5 -126.5q0 -78 -52.5 -129.5t-132.5 -51.5t-131 51.5t-51 129.5q0 76 51 127t131 51t132.5 -51.5z" />
<glyph unicode="&#x122;" horiz-adv-x="1208" d="M1120 1280l-159 -168q-70 55 -128.5 80t-132.5 25q-143 0 -221 -118t-78 -388q0 -195 27 -304.5t80 -154.5t141 -45q92 0 164 45v332h-158l-30 231h499v-702q-100 -70 -223 -109t-246 -39q-301 0 -447.5 185.5t-146.5 560.5q0 242 82 409.5t223.5 250.5t319.5 83 q250 0 434 -174zM762 -183q43 -44 43 -112q0 -39 -10.5 -75t-39.5 -97l-86 -195h-155l53 236q-70 49 -70 131q0 63 44 109.5t110 46.5q68 0 111 -44z" />
<glyph unicode="&#x123;" horiz-adv-x="1017" d="M1024 1024q-94 -41 -281 -41q98 -45 144.5 -111.5t46.5 -171.5q0 -104 -51.5 -187t-146.5 -129t-224 -46q-61 0 -111 12q-35 -23 -34 -65q0 -33 23.5 -51.5t86.5 -18.5h133q180 0 287 -87t107 -224q0 -166 -135.5 -261.5t-387.5 -95.5q-270 0 -374.5 88.5t-104.5 260.5 h283q0 -76 41 -109t159 -33q113 0 158 34t45 93q0 115 -145 115h-117q-164 0 -242 58.5t-78 154.5q0 59 33 112.5t88 92.5q-94 55 -136 128.5t-42 182.5q0 184 122 290.5t327 104.5q143 -2 239.5 32t212.5 101zM360 729q0 -94 36 -141t102 -47q68 0 102.5 46t34.5 146 q0 94 -34 137t-103 43q-138 0 -138 -184zM395 1226q-43 44 -43 111q0 39 10.5 75t38.5 97l86 195h156l-53 -236q70 -49 70 -131q0 -63 -44.5 -109t-109.5 -46q-68 0 -111 44z" />
<glyph unicode="&#x124;" horiz-adv-x="1232" d="M795 0v610h-355v-610h-327v1419h327v-553h355v553h327v-1419h-327zM370 1552l-110 119l264 268h188l263 -268l-109 -119l-248 170z" />
<glyph unicode="&#x125;" horiz-adv-x="1073" d="M900 1037q73 -85 73 -232v-805h-316v762q0 68 -20.5 95.5t-56.5 27.5q-41 0 -79 -34t-79 -99v-752h-316v1520l316 32v-583q57 78 124.5 115.5t153.5 37.5q127 0 200 -85zM286 1652l-110 119l264 268h188l263 -268l-109 -119l-248 170z" />
<glyph unicode="&#x126;" horiz-adv-x="1255" d="M1233 1210v-184h-98v-1026h-328v610h-354v-610h-328v1026h-102v184h102v209h328v-209h354v209h328v-209h98zM807 866v160h-354v-160h354z" />
<glyph unicode="&#x127;" horiz-adv-x="1085" d="M912.5 1037q72.5 -85 72.5 -232v-805h-315v762q0 68 -20.5 95.5t-57.5 27.5q-41 0 -79 -34t-79 -99v-752h-315v1225h-107v184h107v111l315 32v-143h240v-184h-240v-256q57 78 125 115.5t154 37.5q127 0 199.5 -85z" />
<glyph unicode="&#x128;" horiz-adv-x="550" d="M440 1419v-1419h-327v1419h327zM316.5 1579q-27.5 12 -70.5 39q-27 18 -42.5 26.5t-33.5 8.5q-31 0 -51.5 -19.5t-46.5 -66.5l-152 71q37 104 100.5 169t143.5 65q41 0 71.5 -13.5t69.5 -39.5q4 -2 20.5 -12.5t29.5 -15.5t26 -5q29 0 50 19.5t46 64.5l152 -72 q-37 -106 -100.5 -168.5t-143.5 -62.5q-41 0 -68.5 12z" />
<glyph unicode="&#x129;" horiz-adv-x="530" d="M422 1087v-1087h-316v1087h316zM306.5 1321q-27.5 12 -70.5 39q-27 18 -42.5 26.5t-33.5 8.5q-31 0 -51.5 -19.5t-46.5 -66.5l-152 71q37 104 100.5 169t143.5 65q41 0 71.5 -13.5t69.5 -39.5q4 -2 20.5 -12.5t29.5 -15.5t26 -5q29 0 50 19.5t46 64.5l152 -72 q-37 -106 -100.5 -168.5t-143.5 -62.5q-41 0 -68.5 12z" />
<glyph unicode="&#x12a;" horiz-adv-x="550" d="M440 1419v-1419h-327v1419h327zM562 1604h-574v215h574v-215z" />
<glyph unicode="&#x12b;" horiz-adv-x="530" d="M422 1087v-1087h-316v1087h316zM551 1346h-574v215h574v-215z" />
<glyph unicode="&#x12c;" horiz-adv-x="550" d="M440 1419v-1419h-327v1419h327zM44 1629q-83 91 -96 237l170 30q16 -66 54 -102.5t100 -36.5q61 0 100 38t56 101l170 -30q-12 -143 -96.5 -235.5t-229.5 -92.5t-228 91z" />
<glyph unicode="&#x12d;" horiz-adv-x="530" d="M422 1087v-1087h-316v1087h316zM31.5 1391.5q-82.5 95.5 -93.5 253.5l170 30q37 -162 154 -162q61 0 100 42t56 120l170 -30q-10 -158 -94.5 -253.5t-231.5 -95.5q-148 0 -230.5 95.5z" />
<glyph unicode="&#x12e;" horiz-adv-x="550" d="M440 1419v-1419h-69q-123 -51 -169 -103.5t-46 -107.5q0 -94 96 -94q39 0 110 14l-20 -194q-61 -16 -129 -17q-125 0 -204 63.5t-79 172.5q0 172 183 278v1407h327z" />
<glyph unicode="&#x12f;" horiz-adv-x="530" d="M131 1347.5q-51 51.5 -51 129.5q0 76 51 127t131 51t132 -51.5t52 -126.5q0 -78 -52 -129.5t-132 -51.5t-131 51.5zM106 1087h316v-1087h-53q-123 -51 -169 -103.5t-46 -107.5q0 -94 96 -94q39 0 110 14l-20 -194q-61 -16 -129 -17q-125 0 -204 63.5t-79 172.5 q0 170 178 276v1077z" />
<glyph unicode="&#x130;" horiz-adv-x="550" d="M440 1419v-1419h-327v1419h327zM404.5 1861.5q52.5 -51.5 52.5 -126.5q0 -78 -52.5 -129.5t-132.5 -51.5t-131 51.5t-51 129.5q0 76 51 127t131 51t132.5 -51.5z" />
<glyph unicode="&#x131;" horiz-adv-x="530" d="M422 1087v-1087h-316v1087h316z" />
<glyph unicode="&#x132;" horiz-adv-x="1144" d="M440 1419v-1419h-327v1419h327zM1038 215q0 -242 -114.5 -364.5t-313.5 -192.5l-86 231q80 35 120 78t53.5 102.5t13.5 157.5v1192h327v-1204z" />
<glyph unicode="&#x133;" horiz-adv-x="1060" d="M422 1087v-1087h-316v1087h316zM394.5 1603.5q52.5 -51.5 52.5 -126.5q0 -78 -52.5 -129.5t-132.5 -51.5t-131 51.5t-51 129.5q0 76 51 127t131 51t132.5 -51.5zM952 98q0 -158 -51.5 -263t-140.5 -169.5t-220 -118.5l-104 230q72 39 112.5 73.5t64 90t23.5 145.5v1001 h316v-989zM924.5 1603.5q52.5 -51.5 52.5 -126.5q0 -78 -52.5 -129.5t-132.5 -51.5t-131 51.5t-51 129.5q0 76 51 127t131 51t132.5 -51.5z" />
<glyph unicode="&#x134;" horiz-adv-x="593" d="M487 215q0 -242 -114.5 -364.5t-313.5 -192.5l-86 231q80 35 120 78t53.5 102.5t13.5 157.5v1192h327v-1204zM75 1552l-110 119l264 268h188l263 -268l-109 -119l-248 170z" />
<glyph unicode="&#x135;" horiz-adv-x="530" d="M422 98q0 -158 -51.5 -263t-140.5 -169.5t-220 -118.5l-104 230q72 39 112.5 73.5t64 90t23.5 145.5v1001h316v-989zM16 1276l-110 121l262 282h190l263 -282l-111 -121l-246 188z" />
<glyph unicode="&#x136;" horiz-adv-x="1189" d="M440 1419v-1419h-327v1419h327zM1182 1419l-398 -637l430 -782h-366l-397 758l397 661h334zM717 -183q43 -44 43 -112q0 -39 -10.5 -75t-39.5 -97l-86 -195h-155l53 236q-70 49 -70 131q0 63 44 109.5t110 46.5q68 0 111 -44z" />
<glyph unicode="&#x137;" horiz-adv-x="1042" d="M422 1552v-1552h-316v1520zM1036 1087l-291 -477l314 -610h-344l-283 594l295 493h309zM633 -183q43 -44 43 -112q0 -39 -10.5 -75t-39.5 -97l-86 -195h-155l53 236q-70 49 -70 131q0 63 44 109.5t110 46.5q68 0 111 -44z" />
<glyph unicode="&#x138;" horiz-adv-x="1040" d="M422 1087v-1087h-316v1087h316zM1036 1087l-291 -491l312 -596h-342l-285 582l295 505h311z" />
<glyph unicode="&#x139;" horiz-adv-x="952" d="M440 1419v-1159h494l-35 -260h-786v1419h327zM422 1946l119 -232l-449 -176l-80 158z" />
<glyph unicode="&#x13a;" horiz-adv-x="559" d="M172 43q-76 78 -76 217v1260l316 32v-1278q0 -59 49 -59q20 0 45 8l59 -219q-82 -39 -182 -39q-135 0 -211 78zM400 2046l119 -232l-449 -176l-80 158z" />
<glyph unicode="&#x13b;" horiz-adv-x="952" d="M440 1419v-1159h494l-35 -260h-786v1419h327zM617 -183q43 -44 43 -112q0 -39 -10.5 -75t-39.5 -97l-86 -195h-155l53 236q-70 49 -70 131q0 63 44 109.5t110 46.5q68 0 111 -44z" />
<glyph unicode="&#x13c;" horiz-adv-x="559" d="M172 43q-76 78 -76 217v1260l316 32v-1278q0 -59 49 -59q20 0 45 8l59 -219q-82 -39 -182 -39q-135 0 -211 78zM455 -183q43 -44 43 -112q0 -39 -10.5 -75t-39.5 -97l-86 -195h-155l53 236q-70 49 -70 131q0 63 44 109.5t110 46.5q68 0 111 -44z" />
<glyph unicode="&#x13d;" horiz-adv-x="952" d="M440 1419v-1159h494l-35 -260h-786v1419h327zM686 981l103 438l-232 33l-45 -444z" />
<glyph unicode="&#x13e;" horiz-adv-x="706" d="M172 43q-76 78 -76 217v1260l316 32v-1278q0 -59 49 -59q20 0 45 8l59 -219q-82 -39 -182 -39q-135 0 -211 78zM655 1081l103 438l-232 33l-45 -444z" />
<glyph unicode="&#x13f;" horiz-adv-x="952" d="M440 1419v-1159h494l-35 -260h-786v1419h327zM873.5 944.5q52.5 -51.5 52.5 -126.5q0 -78 -52.5 -129.5t-132.5 -51.5t-131 51.5t-51 129.5q0 76 51 127t131 51t132.5 -51.5z" />
<glyph unicode="&#x140;" horiz-adv-x="851" d="M172 43q-76 78 -76 217v1260l316 32v-1278q0 -59 49 -59q20 0 45 8l59 -219q-82 -39 -182 -39q-135 0 -211 78zM810.5 898.5q52.5 -51.5 52.5 -126.5q0 -78 -52.5 -129.5t-132.5 -51.5t-131 51.5t-51 129.5q0 76 51 127t131 51t132.5 -51.5z" />
<glyph unicode="&#x141;" horiz-adv-x="1034" d="M522 260h494l-35 -260h-786v463l-80 -53l-105 174l176 121l9 6v708h327v-491l217 143l105 -172l-322 -215v-424z" />
<glyph unicode="&#x142;" horiz-adv-x="679" d="M569 223l60 -219q-82 -39 -183 -39q-135 0 -210.5 78t-75.5 217v291l-72 -47l-102 170l174 117v729l315 32v-559l115 74l102 -168l-217 -141v-484q0 -59 49 -59q20 0 45 8z" />
<glyph unicode="&#x143;" horiz-adv-x="1226" d="M1114 0h-409l-349 1114q4 -25 4 -41q18 -147 28.5 -267t10.5 -278v-528h-286v1419h405l354 -1116q-45 266 -45 531v585h287v-1419zM764 1946l119 -232l-449 -176l-80 158z" />
<glyph unicode="&#x144;" horiz-adv-x="1073" d="M900 1037q73 -85 73 -232v-805h-316v762q0 68 -19.5 95.5t-57.5 27.5q-41 0 -79 -34t-79 -99v-752h-316v1087h277l23 -129q59 82 130.5 123t163.5 41q127 0 200 -85zM674 1700l123 -232l-445 -192l-86 156z" />
<glyph unicode="&#x145;" horiz-adv-x="1226" d="M1114 0h-409l-349 1114q4 -25 4 -41q18 -147 28.5 -267t10.5 -278v-528h-286v1419h405l354 -1116q-45 266 -45 531v585h287v-1419zM725 -183q43 -44 43 -112q0 -39 -10.5 -75t-39.5 -97l-86 -195h-155l53 236q-70 49 -70 131q0 63 44 109.5t110 46.5q68 0 111 -44z" />
<glyph unicode="&#x146;" horiz-adv-x="1073" d="M900 1037q73 -85 73 -232v-805h-316v762q0 68 -19.5 95.5t-57.5 27.5q-41 0 -79 -34t-79 -99v-752h-316v1087h277l23 -129q59 82 130.5 123t163.5 41q127 0 200 -85zM648 -183q43 -44 43 -112q0 -39 -10.5 -75t-39.5 -97l-86 -195h-155l53 236q-70 49 -70 131 q0 63 44 109.5t110 46.5q68 0 111 -44z" />
<glyph unicode="&#x147;" horiz-adv-x="1226" d="M1114 0h-409l-349 1114q4 -25 4 -41q18 -147 28.5 -267t10.5 -278v-528h-286v1419h405l354 -1116q-45 266 -45 531v585h287v-1419zM866 1923l109 -121l-263 -266h-190l-262 266l110 121l248 -170z" />
<glyph unicode="&#x148;" horiz-adv-x="1073" d="M900 1037q73 -85 73 -232v-805h-316v762q0 68 -19.5 95.5t-57.5 27.5q-41 0 -79 -34t-79 -99v-752h-316v1087h277l23 -129q59 82 130.5 123t163.5 41q127 0 200 -85zM793 1659l109 -123l-263 -283h-190l-262 283l110 123l248 -189z" />
<glyph unicode="&#x149;" horiz-adv-x="1316" d="M297 1516.5q37 -37.5 37 -97.5q0 -33 -9.5 -62.5t-35.5 -90.5l-74 -170h-135l43 207q-59 45 -60 116q0 57 38 96t98 39q61 0 98 -37.5zM1146 1037q73 -85 73 -232v-805h-316v762q0 68 -19.5 95.5t-58.5 27.5q-41 0 -78.5 -34t-78.5 -99v-752h-316v1087h277l22 -129 q59 82 131 123t164 41q127 0 200 -85z" />
<glyph unicode="&#x14a;" horiz-adv-x="1226" d="M1114 1419v-1503q0 -182 -104.5 -275.5t-280.5 -93.5q-160 0 -272 86l108 189q37 -20 63.5 -28.5t61.5 -8.5q96 0 96 113v102h-81l-349 1114q4 -25 4 -41q18 -147 28.5 -267t10.5 -278v-528h-286v1419h405l354 -1116q-45 266 -45 531v585h287z" />
<glyph unicode="&#x14b;" horiz-adv-x="1073" d="M900 1037q73 -85 73 -232v-895q0 -176 -102.5 -269.5t-272.5 -93.5q-166 0 -276 86l108 181q37 -20 63.5 -28.5t63.5 -8.5q47 0 73.5 27.5t26.5 84.5v873q0 68 -19.5 95.5t-57.5 27.5q-41 0 -79 -34t-79 -99v-752h-316v1087h277l23 -129q59 82 130.5 123t163.5 41 q127 0 200 -85z" />
<glyph unicode="&#x14c;" horiz-adv-x="1290" d="M1077.5 1264.5q151.5 -189.5 151.5 -553.5q0 -360 -152.5 -553t-431.5 -193t-431.5 190.5t-152.5 555.5q0 358 153 550.5t431 192.5q281 0 432.5 -189.5zM461.5 1097.5q-58.5 -116.5 -58.5 -386.5q0 -274 59.5 -390t182.5 -116q125 0 183.5 115.5t58.5 390.5 q0 270 -58.5 386.5t-183.5 116.5t-183.5 -116.5zM932 1604h-574v215h574v-215z" />
<glyph unicode="&#x14d;" horiz-adv-x="1093" d="M906 973.5q130 -148.5 130 -430.5q0 -270 -131 -424t-358 -154q-229 0 -358.5 149.5t-129.5 430.5q0 272 130 424.5t358 152.5q229 0 359 -148.5zM424 809q-39 -80 -39 -264q0 -188 39 -268t123 -80t124 80.5t40 265.5q0 188 -39 267t-125 79q-84 0 -123 -80zM834 1346 h-574v215h574v-215z" />
<glyph unicode="&#x14e;" horiz-adv-x="1290" d="M1077.5 1264.5q151.5 -189.5 151.5 -553.5q0 -360 -152.5 -553t-431.5 -193t-431.5 190.5t-152.5 555.5q0 358 153 550.5t431 192.5q281 0 432.5 -189.5zM461.5 1097.5q-58.5 -116.5 -58.5 -386.5q0 -274 59.5 -390t182.5 -116q125 0 183.5 115.5t58.5 390.5 q0 270 -58.5 386.5t-183.5 116.5t-183.5 -116.5zM415 1629q-83 91 -96 237l170 30q16 -66 54 -102.5t100 -36.5q61 0 100 38t56 101l170 -30q-12 -143 -96.5 -235.5t-229.5 -92.5t-228 91z" />
<glyph unicode="&#x14f;" horiz-adv-x="1093" d="M906 973.5q130 -148.5 130 -430.5q0 -270 -131 -424t-358 -154q-229 0 -358.5 149.5t-129.5 430.5q0 272 130 424.5t358 152.5q229 0 359 -148.5zM424 809q-39 -80 -39 -264q0 -188 39 -268t123 -80t124 80.5t40 265.5q0 188 -39 267t-125 79q-84 0 -123 -80z M314.5 1391.5q-82.5 95.5 -93.5 253.5l170 30q37 -162 154 -162q61 0 100 42t56 120l170 -30q-10 -158 -94.5 -253.5t-231.5 -95.5q-148 0 -230.5 95.5z" />
<glyph unicode="&#x150;" horiz-adv-x="1290" d="M1077.5 1264.5q151.5 -189.5 151.5 -553.5q0 -360 -152.5 -553t-431.5 -193t-431.5 190.5t-152.5 555.5q0 358 153 550.5t431 192.5q281 0 432.5 -189.5zM461.5 1097.5q-58.5 -116.5 -58.5 -386.5q0 -274 59.5 -390t182.5 -116q125 0 183.5 115.5t58.5 390.5 q0 270 -58.5 386.5t-183.5 116.5t-183.5 -116.5zM563 2013l207 -98l-215 -367l-158 66zM895 2013l203 -104l-230 -369l-153 74z" />
<glyph unicode="&#x151;" horiz-adv-x="1093" d="M906 973.5q130 -148.5 130 -430.5q0 -270 -131 -424t-358 -154q-229 0 -358.5 149.5t-129.5 430.5q0 272 130 424.5t358 152.5q229 0 359 -148.5zM424 809q-39 -80 -39 -264q0 -188 39 -268t123 -80t124 80.5t40 265.5q0 188 -39 267t-125 79q-84 0 -123 -80zM453 1755 l207 -98l-215 -367l-158 66zM785 1755l203 -104l-230 -369l-153 74z" />
<glyph unicode="&#x152;" horiz-adv-x="1679" d="M1059 238h561v-238h-823q-82 -35 -183 -35q-170 0 -293.5 87t-191.5 254t-68 405q0 233 68 400t192.5 255t292.5 88q102 0 189 -35h821l-35 -233h-530q98 -137 125 -348h350v-232h-348q-23 -221 -127 -368zM794.5 321.5q55.5 116.5 55.5 389.5q0 270 -55.5 386.5 t-167.5 116.5q-113 0 -168.5 -116.5t-55.5 -386.5t56.5 -388t167.5 -118q112 0 167.5 116.5z" />
<glyph unicode="&#x153;" horiz-adv-x="1687" d="M1630 451h-602q12 -141 64.5 -197.5t146.5 -56.5q61 0 116.5 22.5t121.5 69.5l129 -172q-170 -152 -392 -152q-217 0 -346 162q-127 -162 -327 -162q-225 0 -353.5 150.5t-128.5 429.5q0 176 58.5 306t168 200.5t257.5 70.5q199 0 327 -157q121 158 318 157 q207 0 328.5 -145.5t121.5 -411.5q0 -48 -8 -114zM1329 655q0 129 -32.5 192.5t-110.5 63.5q-74 0 -113 -62.5t-47 -207.5h303v14zM668 278.5q39 81.5 39 266.5q0 182 -39 263t-121 81q-84 0 -123 -80t-39 -264q0 -188 39 -268t121 -80q84 0 123 81.5z" />
<glyph unicode="&#x154;" horiz-adv-x="1150" d="M547 545h-107v-545h-327v1419h415q279 0 416 -107.5t137 -322.5q0 -272 -239 -383l321 -606h-358zM440 772h101q106 0 155 52.5t49 164.5q0 102 -53 150.5t-168 48.5h-84v-416zM709 1946l119 -232l-449 -176l-80 158z" />
<glyph unicode="&#x155;" horiz-adv-x="749" d="M758 1102l-51 -303q-43 12 -86 12q-84 0 -129.5 -64.5t-69.5 -191.5v-555h-316v1087h277l25 -190q37 106 102 163.5t154 57.5q53 0 94 -16zM564 1700l123 -232l-445 -192l-86 156z" />
<glyph unicode="&#x156;" horiz-adv-x="1150" d="M547 545h-107v-545h-327v1419h415q279 0 416 -107.5t137 -322.5q0 -272 -239 -383l321 -606h-358zM440 772h101q106 0 155 52.5t49 164.5q0 102 -53 150.5t-168 48.5h-84v-416zM691 -183q43 -44 43 -112q0 -39 -10.5 -75t-39.5 -97l-86 -195h-155l53 236q-70 49 -70 131 q0 63 44 109.5t110 46.5q68 0 111 -44z" />
<glyph unicode="&#x157;" horiz-adv-x="749" d="M758 1102l-51 -303q-43 12 -86 12q-84 0 -129.5 -64.5t-69.5 -191.5v-555h-316v1087h277l25 -190q37 106 102 163.5t154 57.5q53 0 94 -16zM375 -183q43 -44 43 -112q0 -39 -10.5 -75t-39.5 -97l-86 -195h-155l53 236q-70 49 -70 131q0 63 44 109.5t110 46.5 q68 0 111 -44z" />
<glyph unicode="&#x158;" horiz-adv-x="1150" d="M547 545h-107v-545h-327v1419h415q279 0 416 -107.5t137 -322.5q0 -272 -239 -383l321 -606h-358zM440 772h101q106 0 155 52.5t49 164.5q0 102 -53 150.5t-168 48.5h-84v-416zM811 1923l109 -121l-263 -266h-190l-262 266l110 121l248 -170z" />
<glyph unicode="&#x159;" horiz-adv-x="749" d="M758 1102l-51 -303q-43 12 -86 12q-84 0 -129.5 -64.5t-69.5 -191.5v-555h-316v1087h277l25 -190q37 106 102 163.5t154 57.5q53 0 94 -16zM682 1659l109 -123l-263 -283h-190l-262 283l110 123l248 -189z" />
<glyph unicode="&#x15a;" horiz-adv-x="1062" d="M789.5 1408q109.5 -46 199.5 -136l-149 -172q-133 115 -273 114q-78 0 -123 -38.5t-45 -106.5q0 -45 20.5 -75.5t72 -59.5t151.5 -66q131 -49 212 -105t124 -140t43 -209q0 -131 -62.5 -232.5t-180 -159t-275.5 -57.5q-297 0 -494 201l160 178q76 -66 152.5 -100.5 t162.5 -34.5q94 0 145.5 49t51.5 131q0 78 -47 125t-178 94q-213 80 -303.5 180.5t-90.5 255.5q0 121 61.5 214.5t169 144.5t243.5 51q143 0 252.5 -46zM694 1946l119 -232l-449 -176l-80 158z" />
<glyph unicode="&#x15b;" horiz-adv-x="897" d="M663.5 1087.5q94.5 -34.5 165.5 -98.5l-114 -172q-123 80 -232 80q-57 0 -87.5 -23.5t-30.5 -64.5q0 -31 15 -52.5t58 -43t129 -51.5q152 -51 224.5 -129t72.5 -211q0 -164 -125 -260.5t-319 -96.5q-125 0 -232.5 43t-183.5 117l150 168q127 -102 254 -103q63 0 99 28 t36 77q0 39 -15.5 63.5t-57.5 47t-130 53.5q-150 51 -218.5 130t-68.5 199q0 94 49.5 170t141.5 120t217 44q108 0 202.5 -34.5zM588 1700l123 -232l-445 -192l-86 156z" />
<glyph unicode="&#x15c;" horiz-adv-x="1062" d="M789.5 1408q109.5 -46 199.5 -136l-149 -172q-133 115 -273 114q-78 0 -123 -38.5t-45 -106.5q0 -45 20.5 -75.5t72 -59.5t151.5 -66q131 -49 212 -105t124 -140t43 -209q0 -131 -62.5 -232.5t-180 -159t-275.5 -57.5q-297 0 -494 201l160 178q76 -66 152.5 -100.5 t162.5 -34.5q94 0 145.5 49t51.5 131q0 78 -47 125t-178 94q-213 80 -303.5 180.5t-90.5 255.5q0 121 61.5 214.5t169 144.5t243.5 51q143 0 252.5 -46zM301 1552l-110 119l264 268h188l263 -268l-109 -119l-248 170z" />
<glyph unicode="&#x15d;" horiz-adv-x="897" d="M663.5 1087.5q94.5 -34.5 165.5 -98.5l-114 -172q-123 80 -232 80q-57 0 -87.5 -23.5t-30.5 -64.5q0 -31 15 -52.5t58 -43t129 -51.5q152 -51 224.5 -129t72.5 -211q0 -164 -125 -260.5t-319 -96.5q-125 0 -232.5 43t-183.5 117l150 168q127 -102 254 -103q63 0 99 28 t36 77q0 39 -15.5 63.5t-57.5 47t-130 53.5q-150 51 -218.5 130t-68.5 199q0 94 49.5 170t141.5 120t217 44q108 0 202.5 -34.5zM211 1276l-110 121l262 282h190l263 -282l-111 -121l-246 188z" />
<glyph unicode="&#x15e;" horiz-adv-x="1062" d="M911.5 118q-110.5 -120 -303.5 -147v-75q96 -12 145.5 -62.5t49.5 -134.5q0 -104 -76 -169t-207 -65q-125 0 -215 62l72 141q57 -31 119 -30q84 0 84 63q0 37 -42 54.5t-130 17.5l22 196q-248 23 -420 197l160 178q76 -66 152.5 -100.5t162.5 -34.5q94 0 145.5 49 t51.5 131q0 78 -47 125t-178 94q-213 80 -303.5 180.5t-90.5 255.5q0 121 61.5 214.5t169 144.5t243.5 51q143 0 252.5 -46t199.5 -136l-149 -172q-133 115 -273 114q-78 0 -123 -38.5t-45 -106.5q0 -45 20.5 -75.5t72 -59.5t151.5 -66q131 -49 212 -105t124 -140t43 -209 q0 -176 -110.5 -296z" />
<glyph unicode="&#x15f;" horiz-adv-x="897" d="M775 93q-89 -91 -238 -118v-79q96 -12 145 -62.5t49 -134.5q0 -104 -75.5 -169t-206.5 -65q-125 0 -216 62l72 141q57 -31 119 -30q84 0 84 63q0 37 -42 54.5t-130 17.5l22 194q-106 10 -197 52t-157 106l150 168q127 -102 254 -103q63 0 99 28t36 77q0 39 -15.5 63.5 t-57.5 47t-130 53.5q-150 51 -218.5 130t-68.5 199q0 94 49.5 170t141.5 120t217 44q109 0 203 -34.5t165 -98.5l-114 -172q-123 80 -232 80q-57 0 -87.5 -23.5t-30.5 -64.5q0 -31 15 -52.5t58 -43t129 -51.5q152 -51 224.5 -129t72.5 -211q0 -138 -89 -229z" />
<glyph unicode="&#x160;" horiz-adv-x="1062" d="M789.5 1408q109.5 -46 199.5 -136l-149 -172q-133 115 -273 114q-78 0 -123 -38.5t-45 -106.5q0 -45 20.5 -75.5t72 -59.5t151.5 -66q131 -49 212 -105t124 -140t43 -209q0 -131 -62.5 -232.5t-180 -159t-275.5 -57.5q-297 0 -494 201l160 178q76 -66 152.5 -100.5 t162.5 -34.5q94 0 145.5 49t51.5 131q0 78 -47 125t-178 94q-213 80 -303.5 180.5t-90.5 255.5q0 121 61.5 214.5t169 144.5t243.5 51q143 0 252.5 -46zM797 1923l109 -121l-263 -266h-190l-262 266l110 121l248 -170z" />
<glyph unicode="&#x161;" horiz-adv-x="897" d="M663.5 1087.5q94.5 -34.5 165.5 -98.5l-114 -172q-123 80 -232 80q-57 0 -87.5 -23.5t-30.5 -64.5q0 -31 15 -52.5t58 -43t129 -51.5q152 -51 224.5 -129t72.5 -211q0 -164 -125 -260.5t-319 -96.5q-125 0 -232.5 43t-183.5 117l150 168q127 -102 254 -103q63 0 99 28 t36 77q0 39 -15.5 63.5t-57.5 47t-130 53.5q-150 51 -218.5 130t-68.5 199q0 94 49.5 170t141.5 120t217 44q108 0 202.5 -34.5zM707 1659l109 -123l-263 -283h-190l-262 283l110 123l248 -189z" />
<glyph unicode="&#x162;" horiz-adv-x="1003" d="M813 -164q49 -53 49 -137q0 -104 -76.5 -169t-207.5 -65q-61 0 -118 17.5t-95 44.5l71 147q59 -37 113 -36q90 0 90 65q0 35 -41 52.5t-131 17.5l27 227h-156v1169h-324v250h992l-35 -250h-305v-1269q98 -11 147 -64z" />
<glyph unicode="&#x163;" horiz-adv-x="720" d="M665.5 -167q49.5 -50 49.5 -134q0 -104 -76 -169t-207 -65q-125 0 -215 62l72 141q57 -31 119 -30q84 0 84 63q0 37 -42 54.5t-131 17.5l25 209q-106 31 -158.5 118.5t-52.5 223.5v544h-131v219h131v236l316 37v-273h223l-33 -219h-190v-540q0 -113 86 -113q47 0 102 31 l104 -195q-86 -66 -221 -84v-71q96 -13 145.5 -63z" />
<glyph unicode="&#x164;" horiz-adv-x="1003" d="M1006 1419l-35 -250h-305v-1169h-328v1169h-324v250h992zM750 1923l109 -121l-263 -266h-190l-262 266l110 121l248 -170z" />
<glyph unicode="&#x165;" horiz-adv-x="720" d="M764 1593l-102 -438l-175 27l45 444zM637 246l104 -195q-55 -41 -127.5 -63.5t-146.5 -22.5q-166 0 -250 94.5t-84 264.5v544h-131v219h131v236l316 37v-273h223l-33 -219h-190v-540q0 -113 86 -113q47 0 102 31z" />
<glyph unicode="&#x166;" horiz-adv-x="1003" d="M971 1167h-305v-370h206v-187h-206v-612h-328v612h-209v187h209v370h-324v250h992z" />
<glyph unicode="&#x167;" horiz-adv-x="720" d="M741 51q-55 -41 -127.5 -63.5t-146.5 -22.5q-166 0 -250 94.5t-84 264.5v206h-117v209h117v129h-131v219h131v236l316 37v-273h223l-33 -219h-190v-129h188v-209h-188v-202q0 -113 86 -113q47 0 102 31z" />
<glyph unicode="&#x168;" horiz-adv-x="1202" d="M1112 438q0 -135 -57.5 -242.5t-172 -169t-280.5 -61.5q-250 0 -380 129t-130 344v981h328v-968q0 -123 43 -181.5t139 -58.5t138 58.5t42 181.5v968h330v-981zM644.5 1579q-27.5 12 -70.5 39q-27 18 -42.5 26.5t-33.5 8.5q-31 0 -51.5 -19.5t-46.5 -66.5l-152 71 q37 104 100.5 169t143.5 65q41 0 71.5 -13.5t69.5 -39.5q4 -2 20.5 -12.5t29.5 -15.5t26 -5q29 0 50 19.5t46 64.5l152 -72q-37 -106 -100.5 -168.5t-143.5 -62.5q-41 0 -68.5 12z" />
<glyph unicode="&#x169;" horiz-adv-x="1062" d="M954 0h-274l-14 131q-106 -166 -289 -166q-133 0 -206 88t-73 238v796h316v-772q0 -117 82 -116q80 0 143 118v770h315v-1087zM570.5 1321q-27.5 12 -70.5 39q-27 18 -42.5 26.5t-33.5 8.5q-31 0 -51.5 -19.5t-46.5 -66.5l-152 71q37 104 100.5 169t143.5 65 q41 0 71.5 -13.5t69.5 -39.5q4 -2 20.5 -12.5t29.5 -15.5t26 -5q29 0 50 19.5t46 64.5l152 -72q-37 -106 -100.5 -168.5t-143.5 -62.5q-41 0 -68.5 12z" />
<glyph unicode="&#x16a;" horiz-adv-x="1202" d="M1112 438q0 -135 -57.5 -242.5t-172 -169t-280.5 -61.5q-250 0 -380 129t-130 344v981h328v-968q0 -123 43 -181.5t139 -58.5t138 58.5t42 181.5v968h330v-981zM889 1604h-574v215h574v-215z" />
<glyph unicode="&#x16b;" horiz-adv-x="1062" d="M954 0h-274l-14 131q-106 -166 -289 -166q-133 0 -206 88t-73 238v796h316v-772q0 -117 82 -116q80 0 143 118v770h315v-1087zM816 1346h-574v215h574v-215z" />
<glyph unicode="&#x16c;" horiz-adv-x="1202" d="M1112 438q0 -135 -57.5 -242.5t-172 -169t-280.5 -61.5q-250 0 -380 129t-130 344v981h328v-968q0 -123 43 -181.5t139 -58.5t138 58.5t42 181.5v968h330v-981zM372 1629q-83 91 -96 237l170 30q16 -66 54 -102.5t100 -36.5q61 0 100 38t56 101l170 -30 q-12 -143 -96.5 -235.5t-229.5 -92.5t-228 91z" />
<glyph unicode="&#x16d;" horiz-adv-x="1062" d="M954 0h-274l-14 131q-106 -166 -289 -166q-133 0 -206 88t-73 238v796h316v-772q0 -117 82 -116q80 0 143 118v770h315v-1087zM295.5 1391.5q-82.5 95.5 -93.5 253.5l170 30q37 -162 154 -162q61 0 100 42t56 120l170 -30q-10 -158 -94.5 -253.5t-231.5 -95.5 q-148 0 -230.5 95.5z" />
<glyph unicode="&#x16e;" horiz-adv-x="1202" d="M1112 438q0 -135 -57.5 -242.5t-172 -169t-280.5 -61.5q-250 0 -380 129t-130 344v981h328v-968q0 -123 43 -181.5t139 -58.5t138 58.5t42 181.5v968h330v-981zM797 1955q72 -75 72 -190t-72 -190.5t-193 -75.5t-193.5 76t-72.5 190q0 115 73 190t193 75q121 0 193 -75z M522 1765q0 -106 82 -106q80 0 80 106q0 104 -80 105q-82 -1 -82 -105z" />
<glyph unicode="&#x16f;" horiz-adv-x="1062" d="M954 0h-274l-14 131q-106 -166 -289 -166q-133 0 -206 88t-73 238v796h316v-772q0 -117 82 -116q80 0 143 118v770h315v-1087zM721 1697q72 -75 72 -190t-72 -190.5t-193 -75.5t-193.5 76t-72.5 190q0 115 73 190t193 75q121 0 193 -75zM446 1507q0 -106 82 -106 q80 0 80 106q0 104 -80 105q-82 -1 -82 -105z" />
<glyph unicode="&#x170;" horiz-adv-x="1202" d="M1112 438q0 -135 -57.5 -242.5t-172 -169t-280.5 -61.5q-250 0 -380 129t-130 344v981h328v-968q0 -123 43 -181.5t139 -58.5t138 58.5t42 181.5v968h330v-981zM520 2013l207 -98l-215 -367l-158 66zM852 2013l203 -104l-230 -369l-153 74z" />
<glyph unicode="&#x171;" horiz-adv-x="1062" d="M954 0h-274l-14 131q-106 -166 -289 -166q-133 0 -206 88t-73 238v796h316v-772q0 -117 82 -116q80 0 143 118v770h315v-1087zM434 1755l207 -98l-215 -367l-158 66zM766 1755l203 -104l-230 -369l-153 74z" />
<glyph unicode="&#x172;" horiz-adv-x="1202" d="M1112 1419v-981q0 -158 -75.5 -274.5t-223.5 -165.5q-209 -92 -209 -209q0 -45 24.5 -69.5t71.5 -24.5t113 16l-20 -196q-61 -16 -131 -17q-121 0 -200 65.5t-79 172.5q0 150 164 231q-223 14 -339 141.5t-116 329.5v981h328v-968q0 -123 43 -181.5t139 -58.5t138 58.5 t42 181.5v968h330z" />
<glyph unicode="&#x173;" horiz-adv-x="1062" d="M785 -103.5q-46 -52.5 -46 -107.5q0 -94 97 -94q39 0 110 14l-20 -194q-61 -16 -129 -17q-125 0 -204 63.5t-79 172.5q0 162 166 268l-14 129q-106 -166 -289 -166q-133 0 -206 88t-73 238v796h316v-772q0 -117 82 -116q80 0 143 118v770h315v-1087q-123 -51 -169 -103.5 z" />
<glyph unicode="&#x174;" horiz-adv-x="1581" d="M1563 1419l-205 -1419h-426l-144 1094l-155 -1094h-416l-199 1419h318l121 -1171l166 1171h340l155 -1171l139 1171h306zM546 1552l-110 119l264 268h188l263 -268l-109 -119l-248 170z" />
<glyph unicode="&#x175;" horiz-adv-x="1406" d="M1397 1087l-199 -1087h-373l-120 805l-121 -805h-369l-205 1087h309l99 -849l143 849h301l129 -849l109 849h297zM456 1276l-110 121l262 282h190l263 -282l-111 -121l-246 188z" />
<glyph unicode="&#x176;" horiz-adv-x="1110" d="M1128 1419l-409 -887v-532h-328v530l-409 889h350l227 -631l232 631h337zM307 1552l-110 119l264 268h188l263 -268l-109 -119l-248 170z" />
<glyph unicode="&#x177;" horiz-adv-x="974" d="M676 -2q-117 -424 -570 -453l-34 219q141 20 210.5 72.5t110.5 163.5h-112l-291 1087h323l168 -886l187 886h317zM239 1276l-110 121l262 282h190l263 -282l-111 -121l-246 188z" />
<glyph unicode="&#x178;" horiz-adv-x="1110" d="M1128 1419l-409 -887v-532h-328v530l-409 889h350l227 -631l232 631h337zM452 1845q45 -45 45 -112q0 -68 -45 -114t-112 -46q-66 0 -112 46t-46 114q0 66 46 111.5t112 45.5q67 0 112 -45zM887.5 1845q46.5 -45 46.5 -112q0 -68 -45.5 -114t-114.5 -46q-66 0 -112 46 t-46 114q0 66 46 111.5t112 45.5q67 0 113.5 -45z" />
<glyph unicode="&#x179;" horiz-adv-x="1007" d="M956 1419v-248l-559 -909h572l-33 -262h-907v246l563 919h-510v254h874zM656 1946l119 -232l-449 -176l-80 158z" />
<glyph unicode="&#x17a;" horiz-adv-x="856" d="M819 1087v-223l-444 -624h454l-28 -240h-778v223l444 627h-408v237h760zM566 1700l123 -232l-445 -192l-86 156z" />
<glyph unicode="&#x17b;" horiz-adv-x="1007" d="M956 1419v-248l-559 -909h572l-33 -262h-907v246l563 919h-510v254h874zM640.5 1861.5q52.5 -51.5 52.5 -126.5q0 -78 -52.5 -129.5t-132.5 -51.5t-131 51.5t-51 129.5q0 76 51 127t131 51t132.5 -51.5z" />
<glyph unicode="&#x17c;" horiz-adv-x="856" d="M819 1087v-223l-444 -624h454l-28 -240h-778v223l444 627h-408v237h760zM566.5 1603.5q52.5 -51.5 52.5 -126.5q0 -78 -52.5 -129.5t-132.5 -51.5t-131 51.5t-51 129.5q0 76 51 127t131 51t132.5 -51.5z" />
<glyph unicode="&#x17d;" horiz-adv-x="1007" d="M956 1419v-248l-559 -909h572l-33 -262h-907v246l563 919h-510v254h874zM758 1923l109 -121l-263 -266h-190l-262 266l110 121l248 -170z" />
<glyph unicode="&#x17e;" horiz-adv-x="856" d="M819 1087v-223l-444 -624h454l-28 -240h-778v223l444 627h-408v237h760zM684 1659l109 -123l-263 -283h-190l-262 283l110 123l248 -189z" />
<glyph unicode="&#x17f;" horiz-adv-x="673" d="M811 1487l-84 -203q-74 37 -147 37q-61 0 -88 -29.5t-27 -97.5v-1194h-315v868h-144v219h144v105q0 162 99 261t286 99q151 1 276 -65z" />
<glyph unicode="&#x180;" horiz-adv-x="1124" d="M967.5 973.5q93.5 -148.5 93.5 -430.5q0 -172 -47 -303t-135 -203t-209 -72q-78 0 -143.5 36t-112.5 101l-15 -102h-280v1223h-107v186h107v111l315 32v-143h240v-186h-240v-242q45 66 114.5 103.5t151.5 37.5q174 0 267.5 -148.5zM694 273.5q41 78.5 41 269.5 q0 203 -36.5 275.5t-106.5 72.5q-45 0 -85 -33t-73 -90v-471q57 -102 144 -102q75 0 116 78.5z" />
<glyph unicode="&#x181;" horiz-adv-x="1423" d="M1299.5 645q82.5 -78 82.5 -231q0 -414 -571 -414h-420v1186h-49q-84 0 -84 -86q0 -55 35 -139l-201 -89q-41 63 -63.5 123t-22.5 131q0 135 93.5 214t258.5 79h404q272 0 419.5 -89t147.5 -273q0 -123 -69.5 -200t-178.5 -105q136 -29 218.5 -107zM719 1188v-338h90 q188 0 188 174q0 84 -49 124t-155 40h-74zM987.5 281q59.5 43 59.5 149q0 201 -218 201h-110v-393h94q115 0 174.5 43z" />
<glyph unicode="&#x182;" d="M949 799.5q134 -111.5 134 -330.5q0 -233 -139 -351t-385 -118h-446v1419h819l-33 -248h-459v-260h125q250 0 384 -111.5zM692 292q49 54 49 173q0 111 -50 165t-159 54h-92v-446h99q104 0 153 54z" />
<glyph unicode="&#x183;" d="M955.5 964.5q93.5 -147.5 93.5 -425.5q0 -170 -47.5 -300t-135.5 -202t-209 -72q-78 0 -143 36t-113 101l-14 -102h-281v1520h717l-35 -226h-366v-323q45 66 114.5 103.5t149.5 37.5q176 0 269.5 -147.5zM682 273.5q41 78.5 41 265.5q0 197 -37 269.5t-106 72.5 q-45 0 -85 -33t-73 -90v-461q57 -102 143 -102q76 0 117 78.5z" />
<glyph unicode="&#x184;" horiz-adv-x="1148" d="M988 819.5q134 -112.5 134 -340.5q0 -242 -137 -360.5t-383 -118.5h-450v1012l-138 102q109 117 193 305h272v-487h123q252 0 386 -112.5zM732 294q50 56 50 181q0 119 -50 174.5t-161 55.5h-92v-467h103q100 0 150 56z" />
<glyph unicode="&#x185;" horiz-adv-x="1007" d="M869.5 653.5q113.5 -94.5 113.5 -280.5q0 -188 -116.5 -280.5t-323.5 -92.5h-400v698l-141 105q113 119 195 284h262v-339h53q244 0 357.5 -94.5zM630 248q34 39 34 131t-33 131t-115 39h-57v-340h67q70 0 104 39z" />
<glyph unicode="&#x186;" horiz-adv-x="1073" d="M859.5 1264.5q152.5 -189.5 152.5 -551.5q0 -244 -73 -412t-205 -252t-310 -84q-129 0 -233.5 51.5t-180.5 130.5l148 181q70 -55 124 -82t126 -27q125 0 193.5 115t68.5 379q0 270 -62.5 383.5t-181.5 113.5q-70 0 -127 -24.5t-117 -71.5l-157 184q88 78 189 117t232 39 q261 0 413.5 -189.5z" />
<glyph unicode="&#x187;" horiz-adv-x="1073" d="M1352 1667l-90 -192q-33 18 -60.5 26t-60.5 8q-47 0 -68.5 -26.5t-21.5 -87.5v-97l-144 -168q-121 80 -237 80q-266 0 -267 -497q0 -494 271 -494q68 0 121 27.5t123 83.5l147 -183q-76 -80 -181.5 -131t-234.5 -51q-176 0 -308 84t-206 252t-74 412q0 236 75 403.5 t201 252.5t277 85q86 0 162 -31q2 152 85 236t233 84q143 0 258 -76z" />
<glyph unicode="&#x188;" horiz-adv-x="892" d="M1192 1477l-88 -193q-35 18 -61.5 26.5t-59.5 8.5q-47 0 -69.5 -26.5t-22.5 -88.5v-215l-123 -168q-90 59 -188 60q-96 0 -143.5 -78t-47.5 -266q0 -180 48 -252t138 -72q47 0 86 15.5t93 52.5l137 -187q-141 -129 -334 -129q-233 0 -365.5 149.5t-132.5 420.5 q0 176 58.5 309t162 205.5t234.5 72.5q45 0 102 -14v121q0 156 84 239.5t236 83.5q141 1 256 -75z" />
<glyph unicode="&#x189;" horiz-adv-x="1251" d="M861.5 1364q146.5 -55 236.5 -211t90 -436q0 -397 -176 -557t-467 -160h-400v625h-116v196h116v598h373q197 0 343.5 -55zM720.5 278.5q61.5 40.5 95.5 146t34 292.5q0 186 -35 288.5t-97.5 139.5t-154.5 37h-90v-361h217v-196h-217v-387h92q94 0 155.5 40.5z" />
<glyph unicode="&#x18a;" horiz-adv-x="1495" d="M1107 1364q146 -55 236.5 -211t90.5 -436q0 -397 -176.5 -557t-466.5 -160h-400v1186h-49q-84 0 -84 -86q0 -55 35 -139l-201 -89q-41 63 -63.5 123t-22.5 131q0 135 93.5 214t258.5 79h406q197 0 343 -55zM966.5 278.5q61.5 40.5 95.5 146t34 292.5q0 186 -35 288.5 t-97.5 139.5t-154.5 37h-90v-944h92q94 0 155.5 40.5z" />
<glyph unicode="&#x18b;" d="M1001 0h-446q-248 0 -386 112.5t-138 344.5q0 219 136 336.5t388 117.5h119v260h-479v248h806v-1419zM674 238v446h-88q-113 0 -163 -55.5t-50 -171.5q0 -117 50 -168t157 -51h94z" />
<glyph unicode="&#x18c;" horiz-adv-x="1116" d="M1008 0h-279l-14 121q-104 -156 -277 -156q-184 0 -279.5 150.5t-95.5 416.5q0 166 50.5 294t142.5 200t213 72q133 0 223 -101v297h-381v226h697v-1520zM622.5 224.5q36.5 27.5 69.5 84.5v469q-33 45 -64.5 66.5t-72.5 21.5q-78 0 -122 -79.5t-44 -254.5 q0 -186 39 -260.5t111 -74.5q47 0 83.5 27.5z" />
<glyph unicode="&#x18d;" horiz-adv-x="1081" d="M737 150q109 -63 148 -130t39 -159q0 -137 -103.5 -227.5t-306.5 -90.5q-109 0 -200 34t-158 89l137 164q51 -33 98 -49.5t103 -16.5q66 0 97.5 28t31.5 73q0 37 -12.5 60.5t-50.5 48t-116 61.5q-207 94 -296 215t-89 323q0 258 129 403.5t353 145.5q227 0 354 -134 t127 -388q0 -311 -285 -450zM400.5 417.5q15.5 -57.5 56.5 -100.5t123 -86q68 63 93 147.5t27 211.5q0 164 -36.5 232.5t-120.5 68.5q-82 0 -120 -71.5t-38 -248.5q0 -96 15.5 -153.5z" />
<glyph unicode="&#x18e;" horiz-adv-x="970" d="M70 1419h788v-1419h-799v238h471v368h-387v230h387v350h-460v233z" />
<glyph unicode="&#x18f;" horiz-adv-x="1191" d="M986 1274q142 -180 142 -553q0 -381 -144 -568.5t-404 -187.5q-539 0 -539 727q0 33 10 135h748q-6 209 -69.5 298t-186.5 89q-84 0 -150.5 -30.5t-134.5 -83.5l-145 174q98 92 209.5 136t250.5 44q271 0 413 -180zM737.5 293q53.5 88 61.5 307h-443q0 -215 57.5 -305 t164.5 -90q106 0 159.5 88z" />
<glyph unicode="&#x190;" horiz-adv-x="1005" d="M777.5 1408q105.5 -46 195.5 -140l-154 -164q-119 113 -237 113q-86 0 -127 -47.5t-41 -122.5q0 -86 49 -133.5t141 -47.5h133l-37 -235h-98q-109 0 -164 -55.5t-55 -155.5q0 -104 53 -157.5t150 -53.5q74 0 133 29.5t123 91.5l172 -166q-172 -199 -461 -199 q-150 0 -265.5 53.5t-181 151.5t-65.5 229q0 158 87 247t243 108q-145 31 -218 115.5t-73 211.5q0 106 57.5 191.5t163 133.5t240.5 48q131 0 236.5 -46z" />
<glyph unicode="&#x191;" horiz-adv-x="903" d="M440 1186v-385h365v-234h-365v-567h-2v-84q0 -182 -104.5 -275.5t-280.5 -93.5q-160 0 -272 86l108 189q37 -20 64 -28.5t61 -8.5q96 0 97 113v104h2v1417h778l-35 -233h-416z" />
<glyph unicode="&#x192;" horiz-adv-x="702" d="M498.5 1291.5q-27.5 -29.5 -27.5 -97.5v-107h229l-34 -219h-195v-749q0 -166 -52 -275.5t-140.5 -176t-219.5 -120.5l-106 230q72 39 114 73.5t65.5 94t23.5 155.5v768h-144v219h144v105q0 164 99 262t290 98q156 0 297 -65l-86 -203q-86 37 -162 37q-68 0 -95.5 -29.5z " />
<glyph unicode="&#x193;" horiz-adv-x="1144" d="M1423 1667l-90 -192q-35 18 -61.5 26t-59.5 8q-47 0 -69.5 -26.5t-22.5 -87.5v-115l-147 -156q-72 47 -135.5 70t-137.5 23q-143 0 -221 -118t-78 -388q0 -195 27 -304.5t80 -154.5t141 -45q92 0 164 45v332h-158l-30 231h499v-702q-100 -70 -224 -109t-249 -39 q-297 0 -443.5 185.5t-146.5 560.5q0 240 81 407.5t215.5 251.5t295.5 84q111 0 195 -39v4q0 154 83 239t234 85q139 0 258 -76z" />
<glyph unicode="&#x194;" horiz-adv-x="1073" d="M707 186q66 -117 95 -206t29 -181q0 -119 -69.5 -185.5t-218.5 -66.5q-150 0 -220.5 65.5t-70.5 184.5q0 82 28.5 168t98.5 221l-402 1233h336l230 -1024l227 1024h326zM581.5 -99q-12.5 44 -38.5 113q-53 -129 -54 -196q0 -63 54 -64q51 0 51 64q0 39 -12.5 83z" />
<glyph unicode="&#x195;" horiz-adv-x="1609" d="M1538 516q0 -195 -68.5 -318.5t-178 -178t-240.5 -54.5q-174 0 -284 97.5t-110 283.5v416q0 68 -20.5 95.5t-56.5 27.5q-41 0 -79 -34t-79 -99v-752h-316v1520l316 32v-583q57 78 124.5 115.5t153.5 37.5q127 0 200 -85t73 -232v-463q0 -78 24.5 -110.5t73.5 -32.5 q152 0 152 336q0 227 -49 552h309q55 -319 55 -571z" />
<glyph unicode="&#x196;" horiz-adv-x="735" d="M750 53q-113 -86 -273 -86q-176 0 -280.5 93.5t-104.5 275.5v1083h328v-1102q0 -113 96 -112q35 0 61.5 8t63.5 29z" />
<glyph unicode="&#x197;" horiz-adv-x="620" d="M610 858v-242h-135v-616h-328v616h-137v242h137v561h328v-561h135z" />
<glyph unicode="&#x198;" horiz-adv-x="1220" d="M451 758l227 436q70 141 143.5 200.5t200.5 59.5q123 0 223 -74l-84 -186q-41 27 -86 27q-39 0 -63.5 -20.5t-57.5 -80.5l-176 -340l436 -780h-366zM440 1419v-1419h-327v1419h327z" />
<glyph unicode="&#x199;" horiz-adv-x="1042" d="M448.5 1288q-26.5 -31 -26.5 -100v-1188h-316v1198q0 156 100.5 255t289.5 99q154 0 274 -67l-88 -201q-72 35 -145 35q-62 0 -88.5 -31zM745 610l314 -610h-344l-283 594l295 493h309z" />
<glyph unicode="&#x19a;" horiz-adv-x="632" d="M621 4q-82 -39 -183 -39q-135 0 -210.5 78t-75.5 217v391h-142v221h142v648l315 32v-680h143v-221h-143v-377q0 -59 49 -59q20 0 45 8z" />
<glyph unicode="&#x19b;" horiz-adv-x="991" d="M873.5 393q58.5 -182 154.5 -325l-301 -103q-84 160 -134 334t-97 483l-172 -817l-310 68l293 979h148q-23 106 -49 162l-107 -107l-160 104l142 136q-70 31 -164 49l35 196q197 -33 307 -100l137 125l127 -139l-127 -115q94 -131 141 -365q78 -383 136.5 -565z" />
<glyph unicode="&#x19c;" horiz-adv-x="1689" d="M1577 1419v-1419h-287l-22 125q-66 -84 -134.5 -122t-154.5 -38q-94 0 -164 49t-106 136q-74 -96 -145.5 -140.5t-162.5 -44.5q-143 0 -226 105.5t-83 269.5v1079h328v-1063q0 -72 24.5 -108.5t71.5 -36.5q43 0 78 30.5t78 96.5v2v1079h325v-1063q0 -68 25 -106.5 t70 -38.5q47 0 82.5 30.5t74.5 100.5v1077h328z" />
<glyph unicode="&#x19d;" horiz-adv-x="1226" d="M1114 1419v-1419h-409l-349 1114q4 -25 4 -41q18 -147 28.5 -267t10.5 -278v-612q0 -178 -97 -273.5t-259 -95.5q-154 0 -266 86l108 177q45 -23 68.5 -31t58.5 -8q100 0 101 120v1528h405l354 -1116q-45 266 -45 531v585h287z" />
<glyph unicode="&#x19e;" horiz-adv-x="1073" d="M900 1037q73 -85 73 -232v-1258l-316 33v1182q0 68 -19.5 95.5t-57.5 27.5q-41 0 -79 -34t-79 -99v-752h-316v1087h277l23 -129q59 82 130.5 123t163.5 41q127 0 200 -85z" />
<glyph unicode="&#x19f;" horiz-adv-x="1290" d="M1077.5 1264.5q151.5 -189.5 151.5 -553.5q0 -360 -152.5 -553t-431.5 -193t-431.5 190.5t-152.5 555.5q0 358 153 550.5t431 192.5q281 0 432.5 -189.5zM468 1120q-62 -94 -75 -307h504q-12 213 -73.5 307t-178.5 94q-115 0 -177 -94zM827.5 302q61.5 97 69.5 323h-504 q8 -225 70.5 -322.5t181.5 -97.5q121 0 182.5 97z" />
<glyph unicode="&#x1a0;" horiz-adv-x="1353" d="M1288 1237q-51 -61 -143 -82q84 -174 84 -444q0 -360 -152.5 -553t-431.5 -193t-431.5 190.5t-152.5 555.5q0 358 153 550.5t431 192.5q254 0 402 -156q43 6 62 32t19 75q0 47 -5 77.5t-17 69.5l199 31q35 -82 34 -182q0 -103 -51 -164zM828.5 320.5 q58.5 115.5 58.5 390.5q0 270 -58.5 386.5t-183.5 116.5t-183.5 -116.5t-58.5 -386.5q0 -274 59.5 -390t182.5 -116q125 0 183.5 115.5z" />
<glyph unicode="&#x1a1;" horiz-adv-x="1177" d="M1143 900.5q-53 -62.5 -150 -81.5q43 -117 43 -276q0 -270 -131 -424t-358 -154q-229 0 -358.5 149.5t-129.5 430.5q0 272 130 424.5t358 152.5q240 0 364 -155q41 8 58.5 32.5t17.5 71.5q0 78 -24 148l198 30q35 -86 35 -182q0 -104 -53 -166.5zM671 277.5 q40 80.5 40 265.5q0 188 -39 267t-125 79q-84 0 -123 -80t-39 -264q0 -188 39 -268t123 -80t124 80.5z" />
<glyph unicode="&#x1a2;" horiz-adv-x="1787" d="M1572.5 1355.5q104.5 -98.5 104.5 -278.5v-1505h-329v1522q0 131 -103 131q-35 0 -62.5 -7.5t-60.5 -23.5q106 -184 107 -483q0 -360 -152.5 -553t-431.5 -193t-431.5 190.5t-152.5 555.5q0 358 153 550.5t431 192.5q199 0 336 -100q135 100 309 100q178 0 282.5 -98.5z M828.5 320.5q58.5 115.5 58.5 390.5q0 270 -58.5 386.5t-183.5 116.5t-183.5 -116.5t-58.5 -386.5q0 -274 59.5 -390t182.5 -116q125 0 183.5 115.5z" />
<glyph unicode="&#x1a3;" horiz-adv-x="1546" d="M1340.5 1027q97.5 -95 97.5 -282v-1198l-316 33v1194q0 61 -23.5 90t-72.5 29q-31 0 -68 -10q70 -139 70 -340q0 -270 -130 -424t-355 -154t-354.5 149.5t-129.5 430.5q0 272 129 424.5t357 152.5q154 0 262 -69q61 37 124.5 53t141.5 16q170 0 267.5 -95zM663.5 277.5 q38.5 80.5 38.5 265.5q0 188 -37.5 267t-119.5 79t-121 -80t-39 -264q0 -188 38 -268t120 -80t120.5 80.5z" />
<glyph unicode="&#x1a4;" horiz-adv-x="1392" d="M1215.5 1302.5q146.5 -116.5 146.5 -344.5q0 -240 -142.5 -361.5t-392.5 -121.5h-108v-475h-328v1186h-49q-84 0 -84 -86q0 -55 35 -139l-201 -89q-41 63 -63.5 123t-22.5 131q0 135 93.5 214t258.5 79h439q272 0 418.5 -116.5zM970.5 769q55.5 56 55.5 187 q0 117 -54 173.5t-171 56.5h-82v-473h82q114 0 169.5 56z" />
<glyph unicode="&#x1a5;" d="M957.5 972.5q91.5 -149.5 91.5 -425.5q0 -172 -48.5 -304t-136.5 -205t-207 -73q-141 0 -235 113v-498l-316 -33v1651q0 156 100.5 255t289.5 99q154 0 274 -67l-88 -201q-72 35 -145 35q-61 0 -88 -31t-27 -100v-199q104 133 262 133q182 0 273.5 -149.5zM723 543 q0 199 -36 273.5t-107 74.5q-90 0 -158 -121v-481q59 -90 141 -90q160 0 160 344z" />
<glyph unicode="&#x1a6;" horiz-adv-x="1157" d="M555 309h-115v-309h-327v1419h327v-235h95q553 0 552 -432q0 -272 -239 -381l321 -607h-356zM440 537h107q106 0 155.5 51t49.5 164q0 104 -52.5 152t-167.5 48h-92v-415z" />
<glyph unicode="&#x1a7;" horiz-adv-x="1046" d="M787.5 1405q105.5 -49 163 -140t57.5 -210q0 -158 -92.5 -256.5t-307.5 -173.5q-131 -45 -179 -98.5t-48 -139.5q0 -84 49 -129t137 -45q82 0 157 34t150 97l162 -176q-90 -92 -214 -147.5t-281 -55.5q-152 0 -264.5 55.5t-174 155.5t-61.5 230q0 176 91 275t288 169 q100 35 152.5 65.5t75 67.5t22.5 90q0 70 -40 105.5t-116 35.5q-78 0 -146.5 -27.5t-136.5 -84.5l-149 170q193 182 461 182q139 0 244.5 -49z" />
<glyph unicode="&#x1a8;" horiz-adv-x="880" d="M661.5 1079q88.5 -43 135.5 -117.5t47 -168.5q0 -129 -73 -203t-222 -123q-84 -29 -126 -51.5t-55.5 -48t-13.5 -66.5q0 -53 35 -82t94 -29q119 0 244 101l150 -164q-74 -74 -183.5 -118t-234.5 -44q-188 0 -307 94.5t-119 253.5q0 135 74.5 212t226.5 124 q84 27 126 49.5t56 47t14 63.5q0 41 -28.5 65.5t-81.5 24.5q-113 0 -236 -80l-114 170q170 133 383 133q120 0 208.5 -43z" />
<glyph unicode="&#x1a9;" horiz-adv-x="927" d="M895 1419v-237h-518l313 -416v-133l-321 -389h526v-244h-862v238l364 458l-364 486v237h862z" />
<glyph unicode="&#x1aa;" horiz-adv-x="784" d="M1012 -367q-111 -86 -277 -86q-168 0 -271.5 93.5t-103.5 269.5v975q-51 -23 -112 -23q-137 0 -221 93.5t-84 248.5q0 158 95 253t261 95q176 0 276.5 -98t100.5 -258v-1307q0 -57 26.5 -84.5t73.5 -27.5q37 0 63.5 8t63.5 29zM360 1090v135q0 57 -17 82.5t-54 25.5 q-78 0 -78 -123q0 -70 22.5 -99.5t69.5 -29.5q20 1 57 9z" />
<glyph unicode="&#x1ab;" horiz-adv-x="720" d="M741 51v-139q0 -178 -100 -271.5t-270 -93.5q-162 0 -279 86l109 181q37 -20 69.5 -29.5t75.5 -9.5q123 0 123 123v67h-10q-162 0 -244 94.5t-82 262.5v546h-131v219h131v236l316 37v-273h223l-33 -219h-190v-559q0 -109 92 -108q49 0 110 20z" />
<glyph unicode="&#x1ac;" d="M1081 1167h-307v-1167h-328v1167h-98q-88 0 -88 -82q0 -57 29 -120l-211 -93q-72 125 -72 244q0 141 98.5 222t270.5 81h739z" />
<glyph unicode="&#x1ad;" horiz-adv-x="720" d="M741 51q-55 -41 -127.5 -63.5t-146.5 -22.5q-166 0 -250 94.5t-84 264.5v544h-131v219h131v115q0 156 92 253t262 97q141 0 252 -75l-88 -181q-35 20 -60.5 28.5t-55.5 8.5q-86 0 -86 -108v-138h223l-33 -219h-190v-540q0 -113 88 -113q47 0 100 33z" />
<glyph unicode="&#x1ae;" horiz-adv-x="1013" d="M823.5 -207q26.5 8 63.5 29l108 -189q-113 -86 -272 -86q-176 0 -280.5 93.5t-104.5 275.5v1253h-324v250h992l-35 -250h-305v-1271q0 -113 96 -113q35 0 61.5 8z" />
<glyph unicode="&#x1af;" horiz-adv-x="1363" d="M1319 1212.5q-74 -63.5 -207 -67.5v-707q0 -135 -57.5 -242.5t-172 -169t-280.5 -61.5q-250 0 -380 129t-130 344v981h328v-968q0 -123 43 -181.5t139 -58.5t138 58.5t42 181.5v968h330v-116q37 8 53.5 32.5t16.5 69.5q0 47 -5.5 77.5t-17.5 69.5l199 31q35 -82 35 -182 q0 -125 -74 -188.5z" />
<glyph unicode="&#x1b0;" horiz-adv-x="1206" d="M1237 1067q0 -125 -75 -188.5t-208 -67.5v-811h-274l-14 131q-106 -166 -289 -166q-133 0 -206 88t-73 238v796h316v-772q0 -117 82 -116q80 0 143 118v770h315v-120q39 8 56.5 32.5t17.5 71.5q0 78 -24 148l198 30q35 -86 35 -182z" />
<glyph unicode="&#x1b1;" horiz-adv-x="1271" d="M322.5 45q-132.5 80 -201 227.5t-68.5 343.5q0 207 63.5 342.5t180.5 225.5h-205v235h447v-223q-76 -102 -110 -230t-34 -350q0 -215 58.5 -312t183.5 -97q123 0 182.5 97t59.5 312q0 219 -35 347.5t-109 232.5v223h447v-235h-207q119 -86 181.5 -221.5t62.5 -346.5 q0 -195 -70 -341t-201 -228t-311 -82q-182 0 -314.5 80z" />
<glyph unicode="&#x1b2;" horiz-adv-x="1202" d="M1036.5 1374q75.5 -80 75.5 -235v-568q0 -188 -68.5 -325t-192.5 -209t-288 -72q-145 0 -251.5 57.5t-163 159t-56.5 230.5v1007h328v-1013q0 -94 39 -144.5t112 -50.5q96 0 153.5 87t57.5 261v586q0 72 -51 72q-23 0 -47 -11l-49 213q82 35 184 35q142 0 217.5 -80z" />
<glyph unicode="&#x1b3;" horiz-adv-x="1179" d="M391 530l-409 889h350l229 -628l125 374q49 156 125 222.5t207 66.5q70 0 124 -19.5t107 -54.5l-88 -186q-43 29 -96 29q-41 0 -65.5 -23.5t-51.5 -87.5l-229 -580v-532h-328v530z" />
<glyph unicode="&#x1b4;" horiz-adv-x="983" d="M72 -236q141 20 210.5 72.5t110.5 163.5h-112l-291 1087h323l168 -886l135 717q25 147 88.5 212.5t186.5 65.5q84 0 162 -31l-52 -204q-25 10 -51 10q-29 0 -46 -16.5t-25 -53.5l-193 -878q-49 -223 -195.5 -342t-384.5 -136z" />
<glyph unicode="&#x1b5;" horiz-adv-x="1007" d="M371 262h598l-33 -262h-907v233l233 369h-147v211h280l223 352h-536v254h874v-235l-235 -371h149v-211h-282z" />
<glyph unicode="&#x1b6;" horiz-adv-x="856" d="M352 227h475l-26 -227h-778v211l176 246h-121v190h258l153 215h-430v225h760v-208l-166 -232h121v-190h-258z" />
<glyph unicode="&#x1b7;" horiz-adv-x="1013" d="M871.5 710.5q103.5 -104.5 103.5 -290.5q0 -131 -61.5 -233.5t-178.5 -162t-278 -59.5q-154 0 -263.5 53.5t-189.5 155.5l170 156q63 -63 122.5 -92t137.5 -29q96 0 149.5 58.5t53.5 164.5t-56.5 153.5t-168.5 47.5h-179v184l330 365h-483v237h827v-231l-336 -365 q197 -8 300.5 -112.5z" />
<glyph unicode="&#x1b8;" horiz-adv-x="1013" d="M1010 174q-82 -102 -195 -155.5t-266 -53.5q-158 0 -272.5 57.5t-176 160t-61.5 231.5q0 182 104.5 289.5t298.5 119.5l-336 365v231h828v-237h-481l327 -365v-184h-178q-113 0 -169 -52.5t-56 -160.5q0 -100 51 -155.5t143 -55.5q80 0 141.5 28.5t127.5 92.5z" />
<glyph unicode="&#x1b9;" horiz-adv-x="948" d="M977 -246q-78 -100 -187.5 -153.5t-261.5 -53.5q-154 0 -266 59.5t-172.5 165t-60.5 238.5q0 195 104.5 301.5t296.5 120.5l-340 438v217h811v-235h-471l318 -422v-182h-168q-115 0 -171.5 -54.5t-56.5 -170.5q0 -117 52.5 -176.5t146.5 -59.5q74 0 133 28.5t129 94.5z " />
<glyph unicode="&#x1ba;" horiz-adv-x="952" d="M132 -329q-81 79 -81 184q0 111 76 174t235 96q129 27 178.5 59.5t49.5 100.5q0 53 -35 78.5t-113 25.5h-235v172l295 303h-463v223h809v-204l-318 -310h43q156 0 247 -77.5t91 -214.5q0 -158 -97 -239t-267 -116q-88 -18 -132 -32.5t-60.5 -31t-16.5 -42.5q0 -49 88 -99 l-72 -176q-141 47 -222 126z" />
<glyph unicode="&#x1bb;" horiz-adv-x="960" d="M901 244l-33 -244h-827v225q180 199 238 269h-170v211h333q61 88 85 155.5t24 138.5q0 82 -40 126t-112 44q-63 0 -112 -31.5t-109 -105.5l-182 144q168 238 438 237q139 0 238.5 -52t150.5 -140t51 -197q0 -84 -21.5 -158.5t-74.5 -160.5h111v-211h-271 q-68 -78 -231 -250h514z" />
<glyph unicode="&#x1bc;" horiz-adv-x="1015" d="M864 1194h-460v-317q96 51 194 51q160 0 260.5 -121t100.5 -340q0 -150 -62.5 -263.5t-177.5 -176t-268 -62.5q-260 0 -428 207l172 158q53 -61 111.5 -94t131.5 -33q96 0 148.5 65.5t52.5 196.5q0 135 -44 190.5t-124 55.5q-39 0 -74.5 -11.5t-78.5 -37.5h-213v757h794z " />
<glyph unicode="&#x1bd;" horiz-adv-x="897" d="M743 858h-360v-176q74 31 154 31q86 0 156.5 -41t112.5 -121t42 -193q0 -180 -121 -286.5t-317 -106.5q-125 0 -214.5 42t-166.5 122l159 166q63 -51 107.5 -71.5t101.5 -20.5q139 0 140 155q0 141 -109 142q-53 0 -115 -31h-204v618h677z" />
<glyph unicode="&#x1be;" horiz-adv-x="954" d="M822.5 736.5q72.5 -101.5 72.5 -283.5q0 -227 -128 -356.5t-343 -129.5q-127 0 -230.5 46t-191.5 141l154 155q57 -57 110 -82.5t119 -25.5q88 0 137 63.5t49 190.5q0 137 -52 209.5t-171 105.5l-96 25v290h-129v187h129v248l315 32v-280h172v-187h-172v-188l54 -16 q129 -43 201.5 -144.5z" />
<glyph unicode="&#x1bf;" horiz-adv-x="1105" d="M883 1074q78 -48 122 -139t44 -214q0 -174 -63.5 -297t-170 -209t-274.5 -178l-119 -66v-391l-316 -33v1540h281l14 -122q131 158 308 157q96 0 174 -48zM663.5 452.5q59.5 112.5 59.5 264.5q0 178 -121 178q-49 0 -92 -25.5t-88 -74.5v-594l65 49q117 90 176.5 202.5z " />
<glyph unicode="&#x1c0;" horiz-adv-x="495" d="M383 1548v-1548h-270v1520z" />
<glyph unicode="&#x1c1;" horiz-adv-x="886" d="M383 1548v-1548h-270v1520zM776 1548v-1548h-270v1520z" />
<glyph unicode="&#x1c2;" horiz-adv-x="620" d="M610 815h-164v-129h164v-180h-164v-506h-270v506h-166v180h166v129h-166v180h166v525l270 28v-553h164v-180z" />
<glyph unicode="&#x1c3;" horiz-adv-x="581" d="M426 1548v-1069h-270v1041zM420 274.5q51 -53.5 51 -127.5q0 -76 -51 -129t-129 -53t-128 53.5t-50 128.5q0 74 51 127.5t127 53.5q78 0 129 -53.5z" />
<glyph unicode="&#x1c4;" horiz-adv-x="2174" d="M828.5 1364q146.5 -55 236.5 -211t90 -436q0 -397 -176 -557t-467 -160h-399v1419h372q197 0 343.5 -55zM440 1182v-944h92q94 0 156 40.5t95.5 146t33.5 292.5q0 186 -34.5 288.5t-97 139.5t-155.5 37h-90zM2123 1419v-248l-559 -909h572l-33 -262h-907v246l563 919 h-510v254h874zM1925 1923l109 -121l-263 -266h-190l-262 266l110 121l248 -170z" />
<glyph unicode="&#x1c5;" horiz-adv-x="2054" d="M828.5 1364q146.5 -55 236.5 -211t90 -436q0 -397 -176 -557t-467 -160h-399v1419h372q197 0 343.5 -55zM440 1182v-944h92q94 0 156 40.5t95.5 146t33.5 292.5q0 186 -34.5 288.5t-97 139.5t-155.5 37h-90zM2017 1087v-223l-444 -624h454l-28 -240h-778v223l444 627 h-408v237h760zM1882 1659l109 -123l-263 -283h-190l-262 283l110 123l248 -189z" />
<glyph unicode="&#x1c6;" horiz-adv-x="1972" d="M1008 1520v-1520h-279l-14 121q-104 -156 -277 -156q-182 0 -278.5 152.5t-96.5 427.5q0 172 50.5 303t141.5 202.5t210 71.5q137 0 227 -100v530zM622.5 224.5q36.5 27.5 69.5 84.5v494q-33 45 -64.5 66.5t-74.5 21.5q-164 0 -164 -346q0 -195 39 -271.5t111 -76.5 q47 0 83.5 27.5zM1935 1087v-223l-444 -624h454l-28 -240h-778v223l444 627h-408v237h760zM1800 1659l109 -123l-263 -283h-190l-262 283l110 123l248 -189z" />
<glyph unicode="&#x1c7;" horiz-adv-x="1499" d="M440 1419v-1159h494l-35 -260h-786v1419h327zM1392 215q0 -242 -114.5 -364.5t-313.5 -192.5l-86 231q80 35 120 78t53.5 102.5t13.5 157.5v1192h327v-1204z" />
<glyph unicode="&#x1c8;" horiz-adv-x="1452" d="M440 1419v-1159h494l-35 -260h-786v1419h327zM1344 98q0 -158 -51.5 -263t-140.5 -169.5t-220 -118.5l-104 230q72 39 112.5 73.5t64 90t23.5 145.5v1001h316v-989zM1316.5 1603.5q52.5 -51.5 52.5 -126.5q0 -78 -52.5 -129.5t-132.5 -51.5t-131 51.5t-51 129.5 q0 76 51 127t131 51t132.5 -51.5z" />
<glyph unicode="&#x1c9;" horiz-adv-x="1089" d="M172 43q-76 78 -76 217v1260l316 32v-1278q0 -59 49 -59q20 0 45 8l59 -219q-82 -39 -182 -39q-135 0 -211 78zM981 98q0 -158 -51.5 -263t-140.5 -169.5t-220 -118.5l-104 230q72 39 112.5 73.5t64 90t23.5 145.5v1001h316v-989zM953.5 1603.5q52.5 -51.5 52.5 -126.5 q0 -78 -52.5 -129.5t-132.5 -51.5t-131 51.5t-51 129.5q0 76 51 127t131 51t132.5 -51.5z" />
<glyph unicode="&#x1ca;" horiz-adv-x="1820" d="M1114 0h-409l-349 1114q4 -25 4 -41q18 -147 28.5 -267t10.5 -278v-528h-286v1419h405l354 -1116q-45 266 -45 531v585h287v-1419zM1714 215q0 -242 -114.5 -364.5t-313.5 -192.5l-86 231q80 35 120 78t53.5 102.5t13.5 157.5v1192h327v-1204z" />
<glyph unicode="&#x1cb;" horiz-adv-x="1757" d="M1114 0h-409l-349 1114q4 -25 4 -41q18 -147 28.5 -267t10.5 -278v-528h-286v1419h405l354 -1116q-45 266 -45 531v585h287v-1419zM1649 98q0 -158 -51.5 -263t-140.5 -169.5t-220 -118.5l-104 230q72 39 112.5 73.5t64 90t23.5 145.5v1001h316v-989zM1621.5 1603.5 q52.5 -51.5 52.5 -126.5q0 -78 -52.5 -129.5t-132.5 -51.5t-131 51.5t-51 129.5q0 76 51 127t131 51t132.5 -51.5z" />
<glyph unicode="&#x1cc;" horiz-adv-x="1603" d="M900 1037q73 -85 73 -232v-805h-316v762q0 68 -19.5 95.5t-57.5 27.5q-41 0 -79 -34t-79 -99v-752h-316v1087h277l23 -129q59 82 130.5 123t163.5 41q127 0 200 -85zM1495 98q0 -158 -51.5 -263t-140.5 -169.5t-220 -118.5l-104 230q72 39 112.5 73.5t64 90t23.5 145.5 v1001h316v-989zM1467.5 1603.5q52.5 -51.5 52.5 -126.5q0 -78 -52.5 -129.5t-132.5 -51.5t-131 51.5t-51 129.5q0 76 51 127t131 51t132.5 -51.5z" />
<glyph unicode="&#x1cd;" d="M797 0l-64 309h-360l-64 -309h-332l383 1419h394l381 -1419h-338zM422 545h262l-131 635zM805 1923l109 -121l-263 -266h-190l-262 266l110 121l248 -170z" />
<glyph unicode="&#x1ce;" horiz-adv-x="1017" d="M921.5 219.5q14.5 -26.5 49.5 -41.5l-66 -207q-94 8 -153.5 43t-92.5 109q-100 -158 -292 -158q-147 0 -234.5 93.5t-87.5 246.5q0 178 120 272.5t347 94.5h86v51q0 96 -35 134t-123 38q-100 0 -256 -55l-71 202q90 39 192.5 59.5t190.5 20.5q211 0 311 -94t100 -287 v-440q0 -55 14.5 -81.5zM539.5 217q35.5 27 58.5 76v203h-57q-96 0 -141.5 -40t-45.5 -124q0 -70 28 -106t79 -36q43 0 78.5 27zM752 1659l109 -123l-263 -283h-190l-262 283l110 123l248 -189z" />
<glyph unicode="&#x1cf;" horiz-adv-x="550" d="M440 1419v-1419h-327v1419h327zM522 1923l109 -121l-263 -266h-190l-262 266l110 121l248 -170z" />
<glyph unicode="&#x1d0;" horiz-adv-x="530" d="M422 1087v-1087h-316v1087h316zM512 1659l109 -123l-263 -283h-190l-262 283l110 123l248 -189z" />
<glyph unicode="&#x1d1;" horiz-adv-x="1290" d="M1077.5 1264.5q151.5 -189.5 151.5 -553.5q0 -360 -152.5 -553t-431.5 -193t-431.5 190.5t-152.5 555.5q0 358 153 550.5t431 192.5q281 0 432.5 -189.5zM461.5 1097.5q-58.5 -116.5 -58.5 -386.5q0 -274 59.5 -390t182.5 -116q125 0 183.5 115.5t58.5 390.5 q0 270 -58.5 386.5t-183.5 116.5t-183.5 -116.5zM893 1923l109 -121l-263 -266h-190l-262 266l110 121l248 -170z" />
<glyph unicode="&#x1d2;" horiz-adv-x="1093" d="M906 973.5q130 -148.5 130 -430.5q0 -270 -131 -424t-358 -154q-229 0 -358.5 149.5t-129.5 430.5q0 272 130 424.5t358 152.5q229 0 359 -148.5zM424 809q-39 -80 -39 -264q0 -188 39 -268t123 -80t124 80.5t40 265.5q0 188 -39 267t-125 79q-84 0 -123 -80zM795 1659 l109 -123l-263 -283h-190l-262 283l110 123l248 -189z" />
<glyph unicode="&#x1d3;" horiz-adv-x="1202" d="M1112 438q0 -135 -57.5 -242.5t-172 -169t-280.5 -61.5q-250 0 -380 129t-130 344v981h328v-968q0 -123 43 -181.5t139 -58.5t138 58.5t42 181.5v968h330v-981zM850 1923l109 -121l-263 -266h-190l-262 266l110 121l248 -170z" />
<glyph unicode="&#x1d4;" horiz-adv-x="1062" d="M954 0h-274l-14 131q-106 -166 -289 -166q-133 0 -206 88t-73 238v796h316v-772q0 -117 82 -116q80 0 143 118v770h315v-1087zM776 1659l109 -123l-263 -283h-190l-262 283l110 123l248 -189z" />
<glyph unicode="&#x1d5;" horiz-adv-x="1202" d="M1112 438q0 -135 -57.5 -242.5t-172 -169t-280.5 -61.5q-250 0 -380 129t-130 344v981h328v-968q0 -123 43 -181.5t139 -58.5t138 58.5t42 181.5v968h330v-981zM495 1798q45 -45 45 -112q0 -68 -45 -114t-112 -46q-66 0 -112 46t-46 114q0 66 46 111.5t112 45.5 q67 0 112 -45zM930.5 1798q46.5 -45 46.5 -112q0 -68 -45.5 -114t-114.5 -46q-66 0 -112 46t-46 114q0 66 46 111.5t112 45.5q67 0 113.5 -45zM891 1930h-574v215h574v-215z" />
<glyph unicode="&#x1d6;" horiz-adv-x="1062" d="M954 0h-274l-14 131q-106 -166 -289 -166q-133 0 -206 88t-73 238v796h316v-772q0 -117 82 -116q80 0 143 118v770h315v-1087zM424 1507q45 -45 45 -112q0 -68 -45 -114t-112 -46q-66 0 -112 46t-46 114q0 66 46 111.5t112 45.5q67 0 112 -45zM859.5 1507 q46.5 -45 46.5 -112q0 -68 -45.5 -114t-114.5 -46q-66 0 -112 46t-46 114q0 66 46 111.5t112 45.5q67 0 113.5 -45zM816 1645h-574v215h574v-215z" />
<glyph unicode="&#x1d7;" horiz-adv-x="1202" d="M1112 438q0 -135 -57.5 -242.5t-172 -169t-280.5 -61.5q-250 0 -380 129t-130 344v981h328v-968q0 -123 43 -181.5t139 -58.5t138 58.5t42 181.5v968h330v-981zM740 2234l178 -161l-307 -293l-121 104zM484 1804q45 -45 45 -112q0 -68 -45 -114t-113 -46t-113 46t-45 114 q0 66 45.5 111.5t112.5 45.5q68 0 113 -45zM947 1803q45 -46 45 -111q0 -68 -45 -114t-113 -46t-114 46t-46 114q0 66 46 111.5t114 45.5t113 -46z" />
<glyph unicode="&#x1d8;" horiz-adv-x="1062" d="M954 0h-274l-14 131q-106 -166 -289 -166q-133 0 -206 88t-73 238v796h316v-772q0 -117 82 -116q80 0 143 118v770h315v-1087zM666 1937l178 -161l-307 -293l-121 104zM410 1505q45 -45 45 -112q0 -68 -45 -114t-113 -46t-113 46t-45 114q0 66 45.5 111.5t112.5 45.5 q68 0 113 -45zM873 1504q45 -46 45 -111q0 -68 -45 -114t-113 -46t-114 46t-46 114q0 66 46 111.5t114 45.5t113 -46z" />
<glyph unicode="&#x1d9;" horiz-adv-x="1202" d="M1112 438q0 -135 -57.5 -242.5t-172 -169t-280.5 -61.5q-250 0 -380 129t-130 344v981h328v-968q0 -123 43 -181.5t139 -58.5t138 58.5t42 181.5v968h330v-981zM849 2236l109 -120l-262 -267h-191l-262 267l111 120l248 -170zM483 1803q45 -46 45 -111q0 -68 -45 -114 t-113 -46t-114 46t-46 114q0 66 46.5 111.5t113.5 45.5q68 0 113 -46zM944 1803q45 -46 45 -111q0 -68 -45 -114t-113 -46t-113 46t-45 114q0 66 45 111.5t113 45.5t113 -46z" />
<glyph unicode="&#x1da;" horiz-adv-x="1062" d="M954 0h-274l-14 131q-106 -166 -289 -166q-133 0 -206 88t-73 238v796h316v-772q0 -117 82 -116q80 0 143 118v770h315v-1087zM776 1937l109 -120l-262 -267h-191l-262 267l111 120l248 -170zM410 1505q45 -45 45 -112q0 -68 -45 -114t-113 -46t-113 46t-45 114 q0 66 45.5 111.5t112.5 45.5q68 0 113 -45zM871 1505q45 -45 45 -112q0 -68 -45 -114t-113 -46q-66 0 -112 46t-46 114q0 66 46 111.5t112 45.5q68 0 113 -45z" />
<glyph unicode="&#x1db;" horiz-adv-x="1202" d="M1112 438q0 -135 -57.5 -242.5t-172 -169t-280.5 -61.5q-250 0 -380 129t-130 344v981h328v-968q0 -123 43 -181.5t139 -58.5t138 58.5t42 181.5v968h330v-981zM478 2234l252 -350l-123 -104l-308 293zM484 1804q45 -45 45 -112q0 -68 -45 -114t-113 -46q-66 0 -112 46 t-46 114q0 66 46.5 111.5t111.5 45.5q68 0 113 -45zM947 1803q45 -46 45 -111q0 -68 -45 -114t-113 -46t-114 46t-46 114q0 66 46 111.5t114 45.5t113 -46z" />
<glyph unicode="&#x1dc;" horiz-adv-x="1062" d="M954 0h-274l-14 131q-106 -166 -289 -166q-133 0 -206 88t-73 238v796h316v-772q0 -117 82 -116q80 0 143 118v770h315v-1087zM397 1937l252 -350l-122 -104l-308 293zM410 1505q45 -45 45 -112q0 -68 -45 -114t-113 -46q-66 0 -112 46t-46 114q0 66 46.5 111.5 t111.5 45.5q68 0 113 -45zM873 1504q45 -46 45 -111q0 -68 -45 -114t-113 -46t-114 46t-46 114q0 66 46 111.5t114 45.5t113 -46z" />
<glyph unicode="&#x1dd;" horiz-adv-x="1042" d="M864 970.5q119 -151.5 119 -425.5q0 -266 -123 -423t-350 -157q-215 0 -338 142.5t-123 414.5q0 66 6 115h627q-6 139 -53 199.5t-137 60.5q-68 0 -126.5 -19.5t-123.5 -66.5l-127 172q162 139 389 139q241 0 360 -151.5zM635 244.5q41 56.5 49 201.5h-342v-16 q2 -242 170 -242q82 0 123 56.5z" />
<glyph unicode="&#x1de;" d="M797 0l-64 309h-360l-64 -309h-332l383 1419h394l381 -1419h-338zM422 545h262l-131 635zM450 1798q45 -45 45 -112q0 -68 -45 -114t-112 -46q-66 0 -112 46t-46 114q0 66 46 111.5t112 45.5q67 0 112 -45zM885.5 1798q46.5 -45 46.5 -112q0 -68 -45.5 -114t-114.5 -46 q-66 0 -112 46t-46 114q0 66 46 111.5t112 45.5q67 0 113.5 -45zM846 1930h-574v215h574v-215z" />
<glyph unicode="&#x1df;" horiz-adv-x="1017" d="M921.5 219.5q14.5 -26.5 49.5 -41.5l-66 -207q-94 8 -153.5 43t-92.5 109q-100 -158 -292 -158q-147 0 -234.5 93.5t-87.5 246.5q0 178 120 272.5t347 94.5h86v51q0 96 -35 134t-123 38q-100 0 -256 -55l-71 202q90 39 192.5 59.5t190.5 20.5q211 0 311 -94t100 -287 v-440q0 -55 14.5 -81.5zM539.5 217q35.5 27 58.5 76v203h-57q-96 0 -141.5 -40t-45.5 -124q0 -70 28 -106t79 -36q43 0 78.5 27zM399 1507q45 -45 45 -112q0 -68 -45 -114t-112 -46q-66 0 -112 46t-46 114q0 66 46 111.5t112 45.5q67 0 112 -45zM834.5 1507 q46.5 -45 46.5 -112q0 -68 -45.5 -114t-114.5 -46q-66 0 -112 46t-46 114q0 66 46 111.5t112 45.5q67 0 113.5 -45zM791 1645h-574v215h574v-215z" />
<glyph unicode="&#x1e0;" d="M797 0l-64 309h-360l-64 -309h-332l383 1419h394l381 -1419h-338zM422 545h262l-131 635zM687.5 1816.5q52.5 -51.5 52.5 -126.5q0 -78 -52.5 -129.5t-132.5 -51.5t-131 51.5t-51 129.5q0 76 51 127t131 51t132.5 -51.5zM844 1930h-574v215h574v-215z" />
<glyph unicode="&#x1e1;" horiz-adv-x="1017" d="M921.5 219.5q14.5 -26.5 49.5 -41.5l-66 -207q-94 8 -153.5 43t-92.5 109q-100 -158 -292 -158q-147 0 -234.5 93.5t-87.5 246.5q0 178 120 272.5t347 94.5h86v51q0 96 -35 134t-123 38q-100 0 -256 -55l-71 202q90 39 192.5 59.5t190.5 20.5q211 0 311 -94t100 -287 v-440q0 -55 14.5 -81.5zM539.5 217q35.5 27 58.5 76v203h-57q-96 0 -141.5 -40t-45.5 -124q0 -70 28 -106t79 -36q43 0 78.5 27zM634.5 1525.5q52.5 -51.5 52.5 -126.5q0 -78 -52.5 -129.5t-132.5 -51.5t-131 51.5t-51 129.5q0 76 51 127t131 51t132.5 -51.5zM791 1649h-574 v215h574v-215z" />
<glyph unicode="&#x1e2;" horiz-adv-x="1568" d="M1092 238h428v-238h-703l-43 309h-379l-90 -309h-350l502 1419h995l-35 -233h-485l59 -352h443v-232h-404zM465 547h274l-90 633zM1184 1604h-574v215h574v-215z" />
<glyph unicode="&#x1e3;" horiz-adv-x="1589" d="M1534 451h-604q12 -141 65.5 -197.5t149.5 -56.5q55 0 109.5 22.5t119.5 69.5l129 -172q-166 -152 -387 -152q-131 0 -230.5 48t-162.5 134q-127 -182 -344 -182q-154 0 -244 94.5t-90 245.5q0 174 123 267.5t356 93.5h86v53q0 98 -34.5 136t-122.5 38q-100 0 -256 -55 l-70 204q193 80 375 80q111 0 182.5 -34.5t116.5 -102.5q117 137 305 137q199 0 316.5 -145.5t117.5 -411.5q0 -65 -6 -114zM1235 655q0 256 -150 256q-72 0 -110.5 -61.5t-46.5 -208.5h307v14zM641 324q-23 78 -25 161v2h-61q-94 0 -139 -38.5t-45 -122.5q0 -135 104 -136 q92 1 166 134zM1082 1346h-574v215h574v-215z" />
<glyph unicode="&#x1e4;" horiz-adv-x="1243" d="M1249 360h-125v-247q-100 -70 -223 -109t-250 -39q-297 0 -443.5 186.5t-146.5 559.5q0 238 82 405.5t222.5 252.5t318.5 85q256 0 436 -174l-162 -170q-68 55 -126 79.5t-132 24.5q-299 0 -299 -503q0 -190 27 -300t81 -157t142 -47q94 0 189 47v106h-191v183h191v100 h-189l-26 203h499v-303h125v-183z" />
<glyph unicode="&#x1e5;" horiz-adv-x="1017" d="M1104 -178h-111q-31 -129 -162 -202t-350 -73q-270 0 -374.5 88.5t-104.5 260.5h283q0 -55 16 -87t61.5 -46.5t131.5 -14.5q98 0 151 17.5t74 56.5h-215v135h211q-39 61 -172 61h-117q-166 0 -243 52.5t-77 142.5q0 59 33 110.5t88 90.5q-94 55 -136 128.5t-42 182.5 q0 184 122 290.5t327 104.5q143 -2 239.5 32t212.5 101l74 -229q-94 -41 -281 -41q98 -45 144.5 -111.5t46.5 -171.5q0 -104 -51.5 -187t-146.5 -129t-224 -46q-61 0 -111 12q-35 -23 -34 -65q0 -33 23.5 -49.5t86.5 -16.5h133q164 0 266.5 -71.5t122.5 -190.5h105v-135z M360 729q0 -94 36 -141t102 -47q68 0 102.5 46t34.5 146q0 94 -34 137t-103 43q-138 0 -138 -184z" />
<glyph unicode="&#x1e6;" horiz-adv-x="1208" d="M1120 1280l-159 -168q-70 55 -128.5 80t-132.5 25q-143 0 -221 -118t-78 -388q0 -195 27 -304.5t80 -154.5t141 -45q92 0 164 45v332h-158l-30 231h499v-702q-100 -70 -223 -109t-246 -39q-301 0 -447.5 185.5t-146.5 560.5q0 242 82 409.5t223.5 250.5t319.5 83 q250 0 434 -174zM903 1923l109 -121l-263 -266h-190l-262 266l110 121l248 -170z" />
<glyph unicode="&#x1e7;" horiz-adv-x="1017" d="M1024 1024q-94 -41 -281 -41q98 -45 144.5 -111.5t46.5 -171.5q0 -104 -51.5 -187t-146.5 -129t-224 -46q-61 0 -111 12q-35 -23 -34 -65q0 -33 23.5 -51.5t86.5 -18.5h133q180 0 287 -87t107 -224q0 -166 -135.5 -261.5t-387.5 -95.5q-270 0 -374.5 88.5t-104.5 260.5 h283q0 -76 41 -109t159 -33q113 0 158 34t45 93q0 115 -145 115h-117q-164 0 -242 58.5t-78 154.5q0 59 33 112.5t88 92.5q-94 55 -136 128.5t-42 182.5q0 184 122 290.5t327 104.5q143 -2 239.5 32t212.5 101zM360 729q0 -94 36 -141t102 -47q68 0 102.5 46t34.5 146 q0 94 -34 137t-103 43q-138 0 -138 -184zM760 1659l109 -123l-263 -283h-190l-262 283l110 123l248 -189z" />
<glyph unicode="&#x1e8;" horiz-adv-x="1189" d="M440 1419v-1419h-327v1419h327zM1182 1419l-398 -637l430 -782h-366l-397 758l397 661h334zM860 1923l109 -121l-263 -266h-190l-262 266l110 121l248 -170z" />
<glyph unicode="&#x1e9;" horiz-adv-x="1042" d="M422 1552v-1552h-316v1520zM1036 1087l-291 -477l314 -610h-344l-283 594l295 493h309zM807 2023l109 -121l-263 -266h-190l-262 266l110 121l248 -170z" />
<glyph unicode="&#x1ea;" horiz-adv-x="1290" d="M1133.5 247q-95.5 -181 -275.5 -247q-123 -51 -169 -103.5t-46 -107.5q0 -94 96 -94q39 0 111 14l-21 -194q-61 -16 -129 -17q-125 0 -203.5 63.5t-78.5 172.5q0 139 123 239q-231 33 -355.5 220.5t-124.5 517.5q0 358 153 550.5t431 192.5q281 0 432.5 -189.5 t151.5 -553.5q0 -283 -95.5 -464zM828.5 320.5q58.5 115.5 58.5 390.5q0 270 -58.5 386.5t-183.5 116.5t-183.5 -116.5t-58.5 -386.5q0 -274 59.5 -390t182.5 -116q125 0 183.5 115.5z" />
<glyph unicode="&#x1eb;" horiz-adv-x="1093" d="M564 -107.5q-42 -50.5 -42 -103.5q0 -94 96 -94q39 0 111 14l-20 -194q-61 -16 -129 -17q-125 0 -204 63.5t-79 172.5q0 145 129 243q-174 35 -270.5 180.5t-96.5 387.5q0 272 130 424.5t358 152.5q229 0 359 -148.5t130 -430.5q0 -213 -83 -355.5t-232 -193.5 q-115 -51 -157 -101.5zM424 809q-39 -80 -39 -264q0 -188 39 -268t123 -80t124 80.5t40 265.5q0 188 -39 267t-125 79q-84 0 -123 -80z" />
<glyph unicode="&#x1ec;" horiz-adv-x="1290" d="M932 1819v-215h-574v215h574zM1133.5 247q-95.5 -181 -275.5 -247q-123 -51 -169 -103.5t-46 -107.5q0 -94 96 -94q39 0 111 14l-21 -194q-61 -16 -129 -17q-125 0 -203.5 63.5t-78.5 172.5q0 139 123 239q-231 33 -355.5 220.5t-124.5 517.5q0 358 153 550.5t431 192.5 q281 0 432.5 -189.5t151.5 -553.5q0 -283 -95.5 -464zM828.5 320.5q58.5 115.5 58.5 390.5q0 270 -58.5 386.5t-183.5 116.5t-183.5 -116.5t-58.5 -386.5q0 -274 59.5 -390t182.5 -116q125 0 183.5 115.5z" />
<glyph unicode="&#x1ed;" horiz-adv-x="1093" d="M834 1561v-215h-574v215h574zM564 -107.5q-42 -50.5 -42 -103.5q0 -94 96 -94q39 0 111 14l-20 -194q-61 -16 -129 -17q-125 0 -204 63.5t-79 172.5q0 145 129 243q-174 35 -270.5 180.5t-96.5 387.5q0 272 130 424.5t358 152.5q229 0 359 -148.5t130 -430.5 q0 -213 -83 -355.5t-232 -193.5q-115 -51 -157 -101.5zM424 809q-39 -80 -39 -264q0 -188 39 -268t123 -80t124 80.5t40 265.5q0 188 -39 267t-125 79q-84 0 -123 -80z" />
<glyph unicode="&#x1ee;" horiz-adv-x="1013" d="M871.5 710.5q103.5 -104.5 103.5 -290.5q0 -131 -61.5 -233.5t-178.5 -162t-278 -59.5q-154 0 -263.5 53.5t-189.5 155.5l170 156q63 -63 122.5 -92t137.5 -29q96 0 149.5 58.5t53.5 164.5t-56.5 153.5t-168.5 47.5h-179v184l330 365h-483v237h827v-231l-336 -365 q197 -8 300.5 -112.5zM741 1923l109 -121l-263 -266h-190l-262 266l110 121l248 -170z" />
<glyph unicode="&#x1ef;" horiz-adv-x="948" d="M920 18q0 -135 -60.5 -242.5t-174.5 -168t-269 -60.5q-287 0 -445 207l166 158q68 -68 126.5 -96.5t131.5 -28.5q96 0 148.5 61.5t52.5 184.5q0 115 -55.5 165t-171.5 50h-168v184l315 420h-469v235h811v-217l-340 -438q402 -29 402 -414zM700 1659l109 -123l-263 -283 h-190l-262 283l110 123l248 -189z" />
<glyph unicode="&#x1f0;" horiz-adv-x="530" d="M422 98q0 -158 -51.5 -263t-140.5 -169.5t-220 -118.5l-104 230q72 39 112.5 73.5t64 90t23.5 145.5v1001h316v-989zM512 1659l109 -123l-263 -283h-190l-262 283l110 123l248 -189z" />
<glyph unicode="&#x1f1;" horiz-adv-x="2174" d="M828.5 1364q146.5 -55 236.5 -211t90 -436q0 -397 -176 -557t-467 -160h-399v1419h372q197 0 343.5 -55zM440 1182v-944h92q94 0 156 40.5t95.5 146t33.5 292.5q0 186 -34.5 288.5t-97 139.5t-155.5 37h-90zM2123 1419v-248l-559 -909h572l-33 -262h-907v246l563 919 h-510v254h874z" />
<glyph unicode="&#x1f2;" horiz-adv-x="2054" d="M828.5 1364q146.5 -55 236.5 -211t90 -436q0 -397 -176 -557t-467 -160h-399v1419h372q197 0 343.5 -55zM440 1182v-944h92q94 0 156 40.5t95.5 146t33.5 292.5q0 186 -34.5 288.5t-97 139.5t-155.5 37h-90zM2017 1087v-223l-444 -624h454l-28 -240h-778v223l444 627 h-408v237h760z" />
<glyph unicode="&#x1f3;" horiz-adv-x="1972" d="M1008 1520v-1520h-279l-14 121q-104 -156 -277 -156q-182 0 -278.5 152.5t-96.5 427.5q0 172 50.5 303t141.5 202.5t210 71.5q137 0 227 -100v530zM622.5 224.5q36.5 27.5 69.5 84.5v494q-33 45 -64.5 66.5t-74.5 21.5q-164 0 -164 -346q0 -195 39 -271.5t111 -76.5 q47 0 83.5 27.5zM1935 1087v-223l-444 -624h454l-28 -240h-778v223l444 627h-408v237h760z" />
<glyph unicode="&#x1f4;" horiz-adv-x="1208" d="M1120 1280l-159 -168q-70 55 -128.5 80t-132.5 25q-143 0 -221 -118t-78 -388q0 -195 27 -304.5t80 -154.5t141 -45q92 0 164 45v332h-158l-30 231h499v-702q-100 -70 -223 -109t-246 -39q-301 0 -447.5 185.5t-146.5 560.5q0 242 82 409.5t223.5 250.5t319.5 83 q250 0 434 -174zM801 1946l119 -232l-449 -176l-80 158z" />
<glyph unicode="&#x1f5;" horiz-adv-x="1017" d="M1024 1024q-94 -41 -281 -41q98 -45 144.5 -111.5t46.5 -171.5q0 -104 -51.5 -187t-146.5 -129t-224 -46q-61 0 -111 12q-35 -23 -34 -65q0 -33 23.5 -51.5t86.5 -18.5h133q180 0 287 -87t107 -224q0 -166 -135.5 -261.5t-387.5 -95.5q-270 0 -374.5 88.5t-104.5 260.5 h283q0 -76 41 -109t159 -33q113 0 158 34t45 93q0 115 -145 115h-117q-164 0 -242 58.5t-78 154.5q0 59 33 112.5t88 92.5q-94 55 -136 128.5t-42 182.5q0 184 122 290.5t327 104.5q143 -2 239.5 32t212.5 101zM360 729q0 -94 36 -141t102 -47q68 0 102.5 46t34.5 146 q0 94 -34 137t-103 43q-138 0 -138 -184zM641 1700l123 -232l-445 -192l-86 156z" />
<glyph unicode="&#x1f6;" horiz-adv-x="1759" d="M1671.5 798q14.5 -134 14.5 -282q0 -195 -69 -318.5t-178.5 -178t-240.5 -54.5q-178 0 -290.5 97.5t-112.5 283.5v264h-355v-610h-327v1419h327v-553h355v553h327v-1077q0 -76 24.5 -109.5t74.5 -33.5q150 0 149 336q0 240 -47 552h309q25 -155 39.5 -289z" />
<glyph unicode="&#x1f7;" horiz-adv-x="1114" d="M907 1406q82 -48 129 -138t47 -209q0 -158 -65.5 -267.5t-174 -181t-270.5 -139.5l-133 -55v-416h-327v1419h327v-82q117 117 287 117q98 0 180 -48zM688.5 829q59.5 86 59.5 211q0 90 -37 133.5t-103 43.5q-96 0 -168 -76v-496l64 31q125 67 184.5 153z" />
<glyph unicode="&#x1f8;" horiz-adv-x="1226" d="M1114 0h-409l-349 1114q4 -25 4 -41q18 -147 28.5 -267t10.5 -278v-528h-286v1419h405l354 -1116q-45 266 -45 531v585h287v-1419zM469 1944l410 -250l-80 -156l-449 174z" />
<glyph unicode="&#x1f9;" horiz-adv-x="1073" d="M900 1037q73 -85 73 -232v-805h-316v762q0 68 -19.5 95.5t-57.5 27.5q-41 0 -79 -34t-79 -99v-752h-316v1087h277l23 -129q59 82 130.5 123t163.5 41q127 0 200 -85zM420 1700l408 -268l-86 -156l-445 192z" />
<glyph unicode="&#x1fa;" d="M797 0l-64 309h-360l-64 -309h-332l383 1419h394l381 -1419h-338zM422 545h262l-131 635zM750 1932q72 -75 72 -190t-72 -190.5t-193 -75.5t-193.5 76t-72.5 190q0 115 73 190t193 75q121 0 193 -75zM475 1742q0 -106 82 -106q80 0 80 106q0 104 -80 105q-82 -1 -82 -105 zM701 2427l119 -232l-449 -176l-80 158z" />
<glyph unicode="&#x1fb;" horiz-adv-x="1017" d="M768 1903l-449 -177l-79 158l409 250zM310.5 1257.5q-72.5 75.5 -72.5 190.5t72.5 189.5t193.5 74.5t192.5 -74.5t71.5 -189.5t-71.5 -190.5t-192.5 -75.5t-193.5 75.5zM422 1448q0 -106 82 -107q80 0 80 107q0 104 -80 104q-82 0 -82 -104zM921.5 219.5 q14.5 -26.5 49.5 -41.5l-66 -207q-94 8 -153.5 43t-92.5 109q-100 -158 -292 -158q-147 0 -234.5 93.5t-87.5 246.5q0 178 120 272.5t347 94.5h86v51q0 96 -35 134t-123 38q-100 0 -256 -55l-71 202q90 39 192.5 59.5t190.5 20.5q211 0 311 -94t100 -287v-440 q0 -55 14.5 -81.5zM539.5 217q35.5 27 58.5 76v203h-57q-96 0 -141.5 -40t-45.5 -124q0 -70 28 -106t79 -36q43 0 78.5 27z" />
<glyph unicode="&#x1fc;" horiz-adv-x="1568" d="M1092 238h428v-238h-703l-43 309h-379l-90 -309h-350l502 1419h995l-35 -233h-485l59 -352h443v-232h-404zM465 547h274l-90 633zM1043 1946l119 -232l-449 -176l-80 158z" />
<glyph unicode="&#x1fd;" horiz-adv-x="1589" d="M1534 451h-604q12 -141 65.5 -197.5t149.5 -56.5q55 0 109.5 22.5t119.5 69.5l129 -172q-166 -152 -387 -152q-131 0 -230.5 48t-162.5 134q-127 -182 -344 -182q-154 0 -244 94.5t-90 245.5q0 174 123 267.5t356 93.5h86v53q0 98 -34.5 136t-122.5 38q-100 0 -256 -55 l-70 204q193 80 375 80q111 0 182.5 -34.5t116.5 -102.5q117 137 305 137q199 0 316.5 -145.5t117.5 -411.5q0 -65 -6 -114zM1235 655q0 256 -150 256q-72 0 -110.5 -61.5t-46.5 -208.5h307v14zM641 324q-23 78 -25 161v2h-61q-94 0 -139 -38.5t-45 -122.5q0 -135 104 -136 q92 1 166 134zM924 1700l123 -232l-445 -192l-86 156z" />
<glyph unicode="&#x1fe;" horiz-adv-x="1290" d="M1160.5 1120q68.5 -166 68.5 -409q0 -358 -152.5 -552t-431.5 -194q-31 0 -80 4l-67 -243l-242 65l74 258q-131 86 -200 252t-69 410q0 358 153 550.5t431 192.5q31 0 80 -4l68 244l243 -66l-75 -258q131 -84 199.5 -250zM453.5 1101q-60.5 -116 -60.5 -390 q0 -303 66 -418l235 919q-29 4 -49 5q-131 0 -191.5 -116zM789.5 252q54.5 49 80 159.5t27.5 299.5q0 297 -66 409l-235 -915q16 -2 49 -2q90 0 144.5 49zM789 2014l119 -232l-449 -176l-80 158z" />
<glyph unicode="&#x1ff;" horiz-adv-x="1093" d="M981 849q55 -126 55 -306q0 -270 -131 -424t-358 -154q-35 0 -53 2l-68 -241l-227 63l73 254q-102 70 -157.5 197t-55.5 305q0 272 130 424.5t358 152.5q39 0 57 -2l72 244l227 -66l-80 -254q103 -69 158 -195zM398 812q-48 -81 -48 -267q0 -205 45 -283l176 631h-24 q-101 0 -149 -81zM696 274.5q49 81.5 49 268.5q0 201 -45 278l-176 -628h23q100 0 149 81.5zM676 1700l123 -232l-445 -192l-86 156z" />
<glyph unicode="&#x200;" d="M797 0l-64 309h-360l-64 -309h-332l383 1419h394l381 -1419h-338zM422 545h262l-131 635zM309 2013l182 -399l-155 -74l-230 369zM641 2013l166 -399l-158 -66l-213 367z" />
<glyph unicode="&#x201;" horiz-adv-x="1017" d="M921.5 219.5q14.5 -26.5 49.5 -41.5l-66 -207q-94 8 -153.5 43t-92.5 109q-100 -158 -292 -158q-147 0 -234.5 93.5t-87.5 246.5q0 178 120 272.5t347 94.5h86v51q0 96 -35 134t-123 38q-100 0 -256 -55l-71 202q90 39 192.5 59.5t190.5 20.5q211 0 311 -94t100 -287 v-440q0 -55 14.5 -81.5zM539.5 217q35.5 27 58.5 76v203h-57q-96 0 -141.5 -40t-45.5 -124q0 -70 28 -106t79 -36q43 0 78.5 27zM279 1755l182 -399l-155 -74l-230 369zM611 1755l166 -399l-158 -66l-213 367z" />
<glyph unicode="&#x202;" d="M797 0l-64 309h-360l-64 -309h-332l383 1419h394l381 -1419h-338zM422 545h262l-131 635zM786 1850.5q84 -95.5 95 -252.5l-170 -31q-16 78 -55.5 120t-100.5 42q-117 0 -154 -162l-170 31q10 158 93 253t231 95q147 0 231 -95.5z" />
<glyph unicode="&#x203;" horiz-adv-x="1017" d="M921.5 219.5q14.5 -26.5 49.5 -41.5l-66 -207q-94 8 -153.5 43t-92.5 109q-100 -158 -292 -158q-147 0 -234.5 93.5t-87.5 246.5q0 178 120 272.5t347 94.5h86v51q0 96 -35 134t-123 38q-100 0 -256 -55l-71 202q90 39 192.5 59.5t190.5 20.5q211 0 311 -94t100 -287 v-440q0 -55 14.5 -81.5zM539.5 217q35.5 27 58.5 76v203h-57q-96 0 -141.5 -40t-45.5 -124q0 -70 28 -106t79 -36q43 0 78.5 27zM733 1518.5q84 -95.5 95 -252.5l-170 -31q-16 78 -55.5 120t-100.5 42q-117 0 -154 -162l-170 31q10 158 93 253t231 95q147 0 231 -95.5z" />
<glyph unicode="&#x204;" horiz-adv-x="970" d="M915 1419l-34 -233h-441v-350h385v-230h-385v-368h471v-238h-798v1419h802zM268 2013l182 -399l-155 -74l-230 369zM600 2013l166 -399l-158 -66l-213 367z" />
<glyph unicode="&#x205;" horiz-adv-x="1038" d="M983 451h-606q12 -143 63.5 -198.5t145.5 -55.5q61 0 116.5 22.5t120.5 69.5l129 -174q-168 -150 -391 -150q-246 0 -374 152.5t-128 421.5q0 262 123 422.5t346 160.5q215 0 338 -144t123 -413q0 -65 -6 -114zM680 655q0 129 -34 193.5t-114 64.5q-72 0 -110.5 -60 t-46.5 -212h305v14zM307 1755l182 -399l-155 -74l-230 369zM639 1755l166 -399l-158 -66l-213 367z" />
<glyph unicode="&#x206;" horiz-adv-x="970" d="M915 1419l-34 -233h-441v-350h385v-230h-385v-368h471v-238h-798v1419h802zM745 1850.5q84 -95.5 95 -252.5l-170 -31q-16 78 -55.5 120t-100.5 42q-117 0 -154 -162l-170 31q10 158 93 253t231 95q147 0 231 -95.5z" />
<glyph unicode="&#x207;" horiz-adv-x="1038" d="M983 451h-606q12 -143 63.5 -198.5t145.5 -55.5q61 0 116.5 22.5t120.5 69.5l129 -174q-168 -150 -391 -150q-246 0 -374 152.5t-128 421.5q0 262 123 422.5t346 160.5q215 0 338 -144t123 -413q0 -65 -6 -114zM680 655q0 129 -34 193.5t-114 64.5q-72 0 -110.5 -60 t-46.5 -212h305v14zM762 1518.5q84 -95.5 95 -252.5l-170 -31q-16 78 -55.5 120t-100.5 42q-117 0 -154 -162l-170 31q10 158 93 253t231 95q147 0 231 -95.5z" />
<glyph unicode="&#x208;" horiz-adv-x="550" d="M440 1419v-1419h-327v1419h327zM27 2013l182 -399l-155 -74l-230 369zM359 2013l166 -399l-158 -66l-213 367z" />
<glyph unicode="&#x209;" horiz-adv-x="530" d="M422 1087v-1087h-316v1087h316zM39 1755l182 -399l-155 -74l-230 369zM371 1755l166 -399l-158 -66l-213 367z" />
<glyph unicode="&#x20a;" horiz-adv-x="550" d="M440 1419v-1419h-327v1419h327zM503 1850.5q84 -95.5 95 -252.5l-170 -31q-16 78 -55.5 120t-100.5 42q-117 0 -154 -162l-170 31q10 158 93 253t231 95q147 0 231 -95.5z" />
<glyph unicode="&#x20b;" horiz-adv-x="530" d="M422 1087v-1087h-316v1087h316zM493 1518.5q84 -95.5 95 -252.5l-170 -31q-16 78 -55.5 120t-100.5 42q-117 0 -154 -162l-170 31q10 158 93 253t231 95q147 0 231 -95.5z" />
<glyph unicode="&#x20c;" horiz-adv-x="1290" d="M1077.5 1264.5q151.5 -189.5 151.5 -553.5q0 -360 -152.5 -553t-431.5 -193t-431.5 190.5t-152.5 555.5q0 358 153 550.5t431 192.5q281 0 432.5 -189.5zM461.5 1097.5q-58.5 -116.5 -58.5 -386.5q0 -274 59.5 -390t182.5 -116q125 0 183.5 115.5t58.5 390.5 q0 270 -58.5 386.5t-183.5 116.5t-183.5 -116.5zM397 2013l182 -399l-155 -74l-230 369zM729 2013l166 -399l-158 -66l-213 367z" />
<glyph unicode="&#x20d;" horiz-adv-x="1093" d="M906 973.5q130 -148.5 130 -430.5q0 -270 -131 -424t-358 -154q-229 0 -358.5 149.5t-129.5 430.5q0 272 130 424.5t358 152.5q229 0 359 -148.5zM424 809q-39 -80 -39 -264q0 -188 39 -268t123 -80t124 80.5t40 265.5q0 188 -39 267t-125 79q-84 0 -123 -80zM322 1755 l182 -399l-155 -74l-230 369zM654 1755l166 -399l-158 -66l-213 367z" />
<glyph unicode="&#x20e;" horiz-adv-x="1290" d="M1077.5 1264.5q151.5 -189.5 151.5 -553.5q0 -360 -152.5 -553t-431.5 -193t-431.5 190.5t-152.5 555.5q0 358 153 550.5t431 192.5q281 0 432.5 -189.5zM461.5 1097.5q-58.5 -116.5 -58.5 -386.5q0 -274 59.5 -390t182.5 -116q125 0 183.5 115.5t58.5 390.5 q0 270 -58.5 386.5t-183.5 116.5t-183.5 -116.5zM874 1850.5q84 -95.5 95 -252.5l-170 -31q-16 78 -55.5 120t-100.5 42q-117 0 -154 -162l-170 31q10 158 93 253t231 95q147 0 231 -95.5z" />
<glyph unicode="&#x20f;" horiz-adv-x="1093" d="M906 973.5q130 -148.5 130 -430.5q0 -270 -131 -424t-358 -154q-229 0 -358.5 149.5t-129.5 430.5q0 272 130 424.5t358 152.5q229 0 359 -148.5zM424 809q-39 -80 -39 -264q0 -188 39 -268t123 -80t124 80.5t40 265.5q0 188 -39 267t-125 79q-84 0 -123 -80zM776 1518.5 q84 -95.5 95 -252.5l-170 -31q-16 78 -55.5 120t-100.5 42q-117 0 -154 -162l-170 31q10 158 93 253t231 95q147 0 231 -95.5z" />
<glyph unicode="&#x210;" horiz-adv-x="1150" d="M547 545h-107v-545h-327v1419h415q279 0 416 -107.5t137 -322.5q0 -272 -239 -383l321 -606h-358zM440 772h101q106 0 155 52.5t49 164.5q0 102 -53 150.5t-168 48.5h-84v-416zM315 2013l182 -399l-155 -74l-230 369zM647 2013l166 -399l-158 -66l-213 367z" />
<glyph unicode="&#x211;" horiz-adv-x="749" d="M758 1102l-51 -303q-43 12 -86 12q-84 0 -129.5 -64.5t-69.5 -191.5v-555h-316v1087h277l25 -190q37 106 102 163.5t154 57.5q53 0 94 -16zM209 1755l182 -399l-155 -74l-230 369zM541 1755l166 -399l-158 -66l-213 367z" />
<glyph unicode="&#x212;" horiz-adv-x="1150" d="M547 545h-107v-545h-327v1419h415q279 0 416 -107.5t137 -322.5q0 -272 -239 -383l321 -606h-358zM440 772h101q106 0 155 52.5t49 164.5q0 102 -53 150.5t-168 48.5h-84v-416zM792 1850.5q84 -95.5 95 -252.5l-170 -31q-16 78 -55.5 120t-100.5 42q-117 0 -154 -162 l-170 31q10 158 93 253t231 95q147 0 231 -95.5z" />
<glyph unicode="&#x213;" horiz-adv-x="749" d="M758 1102l-51 -303q-43 12 -86 12q-84 0 -129.5 -64.5t-69.5 -191.5v-555h-316v1087h277l25 -190q37 106 102 163.5t154 57.5q53 0 94 -16zM663 1518.5q84 -95.5 95 -252.5l-170 -31q-16 78 -55.5 120t-100.5 42q-117 0 -154 -162l-170 31q10 158 93 253t231 95 q147 0 231 -95.5z" />
<glyph unicode="&#x214;" horiz-adv-x="1202" d="M1112 438q0 -135 -57.5 -242.5t-172 -169t-280.5 -61.5q-250 0 -380 129t-130 344v981h328v-968q0 -123 43 -181.5t139 -58.5t138 58.5t42 181.5v968h330v-981zM354 2013l182 -399l-155 -74l-230 369zM686 2013l166 -399l-158 -66l-213 367z" />
<glyph unicode="&#x215;" horiz-adv-x="1062" d="M954 0h-274l-14 131q-106 -166 -289 -166q-133 0 -206 88t-73 238v796h316v-772q0 -117 82 -116q80 0 143 118v770h315v-1087zM303 1755l182 -399l-155 -74l-230 369zM635 1755l166 -399l-158 -66l-213 367z" />
<glyph unicode="&#x216;" horiz-adv-x="1202" d="M1112 438q0 -135 -57.5 -242.5t-172 -169t-280.5 -61.5q-250 0 -380 129t-130 344v981h328v-968q0 -123 43 -181.5t139 -58.5t138 58.5t42 181.5v968h330v-981zM831 1850.5q84 -95.5 95 -252.5l-170 -31q-16 78 -55.5 120t-100.5 42q-117 0 -154 -162l-170 31 q10 158 93 253t231 95q147 0 231 -95.5z" />
<glyph unicode="&#x217;" horiz-adv-x="1062" d="M954 0h-274l-14 131q-106 -166 -289 -166q-133 0 -206 88t-73 238v796h316v-772q0 -117 82 -116q80 0 143 118v770h315v-1087zM757 1518.5q84 -95.5 95 -252.5l-170 -31q-16 78 -55.5 120t-100.5 42q-117 0 -154 -162l-170 31q10 158 93 253t231 95q147 0 231 -95.5z" />
<glyph unicode="&#x218;" horiz-adv-x="1062" d="M789.5 1408q109.5 -46 199.5 -136l-149 -172q-133 115 -273 114q-78 0 -123 -38.5t-45 -106.5q0 -45 20.5 -75.5t72 -59.5t151.5 -66q131 -49 212 -105t124 -140t43 -209q0 -131 -62.5 -232.5t-180 -159t-275.5 -57.5q-297 0 -494 201l160 178q76 -66 152.5 -100.5 t162.5 -34.5q94 0 145.5 49t51.5 131q0 78 -47 125t-178 94q-213 80 -303.5 180.5t-90.5 255.5q0 121 61.5 214.5t169 144.5t243.5 51q143 0 252.5 -46zM637 -183q43 -44 43 -112q0 -39 -10.5 -75t-39.5 -97l-86 -195h-155l53 236q-70 49 -70 131q0 63 44 109.5t110 46.5 q68 0 111 -44z" />
<glyph unicode="&#x219;" horiz-adv-x="897" d="M663.5 1087.5q94.5 -34.5 165.5 -98.5l-114 -172q-123 80 -232 80q-57 0 -87.5 -23.5t-30.5 -64.5q0 -31 15 -52.5t58 -43t129 -51.5q152 -51 224.5 -129t72.5 -211q0 -164 -125 -260.5t-319 -96.5q-125 0 -232.5 43t-183.5 117l150 168q127 -102 254 -103q63 0 99 28 t36 77q0 39 -15.5 63.5t-57.5 47t-130 53.5q-150 51 -218.5 130t-68.5 199q0 94 49.5 170t141.5 120t217 44q108 0 202.5 -34.5zM560 -183q43 -44 43 -112q0 -39 -10.5 -75t-39.5 -97l-86 -195h-155l53 236q-70 49 -70 131q0 63 44 109.5t110 46.5q68 0 111 -44z" />
<glyph unicode="&#x21a;" horiz-adv-x="1003" d="M1006 1419l-35 -250h-305v-1169h-328v1169h-324v250h992zM613 -183q43 -44 43 -112q0 -39 -10.5 -75t-39.5 -97l-86 -195h-155l53 236q-70 49 -70 131q0 63 44 109.5t110 46.5q68 0 111 -44z" />
<glyph unicode="&#x21b;" horiz-adv-x="720" d="M741 51q-55 -41 -127.5 -63.5t-146.5 -22.5q-166 0 -250 94.5t-84 264.5v544h-131v219h131v236l316 37v-273h223l-33 -219h-190v-540q0 -113 86 -113q47 0 102 31zM543 -183q43 -44 43 -112q0 -39 -10.5 -75t-39.5 -97l-86 -195h-155l53 236q-70 49 -70 131 q0 63 44 109.5t110 46.5q68 0 111 -44z" />
<glyph unicode="&#x21c;" horiz-adv-x="964" d="M674.5 1405q101.5 -49 156 -136t54.5 -198q0 -276 -303 -338q168 -18 255 -99t87 -235q0 -217 -192.5 -381.5t-602.5 -248.5l-27 243q188 55 293 114.5t146 127.5t41 160q0 98 -55.5 147t-170.5 49h-129l37 236h98q92 0 140.5 48t48.5 142q0 84 -39 132.5t-121 48.5 q-115 0 -252 -113l-147 164q180 186 444 186q137 0 238.5 -49z" />
<glyph unicode="&#x21d;" horiz-adv-x="894" d="M677.5 1040q110.5 -82 110.5 -227q0 -100 -56 -162.5t-173 -91.5q276 -18 277 -240q0 -180 -188.5 -320t-538.5 -216l-31 207q231 80 331.5 155.5t102.5 180.5q0 57 -31.5 83.5t-95.5 26.5h-164l19 205h88q143 0 143 137q0 125 -123 125q-55 0 -101 -16.5t-104 -50.5 l-141 159q164 127 393 127q172 0 282.5 -82z" />
<glyph unicode="&#x21e;" horiz-adv-x="1232" d="M795 0v610h-355v-610h-327v1419h327v-553h355v553h327v-1419h-327zM866 1923l109 -121l-263 -266h-190l-262 266l110 121l248 -170z" />
<glyph unicode="&#x21f;" horiz-adv-x="1073" d="M900 1037q73 -85 73 -232v-805h-316v762q0 68 -20.5 95.5t-56.5 27.5q-41 0 -79 -34t-79 -99v-752h-316v1520l316 32v-583q57 78 124.5 115.5t153.5 37.5q127 0 200 -85zM782 2023l109 -121l-263 -266h-190l-262 266l110 121l248 -170z" />
<glyph unicode="&#x220;" horiz-adv-x="1210" d="M1025 1353.5q85 -100.5 85 -266.5v-1517h-330v1464q0 92 -27.5 134t-90.5 42t-112.5 -32.5t-109.5 -100.5v-1077h-327v1419h286l23 -129q80 84 164 124t190 40q164 0 249 -100.5z" />
<glyph unicode="&#x221;" horiz-adv-x="1470" d="M1421.5 435.5q63.5 -62.5 63.5 -171.5q0 -147 -100.5 -223t-260.5 -76q-45 0 -88 6l-59 -143l-148 61l56 127q-92 49 -142 136q-117 -186 -305 -187q-182 0 -278.5 152.5t-96.5 427.5q0 172 50.5 303t142.5 202.5t213 71.5q133 0 223 -100v530l316 -32v-1155q0 -31 4 -68 q47 106 105.5 153.5t144.5 47.5q96 0 159.5 -62.5zM694 313q-2 20 -2 60v430q-33 45 -64.5 66.5t-72.5 21.5q-166 0 -166 -346q0 -195 39 -271.5t111 -76.5q89 -1 155 116zM1270 274q0 53 -43 54q-29 0 -50.5 -28t-52.5 -105q14 -2 45 -2q101 -1 101 81z" />
<glyph unicode="&#x222;" horiz-adv-x="1216" d="M1091.5 675q63.5 -93 63.5 -231q0 -131 -66.5 -240.5t-190.5 -174t-290 -64.5t-289.5 62.5t-190.5 171t-67 245.5q0 133 63.5 227.5t182.5 141.5q-172 92 -172 281v325h328v-346q0 -74 32.5 -116t112.5 -42q145 0 146 158v346h327v-325q0 -90 -45 -161t-129 -116 q121 -49 184.5 -142zM763 266.5q50 59.5 50 182.5q0 115 -52 175t-153 60q-100 0 -152.5 -60.5t-52.5 -174.5q0 -242 205 -242q105 0 155 59.5z" />
<glyph unicode="&#x223;" horiz-adv-x="1083" d="M1024 451q0 -141 -56.5 -251t-165 -172.5t-261.5 -62.5q-229 0 -355.5 132t-126.5 352q0 297 220 399q-154 82 -154 270v402h311v-453q0 -131 107 -131q55 0 80.5 32.5t25.5 98.5v453h309v-402q0 -88 -39.5 -155.5t-117.5 -110.5q223 -98 223 -401zM665.5 258 q36.5 59 36.5 203q0 141 -37.5 204.5t-123.5 63.5q-84 0 -122 -63.5t-38 -204.5t39 -201.5t121 -60.5q88 0 124.5 59z" />
<glyph unicode="&#x224;" horiz-adv-x="995" d="M956 1171l-559 -909h557v-346q0 -182 -103 -275.5t-280 -93.5q-160 0 -276 86l108 191q37 -20 65 -29.5t69 -9.5q104 0 104 113v102h-612v246l563 919h-510v254h874v-248z" />
<glyph unicode="&#x225;" horiz-adv-x="845" d="M819 864l-444 -624h438v-330q0 -176 -102.5 -269.5t-272.5 -93.5q-162 0 -274 86l108 183q37 -20 66 -29.5t70 -9.5q106 0 106 112v111h-491v223l444 627h-408v237h760v-223z" />
<glyph unicode="&#x226;" d="M797 0l-64 309h-360l-64 -309h-332l383 1419h394l381 -1419h-338zM422 545h262l-131 635zM687.5 1861.5q52.5 -51.5 52.5 -126.5q0 -78 -52.5 -129.5t-132.5 -51.5t-131 51.5t-51 129.5q0 76 51 127t131 51t132.5 -51.5z" />
<glyph unicode="&#x227;" horiz-adv-x="1017" d="M921.5 219.5q14.5 -26.5 49.5 -41.5l-66 -207q-94 8 -153.5 43t-92.5 109q-100 -158 -292 -158q-147 0 -234.5 93.5t-87.5 246.5q0 178 120 272.5t347 94.5h86v51q0 96 -35 134t-123 38q-100 0 -256 -55l-71 202q90 39 192.5 59.5t190.5 20.5q211 0 311 -94t100 -287 v-440q0 -55 14.5 -81.5zM539.5 217q35.5 27 58.5 76v203h-57q-96 0 -141.5 -40t-45.5 -124q0 -70 28 -106t79 -36q43 0 78.5 27zM634.5 1603.5q52.5 -51.5 52.5 -126.5q0 -78 -52.5 -129.5t-132.5 -51.5t-131 51.5t-51 129.5q0 76 51 127t131 51t132.5 -51.5z" />
<glyph unicode="&#x228;" horiz-adv-x="970" d="M440 238h471v-238h-319v-104q96 -12 145 -62.5t49 -134.5q0 -104 -75.5 -169t-206.5 -65q-125 0 -215 62l71 141q57 -31 119 -30q84 0 84 63q0 37 -42 54.5t-130 17.5l27 227h-305v1419h802l-34 -233h-441v-350h385v-230h-385v-368z" />
<glyph unicode="&#x229;" horiz-adv-x="1038" d="M983 451h-606q12 -143 63.5 -198.5t145.5 -55.5q61 0 116.5 22.5t120.5 69.5l129 -174q-137 -123 -313 -146v-73q96 -12 145.5 -62.5t49.5 -134.5q0 -104 -76 -169t-207 -65q-125 0 -215 62l72 141q57 -31 118 -30q84 0 84 63q0 37 -42 54.5t-130 17.5l25 200 q-199 31 -301.5 179.5t-102.5 386.5q0 262 123 422.5t346 160.5q215 0 338 -144t123 -413q0 -65 -6 -114zM680 655q0 129 -34 193.5t-114 64.5q-72 0 -110.5 -60t-46.5 -212h305v14z" />
<glyph unicode="&#x22a;" horiz-adv-x="1290" d="M1077.5 1264.5q151.5 -189.5 151.5 -553.5q0 -360 -152.5 -553t-431.5 -193t-431.5 190.5t-152.5 555.5q0 358 153 550.5t431 192.5q281 0 432.5 -189.5zM461.5 1097.5q-58.5 -116.5 -58.5 -386.5q0 -274 59.5 -390t182.5 -116q125 0 183.5 115.5t58.5 390.5 q0 270 -58.5 386.5t-183.5 116.5t-183.5 -116.5zM538 1798q45 -45 45 -112q0 -68 -45 -114t-112 -46q-66 0 -112 46t-46 114q0 66 46 111.5t112 45.5q67 0 112 -45zM973.5 1798q46.5 -45 46.5 -112q0 -68 -45.5 -114t-114.5 -46q-66 0 -112 46t-46 114q0 66 46 111.5 t112 45.5q67 0 113.5 -45zM934 1930h-574v215h574v-215z" />
<glyph unicode="&#x22b;" horiz-adv-x="1093" d="M906 973.5q130 -148.5 130 -430.5q0 -270 -131 -424t-358 -154q-229 0 -358.5 149.5t-129.5 430.5q0 272 130 424.5t358 152.5q229 0 359 -148.5zM424 809q-39 -80 -39 -264q0 -188 39 -268t123 -80t124 80.5t40 265.5q0 188 -39 267t-125 79q-84 0 -123 -80zM442 1507 q45 -45 45 -112q0 -68 -45 -114t-112 -46q-66 0 -112 46t-46 114q0 66 46 111.5t112 45.5q67 0 112 -45zM877.5 1507q46.5 -45 46.5 -112q0 -68 -45.5 -114t-114.5 -46q-66 0 -112 46t-46 114q0 66 46 111.5t112 45.5q67 0 113.5 -45zM834 1645h-574v215h574v-215z" />
<glyph unicode="&#x22c;" horiz-adv-x="1290" d="M1077.5 1264.5q151.5 -189.5 151.5 -553.5q0 -360 -152.5 -553t-431.5 -193t-431.5 190.5t-152.5 555.5q0 358 153 550.5t431 192.5q281 0 432.5 -189.5zM461.5 1097.5q-58.5 -116.5 -58.5 -386.5q0 -274 59.5 -390t182.5 -116q125 0 183.5 115.5t58.5 390.5 q0 270 -58.5 386.5t-183.5 116.5t-183.5 -116.5zM687.5 1567q-27.5 12 -70.5 39q-27 18 -42.5 26.5t-33.5 8.5q-31 0 -51.5 -19.5t-46.5 -66.5l-152 71q37 104 100.5 169t143.5 65q41 0 71.5 -13.5t69.5 -39.5q4 -2 20.5 -12.5t29.5 -15.5t26 -5q29 0 50 19.5t46 64.5 l152 -72q-37 -106 -100.5 -168.5t-143.5 -62.5q-41 0 -68.5 12zM932 1934h-574v215h574v-215z" />
<glyph unicode="&#x22d;" horiz-adv-x="1093" d="M906 973.5q130 -148.5 130 -430.5q0 -270 -131 -424t-358 -154q-229 0 -358.5 149.5t-129.5 430.5q0 272 130 424.5t358 152.5q229 0 359 -148.5zM424 809q-39 -80 -39 -264q0 -188 39 -268t123 -80t124 80.5t40 265.5q0 188 -39 267t-125 79q-84 0 -123 -80zM589.5 1235 q-27.5 12 -70.5 39q-27 18 -42.5 26.5t-33.5 8.5q-31 0 -51.5 -19.5t-46.5 -66.5l-152 71q37 104 100.5 169t143.5 65q41 0 71.5 -13.5t69.5 -39.5q4 -2 20.5 -12.5t29.5 -15.5t26 -5q29 0 50 19.5t46 64.5l152 -72q-37 -106 -100.5 -168.5t-143.5 -62.5q-41 0 -68.5 12z M834 1702h-574v215h574v-215z" />
<glyph unicode="&#x22e;" horiz-adv-x="1290" d="M1077.5 1264.5q151.5 -189.5 151.5 -553.5q0 -360 -152.5 -553t-431.5 -193t-431.5 190.5t-152.5 555.5q0 358 153 550.5t431 192.5q281 0 432.5 -189.5zM461.5 1097.5q-58.5 -116.5 -58.5 -386.5q0 -274 59.5 -390t182.5 -116q125 0 183.5 115.5t58.5 390.5 q0 270 -58.5 386.5t-183.5 116.5t-183.5 -116.5zM775.5 1861.5q52.5 -51.5 52.5 -126.5q0 -78 -52.5 -129.5t-132.5 -51.5t-131 51.5t-51 129.5q0 76 51 127t131 51t132.5 -51.5z" />
<glyph unicode="&#x22f;" horiz-adv-x="1093" d="M906 973.5q130 -148.5 130 -430.5q0 -270 -131 -424t-358 -154q-229 0 -358.5 149.5t-129.5 430.5q0 272 130 424.5t358 152.5q229 0 359 -148.5zM424 809q-39 -80 -39 -264q0 -188 39 -268t123 -80t124 80.5t40 265.5q0 188 -39 267t-125 79q-84 0 -123 -80z M677.5 1603.5q52.5 -51.5 52.5 -126.5q0 -78 -52.5 -129.5t-132.5 -51.5t-131 51.5t-51 129.5q0 76 51 127t131 51t132.5 -51.5z" />
<glyph unicode="&#x230;" horiz-adv-x="1290" d="M1077.5 1264.5q151.5 -189.5 151.5 -553.5q0 -360 -152.5 -553t-431.5 -193t-431.5 190.5t-152.5 555.5q0 358 153 550.5t431 192.5q281 0 432.5 -189.5zM461.5 1097.5q-58.5 -116.5 -58.5 -386.5q0 -274 59.5 -390t182.5 -116q125 0 183.5 115.5t58.5 390.5 q0 270 -58.5 386.5t-183.5 116.5t-183.5 -116.5zM775.5 1816.5q52.5 -51.5 52.5 -126.5q0 -78 -52.5 -129.5t-132.5 -51.5t-131 51.5t-51 129.5q0 76 51 127t131 51t132.5 -51.5zM932 1930h-574v215h574v-215z" />
<glyph unicode="&#x237;" horiz-adv-x="530" d="M422 98q0 -158 -51.5 -263t-140.5 -169.5t-220 -118.5l-104 230q72 39 112.5 73.5t64 90t23.5 145.5v1001h316v-989z" />
<glyph unicode="&#x259;" horiz-adv-x="1042" d="M864 970.5q119 -151.5 119 -425.5q0 -266 -123 -423t-350 -157q-215 0 -338 142.5t-123 414.5q0 66 6 115h627q-6 139 -53 199.5t-137 60.5q-68 0 -126.5 -19.5t-123.5 -66.5l-127 172q162 139 389 139q241 0 360 -151.5zM635 244.5q41 56.5 49 201.5h-342v-16 q2 -242 170 -242q82 0 123 56.5z" />
<glyph unicode="&#x292;" horiz-adv-x="948" d="M920 18q0 -135 -60.5 -242.5t-174.5 -168t-269 -60.5q-287 0 -445 207l166 158q68 -68 126.5 -96.5t131.5 -28.5q96 0 148.5 61.5t52.5 184.5q0 115 -55.5 165t-171.5 50h-168v184l315 420h-469v235h811v-217l-340 -438q402 -29 402 -414z" />
<glyph unicode="&#x2c6;" horiz-adv-x="837" d="M178 1276l-110 121l262 282h190l263 -282l-111 -121l-246 188z" />
<glyph unicode="&#x2c7;" horiz-adv-x="837" d="M674 1659l109 -123l-263 -283h-190l-262 283l110 123l248 -189z" />
<glyph unicode="&#x2d8;" horiz-adv-x="772" d="M160.5 1391.5q-82.5 95.5 -93.5 253.5l170 30q37 -162 154 -162q61 0 100 42t56 120l170 -30q-10 -158 -94.5 -253.5t-231.5 -95.5q-148 0 -230.5 95.5z" />
<glyph unicode="&#x2d9;" horiz-adv-x="489" d="M382.5 1603.5q52.5 -51.5 52.5 -126.5q0 -78 -52.5 -129.5t-132.5 -51.5t-131 51.5t-51 129.5q0 76 51 127t131 51t132.5 -51.5z" />
<glyph unicode="&#x2da;" horiz-adv-x="653" d="M526 1697q72 -75 72 -190t-72 -190.5t-193 -75.5t-193.5 76t-72.5 190q0 115 73 190t193 75q121 0 193 -75zM251 1507q0 -106 82 -106q80 0 80 106q0 104 -80 105q-82 -1 -82 -105z" />
<glyph unicode="&#x2db;" horiz-adv-x="563" d="M566 0q-123 -51 -169 -103.5t-46 -107.5q0 -94 96 -94q39 0 110 14l-20 -194q-61 -16 -129 -17q-125 0 -204 63.5t-79 172.5q0 135 102.5 221t288.5 145z" />
<glyph unicode="&#x2dc;" horiz-adv-x="831" d="M457.5 1321q-27.5 12 -70.5 39q-27 18 -42.5 26.5t-33.5 8.5q-31 0 -51.5 -19.5t-46.5 -66.5l-152 71q37 104 100.5 169t143.5 65q41 0 71.5 -13.5t69.5 -39.5q4 -2 20.5 -12.5t29.5 -15.5t26 -5q29 0 50 19.5t46 64.5l152 -72q-37 -106 -100.5 -168.5t-143.5 -62.5 q-41 0 -68.5 12z" />
<glyph unicode="&#x2dd;" horiz-adv-x="823" d="M229 1755l207 -98l-215 -367l-158 66zM561 1755l203 -104l-230 -369l-153 74z" />
<glyph unicode="&#x300;" horiz-adv-x="0" d="M-469 1700l408 -268l-86 -156l-445 192z" />
<glyph unicode="&#x301;" horiz-adv-x="0" d="M-184 1700l123 -232l-445 -192l-86 156z" />
<glyph unicode="&#x302;" horiz-adv-x="0" d="M-666 1276l-110 121l262 282h190l263 -282l-111 -121l-246 188z" />
<glyph unicode="&#x303;" horiz-adv-x="0" d="M-373.5 1321q-27.5 12 -70.5 39q-27 18 -42.5 26.5t-33.5 8.5q-31 0 -51.5 -19.5t-46.5 -66.5l-152 71q37 104 100.5 169t143.5 65q41 0 71.5 -13.5t69.5 -39.5q4 -2 20.5 -12.5t29.5 -15.5t26 -5q29 0 50 19.5t46 64.5l152 -72q-37 -106 -100.5 -168.5t-143.5 -62.5 q-41 0 -68.5 12z" />
<glyph unicode="&#x304;" horiz-adv-x="0" d="M-61 1346h-574v215h574v-215z" />
<glyph unicode="&#x306;" horiz-adv-x="0" d="M-617.5 1391.5q-82.5 95.5 -93.5 253.5l170 30q37 -162 154 -162q61 0 100 42t56 120l170 -30q-10 -158 -94.5 -253.5t-231.5 -95.5q-148 0 -230.5 95.5z" />
<glyph unicode="&#x307;" horiz-adv-x="0" d="M-113.5 1603.5q52.5 -51.5 52.5 -126.5q0 -78 -52.5 -129.5t-132.5 -51.5t-131 51.5t-51 129.5q0 76 51 127t131 51t132.5 -51.5z" />
<glyph unicode="&#x308;" horiz-adv-x="0" d="M-543 1587q45 -45 45 -112q0 -68 -45 -114t-112 -46q-66 0 -112 46t-46 114q0 66 46 111.5t112 45.5q67 0 112 -45zM-107.5 1587q46.5 -45 46.5 -112q0 -68 -45.5 -114t-114.5 -46q-66 0 -112 46t-46 114q0 66 46 111.5t112 45.5q67 0 113.5 -45z" />
<glyph unicode="&#x309;" horiz-adv-x="0" d="M-395 1442q72 4 101.5 21.5t29.5 58.5q0 31 -19.5 47t-52.5 16q-31 0 -54.5 -6t-58.5 -18l-49 131q86 51 207 51q111 0 172.5 -56.5t61.5 -148.5q0 -80 -40 -128t-116 -62v-109h-182v203z" />
<glyph unicode="&#x30a;" horiz-adv-x="0" d="M-133 1697q72 -75 72 -190t-72 -190.5t-193 -75.5t-193.5 76t-72.5 190q0 115 73 190t193 75q121 0 193 -75zM-408 1507q0 -106 82 -106q80 0 80 106q0 104 -80 105q-82 -1 -82 -105z" />
<glyph unicode="&#x30b;" horiz-adv-x="0" d="M-596 1755l207 -98l-215 -367l-158 66zM-264 1755l203 -104l-230 -369l-153 74z" />
<glyph unicode="&#x30c;" horiz-adv-x="0" d="M-170 1659l109 -123l-263 -283h-190l-262 283l110 123l248 -189z" />
<glyph unicode="&#x30f;" horiz-adv-x="0" d="M-559 1755l182 -399l-155 -74l-230 369zM-227 1755l166 -399l-158 -66l-213 367z" />
<glyph unicode="&#x311;" horiz-adv-x="0" d="M-156 1518.5q84 -95.5 95 -252.5l-170 -31q-16 78 -55.5 120t-100.5 42q-117 0 -154 -162l-170 31q10 158 93 253t231 95q147 0 231 -95.5z" />
<glyph unicode="&#x312;" horiz-adv-x="0" d="M-328 1226q-43 44 -43 111q0 39 10.5 75t38.5 97l86 195h156l-53 -236q70 -49 70 -131q0 -63 -44.5 -109t-109.5 -46q-68 0 -111 44z" />
<glyph unicode="&#x323;" horiz-adv-x="0" d="M-376 -434q-52 51 -52 127q0 78 52 129t132 51t131.5 -51t51.5 -129q0 -76 -51.5 -127t-131.5 -51t-132 51z" />
<glyph unicode="&#x326;" horiz-adv-x="0" d="M-104 -183q43 -44 43 -112q0 -39 -10.5 -75t-39.5 -97l-86 -195h-155l53 236q-70 49 -70 131q0 63 44 109.5t110 46.5q68 0 111 -44z" />
<glyph unicode="&#x327;" horiz-adv-x="0" d="M-256 -104q96 -12 145.5 -62.5t49.5 -134.5q0 -104 -76 -169t-207 -65q-125 0 -215 62l72 141q57 -31 118 -30q84 0 84 63q0 37 -42 54.5t-130 17.5l31 260h170v-137z" />
<glyph unicode="&#x328;" horiz-adv-x="0" d="M-61 0q-123 -51 -169 -103.5t-46 -107.5q0 -94 96 -94q39 0 110 14l-20 -194q-61 -16 -129 -17q-125 0 -204 63.5t-79 172.5q0 135 102.5 221t288.5 145z" />
<glyph unicode="&#x32d;" horiz-adv-x="0" d="M-666 -532l-110 120l262 283h190l263 -283l-111 -120l-246 186z" />
<glyph unicode="&#x331;" horiz-adv-x="0" d="M-61 -387h-574v215h574v-215z" />
<glyph unicode="&#x394;" horiz-adv-x="1128" d="M762 1419l389 -1419h-1174l392 1419h393zM561 1178l-201 -936h400z" />
<glyph unicode="&#x3a3;" horiz-adv-x="927" d="M895 1419v-237h-518l313 -416v-133l-321 -389h526v-244h-862v238l364 458l-364 486v237h862z" />
<glyph unicode="&#x3a8;" horiz-adv-x="1353" d="M1323 1419v-557q0 -209 -122 -332.5t-361 -154.5v-375h-328v373q-242 33 -361.5 155.5t-119.5 331.5v559h311v-565q0 -117 43 -175t143 -77v817h297v-817q98 20 142.5 79.5t44.5 172.5v565h311z" />
<glyph unicode="&#x3a9;" horiz-adv-x="1271" d="M949 1368q132 -86 201 -241.5t69 -356.5q0 -197 -63.5 -325t-194.5 -207h219v-238h-480v225q76 37 114 104.5t51.5 169t13.5 271.5q0 233 -59.5 338.5t-182.5 105.5t-182.5 -105t-59.5 -339q0 -172 13.5 -274.5t51.5 -167t111 -103.5v-225h-479v238h215 q-129 76 -191.5 204.5t-62.5 327.5t70 354.5t202 242.5t312 87t312 -86z" />
<glyph unicode="&#x3bc;" horiz-adv-x="1079" d="M715 -35q-16 43 -24.5 79t-16.5 91q-84 -152 -197 -151q-47 0 -84 19.5t-69 68.5q41 -76 60 -140.5t19 -167.5v-184l-297 -31v1538h316v-761q0 -113 82 -113q84 0 141 127v747h316v-714q0 -209 43 -373z" />
<glyph unicode="&#x3c0;" horiz-adv-x="1138" d="M991 852v-510q0 -61 17.5 -93t60.5 -56l-90 -228q-152 29 -227.5 111t-75.5 233v543h-193v-852h-311v852q-39 -2 -62.5 -6t-58.5 -17l-57 213q51 25 113.5 35t177.5 10h817v-235h-111z" />
<glyph unicode="&#x3c8;" horiz-adv-x="1456" d="M1250 125q-132 -133 -369 -156v-389l-299 -33v420q-244 18 -368 133t-124 295v692h307v-675q0 -98 42 -152.5t143 -69.5v897h299v-892q100 18 147 96t47 225q0 233 -47 571h301q53 -287 53 -579q0 -250 -132 -383z" />
<glyph unicode="&#x3c9;" horiz-adv-x="1435" d="M1372 496q0 -268 -99 -399.5t-269 -131.5q-242 0 -287 236q-29 -123 -97.5 -179.5t-187.5 -56.5q-174 0 -271.5 130t-97.5 401q0 319 115 591h285q-45 -162 -68.5 -300t-23.5 -277q0 -172 27.5 -241.5t84.5 -69.5q47 0 69.5 33.5t22.5 125.5v369l285 39v-408 q0 -88 23.5 -123.5t68.5 -35.5q55 0 84 66.5t29 246.5q0 135 -24.5 274.5t-67.5 300.5h282q117 -274 117 -591z" />
<glyph unicode="&#x400;" horiz-adv-x="970" d="M915 1419l-34 -233h-441v-350h385v-230h-385v-368h471v-238h-798v1419h802zM367 1944l410 -250l-80 -156l-449 174z" />
<glyph unicode="&#x401;" horiz-adv-x="970" d="M915 1419l-34 -233h-441v-350h385v-230h-385v-368h471v-238h-798v1419h802zM413 1845q45 -45 45 -112q0 -68 -45 -114t-112 -46q-66 0 -112 46t-46 114q0 66 46 111.5t112 45.5q67 0 112 -45zM848.5 1845q46.5 -45 46.5 -112q0 -68 -45.5 -114t-114.5 -46q-66 0 -112 46 t-46 114q0 66 46 111.5t112 45.5q67 0 113.5 -45z" />
<glyph unicode="&#x402;" horiz-adv-x="1394" d="M1245.5 839q106.5 -122 104.5 -339v-285q0 -240 -112 -363.5t-312 -193.5l-92 227q109 49 148.5 118t39.5 198v299q0 111 -40 164t-124 53q-115 0 -192 -88v-629h-328v1171h-324v248h992l-35 -248h-305v-323q113 113 284 113q189 0 295.5 -122z" />
<glyph unicode="&#x403;" horiz-adv-x="946" d="M948 1419l-33 -258h-475v-1161h-327v1419h835zM692 1946l119 -232l-449 -176l-80 158z" />
<glyph unicode="&#x404;" horiz-adv-x="1073" d="M1065 147q-76 -80 -182.5 -131t-239.5 -51q-172 0 -303 84t-205 252t-74 412q0 240 75 405.5t208 250.5t307 85q121 0 217.5 -39t182.5 -117l-156 -180q-113 96 -227 96q-117 0 -191 -91t-84 -281h430v-230h-430q8 -203 82 -302t195 -99q72 0 127 28.5t123 84.5z" />
<glyph unicode="&#x405;" horiz-adv-x="1062" d="M789.5 1408q109.5 -46 199.5 -136l-149 -172q-133 115 -273 114q-78 0 -123 -38.5t-45 -106.5q0 -45 20.5 -75.5t72 -59.5t151.5 -66q131 -49 212 -105t124 -140t43 -209q0 -131 -62.5 -232.5t-180 -159t-275.5 -57.5q-297 0 -494 201l160 178q76 -66 152.5 -100.5 t162.5 -34.5q94 0 145.5 49t51.5 131q0 78 -47 125t-178 94q-213 80 -303.5 180.5t-90.5 255.5q0 121 61.5 214.5t169 144.5t243.5 51q143 0 252.5 -46z" />
<glyph unicode="&#x406;" horiz-adv-x="550" d="M440 1419v-1419h-327v1419h327z" />
<glyph unicode="&#x407;" horiz-adv-x="550" d="M440 1419v-1419h-327v1419h327zM172 1845q45 -45 45 -112q0 -68 -45 -114t-112 -46q-66 0 -112 46t-46 114q0 66 46 111.5t112 45.5q67 0 112 -45zM607.5 1845q46.5 -45 46.5 -112q0 -68 -45.5 -114t-114.5 -46q-66 0 -112 46t-46 114q0 66 46 111.5t112 45.5 q67 0 113.5 -45z" />
<glyph unicode="&#x408;" horiz-adv-x="593" d="M487 215q0 -242 -114.5 -364.5t-313.5 -192.5l-86 231q80 35 120 78t53.5 102.5t13.5 157.5v1192h327v-1204z" />
<glyph unicode="&#x409;" horiz-adv-x="1730" d="M1570 819.5q134 -112.5 134 -340.5q0 -242 -139.5 -360.5t-382.5 -118.5h-430v1169h-215l-50 -491q-27 -252 -68.5 -389t-120.5 -211t-220 -113l-78 232q61 29 93 74.5t51.5 138t39.5 286.5l76 725l2 -2h819l-2 -2v-485h103q254 0 388 -112.5zM1313 294q49 56 49 181 q0 119 -50 174.5t-161 55.5h-72v-467h82q103 0 152 56z" />
<glyph unicode="&#x40a;" horiz-adv-x="1759" d="M1594.5 791.5q138.5 -111.5 138.5 -328.5q0 -233 -139.5 -348t-391.5 -115h-418v670h-344v-670h-327v1419h327v-516h344v516h328v-516h98q246 0 384.5 -111.5zM1346.5 292q48.5 52 48.5 167q0 109 -47.5 160t-149.5 51h-86v-430h90q96 0 144.5 52z" />
<glyph unicode="&#x40b;" horiz-adv-x="1394" d="M1244.5 839q105.5 -122 105.5 -339v-500h-328v500q0 111 -40 164t-124 53q-115 0 -192 -88v-629h-328v1171h-324v248h992l-35 -248h-305v-323q113 113 284 113q189 0 294.5 -122z" />
<glyph unicode="&#x40c;" horiz-adv-x="1171" d="M1149 1419l-307 -645l342 -774h-348l-271 621h-125v-621h-327v1419h327v-559h133l263 559h313zM731 1946l119 -232l-449 -176l-80 158z" />
<glyph unicode="&#x40d;" horiz-adv-x="1226" d="M1114 0h-313v541q0 276 41 555l-340 -1096h-389v1419h311v-549q0 -166 -10.5 -288.5t-28.5 -257.5l344 1095h385v-1419zM465 1944l410 -250l-80 -156l-449 174z" />
<glyph unicode="&#x40e;" horiz-adv-x="1073" d="M774 422q-55 -164 -129 -258t-176 -138t-260 -61l-41 221q125 16 190.5 57.5t108.5 133.5h-107l-389 1042h330l258 -858l225 858h328zM308.5 1622q-82.5 84 -95.5 227l170 31q16 -66 53 -94.5t103 -28.5q63 0 101 29t53 94l172 -31q-12 -141 -96.5 -226t-229.5 -85 q-148 0 -230.5 84z" />
<glyph unicode="&#x40f;" horiz-adv-x="1220" d="M1108 1419v-1419h-369v-338h-223l-35 338h-368v1419h327v-1163h340v1163h328z" />
<glyph unicode="&#x410;" d="M797 0l-64 309h-360l-64 -309h-332l383 1419h394l381 -1419h-338zM422 545h262l-131 635z" />
<glyph unicode="&#x411;" d="M949 799.5q134 -111.5 134 -330.5q0 -233 -139 -351t-385 -118h-446v1419h819l-33 -248h-459v-260h125q250 0 384 -111.5zM692 292q49 54 49 173q0 111 -50 165t-159 54h-92v-446h99q104 0 153 54z" />
<glyph unicode="&#x412;" horiz-adv-x="1144" d="M1021 645q83 -78 83 -231q0 -414 -572 -414h-419v1419h370q272 0 420 -89t148 -273q0 -123 -70 -200t-178 -105q135 -29 218 -107zM440 1188v-338h90q188 0 189 174q0 84 -49 124t-156 40h-74zM708.5 281q59.5 43 59.5 149q0 201 -217 201h-111v-393h95q114 0 173.5 43z " />
<glyph unicode="&#x413;" horiz-adv-x="946" d="M948 1419l-33 -258h-475v-1161h-327v1419h835z" />
<glyph unicode="&#x414;" horiz-adv-x="1189" d="M1157 250v-588h-223l-35 338h-653l-35 -338h-223v588h84q53 68 83.5 192.5t63.5 413.5l60 563h763v-1169h115zM727 1178h-170l-29 -293q-18 -193 -42.5 -310.5t-60.5 -191.5t-93 -133h395v928z" />
<glyph unicode="&#x415;" horiz-adv-x="970" d="M915 1419l-34 -233h-441v-350h385v-230h-385v-368h471v-238h-798v1419h802z" />
<glyph unicode="&#x416;" horiz-adv-x="1685" d="M1669 1419l-307 -645l340 -774h-348l-254 623h-107v-623h-299v623h-110l-258 -623h-340l338 774l-306 645h316l258 -563h102v563h299v-563h101l262 563h313z" />
<glyph unicode="&#x417;" horiz-adv-x="1005" d="M184.5 15.5q-110.5 50.5 -192.5 148.5l170 168q63 -63 123.5 -93t132.5 -30q94 0 148.5 54t54.5 157q0 100 -54.5 155.5t-163.5 55.5h-137l37 235h107q88 0 134 47.5t46 133.5q0 76 -38 123t-120 47q-121 0 -252 -113l-149 164q182 186 444 186q137 0 238.5 -48t157 -133 t55.5 -192q0 -125 -74 -210t-221 -117q160 -20 247 -108.5t87 -242.5q0 -131 -65.5 -230t-184.5 -153.5t-271 -54.5q-149 0 -259.5 50.5z" />
<glyph unicode="&#x418;" horiz-adv-x="1226" d="M1114 0h-313v541q0 276 41 555l-340 -1096h-389v1419h311v-549q0 -166 -10.5 -288.5t-28.5 -257.5l344 1095h385v-1419z" />
<glyph unicode="&#x419;" horiz-adv-x="1226" d="M1114 0h-313v541q0 276 41 555l-340 -1096h-389v1419h311v-549q0 -166 -10.5 -288.5t-28.5 -257.5l344 1095h385v-1419zM383.5 1622q-82.5 84 -95.5 227l170 31q16 -66 53 -94.5t103 -28.5q63 0 101 29t53 94l172 -31q-12 -141 -96.5 -226t-229.5 -85q-148 0 -230.5 84z " />
<glyph unicode="&#x41a;" horiz-adv-x="1171" d="M1149 1419l-307 -645l342 -774h-348l-271 621h-125v-621h-327v1419h327v-559h133l263 559h313z" />
<glyph unicode="&#x41b;" horiz-adv-x="1212" d="M1100 1419v-1419h-328v1169h-231l-52 -491q-27 -252 -69.5 -389t-120.5 -211t-221 -113l-78 232q61 29 93 74.5t51.5 138t39.5 286.5l76 723h840z" />
<glyph unicode="&#x41c;" horiz-adv-x="1474" d="M1413 0h-313l-19 561q-8 246 -8 363q0 143 4 211l-186 -985h-307l-197 985q8 -156 8 -330q0 -78 -4 -250l-18 -555h-312l95 1419h409l178 -966l164 966h412z" />
<glyph unicode="&#x41d;" horiz-adv-x="1232" d="M795 0v610h-355v-610h-327v1419h327v-553h355v553h327v-1419h-327z" />
<glyph unicode="&#x41e;" horiz-adv-x="1290" d="M1077.5 1264.5q151.5 -189.5 151.5 -553.5q0 -360 -152.5 -553t-431.5 -193t-431.5 190.5t-152.5 555.5q0 358 153 550.5t431 192.5q281 0 432.5 -189.5zM461.5 1097.5q-58.5 -116.5 -58.5 -386.5q0 -274 59.5 -390t182.5 -116q125 0 183.5 115.5t58.5 390.5 q0 270 -58.5 386.5t-183.5 116.5t-183.5 -116.5z" />
<glyph unicode="&#x41f;" horiz-adv-x="1230" d="M1120 1419v-1419h-329v1167h-351v-1167h-327v1419h1007z" />
<glyph unicode="&#x420;" horiz-adv-x="1114" d="M937 1302.5q146 -116.5 146 -344.5q0 -240 -142 -361.5t-392 -121.5h-109v-475h-327v1419h405q273 0 419 -116.5zM692.5 769q55.5 56 55.5 187q0 117 -54.5 173.5t-171.5 56.5h-82v-473h82q115 0 170.5 56z" />
<glyph unicode="&#x421;" horiz-adv-x="1073" d="M868.5 1415q96.5 -39 182.5 -117l-156 -182q-55 47 -109.5 70.5t-115.5 23.5q-266 0 -267 -497q0 -494 269 -494q70 0 124 27.5t122 81.5l147 -181q-76 -80 -181.5 -131t-232.5 -51q-178 0 -310 84t-206 252t-74 412q0 238 76 404.5t208 251.5t304 85q123 0 219.5 -39z " />
<glyph unicode="&#x422;" horiz-adv-x="1003" d="M1006 1419l-35 -250h-305v-1169h-328v1169h-324v250h992z" />
<glyph unicode="&#x423;" horiz-adv-x="1073" d="M774 422q-55 -164 -129 -258t-176 -138t-260 -61l-41 221q125 16 190.5 57.5t108.5 133.5h-107l-389 1042h330l258 -858l225 858h328z" />
<glyph unicode="&#x424;" horiz-adv-x="1576" d="M1383.5 255q-158.5 -155 -435.5 -167v-168h-319v168q-276 14 -435 167t-159 454q0 309 158.5 463.5t435.5 166.5v158h319v-158q276 -14 435 -166.5t159 -453.5q0 -309 -158.5 -464zM1146.5 404.5q65.5 99.5 65.5 314.5q0 211 -67.5 308t-212.5 110v-846 q149 14 214.5 113.5zM433.5 400.5q66.5 -97.5 211.5 -109.5v846q-150 -14 -214 -112.5t-64 -315.5q0 -211 66.5 -308.5z" />
<glyph unicode="&#x425;" horiz-adv-x="1085" d="M731 766l367 -766h-350l-213 547l-205 -547h-342l354 754l-328 665h348l177 -461l188 461h340z" />
<glyph unicode="&#x426;" horiz-adv-x="1273" d="M1108 250h147v-588h-223l-35 338h-884v1419h327v-1163h340v1163h328v-1169z" />
<glyph unicode="&#x427;" horiz-adv-x="1153" d="M1040 1419v-1419h-327v526q-63 -55 -130 -81.5t-153 -26.5q-180 0 -286.5 117.5t-106.5 326.5v557h321v-538q0 -119 41 -169t127 -50q113 0 187 77v680h327z" />
<glyph unicode="&#x428;" horiz-adv-x="1681" d="M1571 1419v-1419h-1458v1419h319v-1163h256v1163h305v-1163h256v1163h322z" />
<glyph unicode="&#x429;" horiz-adv-x="1734" d="M1571 250h147v-588h-223l-35 338h-1347v1419h319v-1163h256v1163h305v-1163h256v1163h322v-1169z" />
<glyph unicode="&#x42a;" horiz-adv-x="1335" d="M1176.5 819.5q134.5 -112.5 134.5 -340.5q0 -242 -138.5 -360.5t-384.5 -118.5h-448v1174l-2 -3h-324v248h654v-487h120q254 0 388.5 -112.5zM919.5 294q49.5 56 49.5 181q0 119 -50.5 174.5t-158.5 55.5h-92v-467h100q102 0 151.5 56z" />
<glyph unicode="&#x42b;" horiz-adv-x="1591" d="M929 819.5q134 -112.5 134 -340.5q0 -240 -138.5 -359.5t-375.5 -119.5h-436v1419h327v-487h101q254 0 388 -112.5zM1151 1419h328v-1419h-328v1419zM673 294q50 56 50 181q0 119 -49 174.5t-158 55.5h-76v-467h80q103 0 153 56z" />
<glyph unicode="&#x42c;" horiz-adv-x="1110" d="M949 819.5q134 -112.5 134 -340.5q0 -242 -138 -360.5t-384 -118.5h-448v1419h327v-487h121q254 0 388 -112.5zM692 294q49 56 49 181q0 119 -50 174.5t-159 55.5h-92v-467h101q102 0 151 56z" />
<glyph unicode="&#x42d;" horiz-adv-x="1007" d="M811 1273q135 -181 135 -554t-144.5 -563.5t-406.5 -190.5q-225 0 -385 164l146 176q57 -47 107 -69.5t116 -22.5q113 0 171 95t64 304h-419v230h419q-8 201 -61 286.5t-154 85.5q-66 0 -117 -22.5t-112 -73.5l-150 176q86 82 180.5 121t223.5 39q252 0 387 -181z" />
<glyph unicode="&#x42e;" horiz-adv-x="1744" d="M1536 1264.5q147 -189.5 147 -553.5q0 -360 -147 -553t-420 -193q-252 0 -388 163t-159 478h-129v-606h-327v1419h327v-557h133q74 592 543 592q273 0 420 -189.5zM1287 321.5q54 114.5 54 389.5q0 272 -54 387.5t-171 115.5q-115 0 -169 -116.5t-54 -392.5 q0 -268 54 -383t169 -115q117 0 171 114.5z" />
<glyph unicode="&#x42f;" horiz-adv-x="1136" d="M1026 1419v-1419h-328v514h-137l-207 -514h-350l275 573q-111 53 -167.5 148.5t-56.5 243.5q0 455 543 454h428zM698 743v445h-90q-109 0 -162 -56.5t-53 -175.5q0 -106 51.5 -159.5t139.5 -53.5h114z" />
<glyph unicode="&#x430;" horiz-adv-x="1017" d="M921.5 219.5q14.5 -26.5 49.5 -41.5l-66 -207q-94 8 -153.5 43t-92.5 109q-100 -158 -292 -158q-147 0 -234.5 93.5t-87.5 246.5q0 178 120 272.5t347 94.5h86v51q0 96 -35 134t-123 38q-100 0 -256 -55l-71 202q90 39 192.5 59.5t190.5 20.5q211 0 311 -94t100 -287 v-440q0 -55 14.5 -81.5zM539.5 217q35.5 27 58.5 76v203h-57q-96 0 -141.5 -40t-45.5 -124q0 -70 28 -106t79 -36q43 0 78.5 27z" />
<glyph unicode="&#x431;" horiz-adv-x="1073" d="M832.5 954.5q82.5 -57.5 132 -171t49.5 -275.5q0 -260 -127 -401.5t-348 -141.5q-227 0 -353.5 153.5t-126.5 489.5q0 240 37 390.5t126 245.5t249 153q113 41 177.5 70.5t148.5 80.5l114 -196q-68 -45 -138.5 -79t-180.5 -75q-80 -31 -126 -68.5t-72.5 -104.5 t-37.5 -181q102 168 289 168q105 0 187.5 -57.5zM650 260.5q38 61.5 38 237.5q0 162 -32.5 222t-100.5 60q-51 0 -96 -33.5t-74 -105.5v-139q0 -166 38 -234.5t114 -68.5q75 0 113 61.5z" />
<glyph unicode="&#x432;" horiz-adv-x="1036" d="M977 330q0 -166 -120 -248t-331 -82h-420v1079q244 43 402 43q201 0 314.5 -77.5t113.5 -217.5q0 -90 -55.5 -149.5t-163.5 -81.5q260 -30 260 -266zM422 918v-259h88q57 0 88 30t31 102q0 74 -30 102.5t-95 28.5q-21 0 -82 -4zM622.5 237.5q34.5 32.5 34.5 114.5 q0 78 -31.5 110t-103.5 32h-100v-289h98q68 0 102.5 32.5z" />
<glyph unicode="&#x433;" horiz-adv-x="804" d="M422 0h-316v1087h711l-37 -239h-358v-848z" />
<glyph unicode="&#x434;" horiz-adv-x="1038" d="M1020 233v-571h-213l-35 338h-528l-35 -338h-213v571h65q31 25 51.5 66t37 130t28.5 253l29 405h708v-854h105zM623 879h-146l-12 -174q-16 -215 -55 -317.5t-119 -154.5h332v646z" />
<glyph unicode="&#x435;" horiz-adv-x="1038" d="M983 451h-606q12 -143 63.5 -198.5t145.5 -55.5q61 0 116.5 22.5t120.5 69.5l129 -174q-168 -150 -391 -150q-246 0 -374 152.5t-128 421.5q0 262 123 422.5t346 160.5q215 0 338 -144t123 -413q0 -65 -6 -114zM680 655q0 129 -34 193.5t-114 64.5q-72 0 -110.5 -60 t-46.5 -212h305v14z" />
<glyph unicode="&#x436;" horiz-adv-x="1396" d="M1380 1087l-219 -505l240 -582h-307l-179 467h-79v-467h-275v467h-80l-178 -467h-307l242 582l-222 505h285l176 -428h84v428h275v-428h84l178 428h282z" />
<glyph unicode="&#x437;" horiz-adv-x="925" d="M708.5 1040q110.5 -82 110.5 -219q0 -92 -56 -151.5t-173 -89.5q139 -20 207.5 -84t68.5 -183q0 -170 -125 -259t-335 -89q-242 0 -404 133l145 170q66 -43 119 -60.5t119 -17.5q156 0 156 140q0 68 -42 98.5t-126 30.5h-140l17 203h100q150 0 150 129q0 57 -34 84.5 t-91 27.5q-55 0 -102.5 -17.5t-98.5 -51.5l-143 161q164 127 399 127q168 0 278.5 -82z" />
<glyph unicode="&#x438;" horiz-adv-x="1095" d="M989 0h-291v389q0 225 45 393l-321 -782h-316v1087h293v-393q0 -215 -43 -391l316 784h317v-1087z" />
<glyph unicode="&#x439;" horiz-adv-x="1095" d="M989 0h-291v389q0 225 45 393l-321 -782h-316v1087h293v-393q0 -215 -43 -391l316 784h317v-1087zM318.5 1380q-82.5 84 -95.5 228l170 30q16 -66 53 -94t103 -28q63 0 101 28.5t53 93.5l172 -30q-12 -141 -96.5 -226.5t-229.5 -85.5q-148 0 -230.5 84z" />
<glyph unicode="&#x43a;" horiz-adv-x="1026" d="M1016 1087l-252 -503l272 -584h-323l-207 469h-84v-469h-316v1087h316v-425h90l209 425h295z" />
<glyph unicode="&#x43b;" horiz-adv-x="1054" d="M948 1087v-1087h-315v856h-166l-21 -260q-16 -233 -46.5 -348t-98.5 -176.5t-207 -98.5l-78 230q55 27 81 60.5t39.5 109.5t23.5 239l30 475h758z" />
<glyph unicode="&#x43c;" horiz-adv-x="1257" d="M1206 0h-295l-16 397q-2 47 -2 138q0 141 8 278l-145 -702h-258l-146 702q10 -170 10 -285q0 -86 -2 -131l-14 -397h-295l82 1087h369l125 -706l125 706h370z" />
<glyph unicode="&#x43d;" horiz-adv-x="1087" d="M666 0v436h-244v-436h-316v1087h316v-419h244v419h315v-1087h-315z" />
<glyph unicode="&#x43e;" horiz-adv-x="1093" d="M906 973.5q130 -148.5 130 -430.5q0 -270 -131 -424t-358 -154q-229 0 -358.5 149.5t-129.5 430.5q0 272 130 424.5t358 152.5q229 0 359 -148.5zM424 809q-39 -80 -39 -264q0 -188 39 -268t123 -80t124 80.5t40 265.5q0 188 -39 267t-125 79q-84 0 -123 -80z" />
<glyph unicode="&#x43f;" horiz-adv-x="1081" d="M659 0v854h-237v-854h-316v1087h869v-1087h-316z" />
<glyph unicode="&#x440;" d="M957.5 972.5q91.5 -149.5 91.5 -425.5q0 -172 -48.5 -304t-136.5 -205t-207 -73q-141 0 -235 113v-498l-316 -33v1540h281l14 -118q111 154 285 153q180 0 271.5 -149.5zM723 543q0 199 -36 273.5t-105 74.5q-92 0 -160 -121v-481q59 -90 141 -90q160 0 160 344z" />
<glyph unicode="&#x441;" horiz-adv-x="892" d="M737 1089.5q82 -32.5 154 -100.5l-131 -180q-47 37 -90 54.5t-92 17.5q-94 0 -141.5 -78t-47.5 -266q0 -180 48 -252t138 -72q47 0 86 15.5t93 52.5l137 -187q-141 -129 -334 -129q-233 0 -365.5 149.5t-132.5 420.5q0 178 60.5 311t172 204.5t261.5 71.5 q102 0 184 -32.5z" />
<glyph unicode="&#x442;" horiz-adv-x="880" d="M893 1087l-39 -233h-256v-854h-315v854h-279v233h889z" />
<glyph unicode="&#x443;" horiz-adv-x="974" d="M676 -2q-117 -424 -570 -453l-34 219q141 20 210.5 72.5t110.5 163.5h-112l-291 1087h323l168 -886l187 886h317z" />
<glyph unicode="&#x444;" horiz-adv-x="1560" d="M1497 543q0 -180 -43 -310.5t-123 -199t-184 -68.5q-127 0 -219 109v-494l-295 -33v531q-94 -113 -223 -113q-104 0 -182 68.5t-121.5 198.5t-43.5 311q0 279 91.5 429t261.5 150q133 0 217 -104v534l295 -32v-506q88 109 229 108q340 1 340 -579zM633 276v537 q-53 80 -125 80q-66 0 -96.5 -78t-30.5 -272q0 -188 32.5 -268t94.5 -80q72 -1 125 81zM1149 273.5q31 78.5 31 269.5q0 197 -29 273.5t-92 76.5q-39 0 -70 -20.5t-61 -63.5v-533q53 -82 127 -81q63 0 94 78.5z" />
<glyph unicode="&#x445;" horiz-adv-x="960" d="M668 582l313 -582h-342l-168 412l-160 -412h-331l311 571l-283 516h338l133 -352l127 352h326z" />
<glyph unicode="&#x446;" horiz-adv-x="1107" d="M963 233h149v-571h-213l-35 338h-758v1087h316v-854h225v854h316v-854z" />
<glyph unicode="&#x447;" horiz-adv-x="1024" d="M918 1087v-1087h-316v410q-115 -104 -266 -105q-139 0 -212 83t-73 233v466h316v-432q0 -61 22.5 -88.5t67.5 -27.5q39 0 77.5 19.5t67.5 49.5v479h316z" />
<glyph unicode="&#x448;" horiz-adv-x="1445" d="M1339 1087v-1087h-1233v1087h300v-854h186v854h264v-854h184v854h299z" />
<glyph unicode="&#x449;" horiz-adv-x="1482" d="M1339 233h148v-571h-213l-35 338h-1133v1087h300v-854h186v854h264v-854h184v854h299v-854z" />
<glyph unicode="&#x44a;" horiz-adv-x="1146" d="M1009.5 653.5q112.5 -94.5 112.5 -280.5q0 -188 -115.5 -280.5t-322.5 -92.5h-401v862h-279v225h594v-339h55q244 0 356.5 -94.5zM771 248q34 39 34 131q0 90 -33 130t-115 40h-59v-340h70q69 0 103 39z" />
<glyph unicode="&#x44b;" horiz-adv-x="1427" d="M817.5 653.5q112.5 -94.5 112.5 -280.5q0 -188 -117 -280.5t-324 -92.5h-383v1087h316v-339h45q238 0 350.5 -94.5zM1006 1087h315v-1087h-315v1087zM582.5 248q33.5 39 33.5 131t-32.5 131t-116.5 39h-45v-340h55q72 0 105.5 39z" />
<glyph unicode="&#x44c;" horiz-adv-x="970" d="M833.5 653.5q112.5 -94.5 112.5 -280.5q0 -188 -115.5 -280.5t-322.5 -92.5h-402v1087h316v-339h55q244 0 356.5 -94.5zM595 248q34 39 34 131q0 90 -33 130t-115 40h-59v-340h70q69 0 103 39z" />
<glyph unicode="&#x44d;" horiz-adv-x="905" d="M725 979q121 -143 121 -424t-128 -435.5t-362 -154.5q-102 0 -185 31t-157 92l138 178q53 -37 95 -53t93 -16q82 0 133 60t59 206h-344v184h342q-8 135 -49 190.5t-114 55.5q-100 0 -195 -72l-133 174q145 127 352 127q213 0 334 -143z" />
<glyph unicode="&#x44e;" horiz-adv-x="1509" d="M1326 973.5q124 -148.5 124 -430.5q0 -176 -56.5 -307.5t-161 -201t-241.5 -69.5q-193 0 -307.5 122t-142.5 355h-119v-442h-316v1087h316v-425h121q29 221 143.5 340.5t304.5 119.5q211 0 335 -148.5zM1100 278.5q33 79.5 33 264.5q0 188 -33 267t-109 79t-108.5 -78 t-32.5 -266q0 -186 34 -266t107 -80q76 0 109 79.5z" />
<glyph unicode="&#x44f;" horiz-adv-x="1034" d="M926 1087v-1087h-316v381h-110l-170 -381h-326l223 459q-154 84 -153 274q0 174 119.5 264t353.5 90h379zM610 569v316h-67q-78 0 -115 -38t-37 -116q0 -84 35 -123t111 -39h73z" />
<glyph unicode="&#x450;" horiz-adv-x="1038" d="M983 451h-606q12 -143 63.5 -198.5t145.5 -55.5q61 0 116.5 22.5t120.5 69.5l129 -174q-168 -150 -391 -150q-246 0 -374 152.5t-128 421.5q0 262 123 422.5t346 160.5q215 0 338 -144t123 -413q0 -65 -6 -114zM680 655q0 129 -34 193.5t-114 64.5q-72 0 -110.5 -60 t-46.5 -212h305v14zM408 1700l408 -268l-86 -156l-445 192z" />
<glyph unicode="&#x451;" horiz-adv-x="1038" d="M983 451h-606q12 -143 63.5 -198.5t145.5 -55.5q61 0 116.5 22.5t120.5 69.5l129 -174q-168 -150 -391 -150q-246 0 -374 152.5t-128 421.5q0 262 123 422.5t346 160.5q215 0 338 -144t123 -413q0 -65 -6 -114zM680 655q0 129 -34 193.5t-114 64.5q-72 0 -110.5 -60 t-46.5 -212h305v14zM426 1587q45 -45 45 -112q0 -68 -45 -114t-112 -46q-66 0 -112 46t-46 114q0 66 46 111.5t112 45.5q67 0 112 -45zM861.5 1587q46.5 -45 46.5 -112q0 -68 -45.5 -114t-114.5 -46q-66 0 -112 46t-46 114q0 66 46 111.5t112 45.5q67 0 113.5 -45z" />
<glyph unicode="&#x452;" horiz-adv-x="1083" d="M912.5 1035q72.5 -87 72.5 -242v-674q0 -166 -52 -275.5t-140 -176t-220 -120.5l-106 230q72 39 114 73.5t65.5 94t23.5 155.5v652q0 74 -20.5 103.5t-59.5 29.5q-78 0 -156 -133v-752h-315v1223h-107v186h107v111l315 32v-143h242v-186h-242v-252q59 78 126 114.5 t153 36.5q127 0 199.5 -87z" />
<glyph unicode="&#x453;" horiz-adv-x="804" d="M422 0h-316v1087h711l-37 -239h-358v-848zM592 1700l123 -232l-445 -192l-86 156z" />
<glyph unicode="&#x454;" horiz-adv-x="907" d="M667 215q42 16 91 53l135 -174q-145 -129 -334 -129q-236 0 -368 149.5t-132 422.5q0 178 60.5 310t172 203.5t261.5 71.5q197 0 340 -133l-131 -170q-49 39 -94 55.5t-95 16.5q-88 0 -138 -57.5t-58 -186.5h342v-184h-344q8 -143 60 -203.5t140 -60.5q50 0 92 16z" />
<glyph unicode="&#x455;" horiz-adv-x="897" d="M663.5 1087.5q94.5 -34.5 165.5 -98.5l-114 -172q-123 80 -232 80q-57 0 -87.5 -23.5t-30.5 -64.5q0 -31 15 -52.5t58 -43t129 -51.5q152 -51 224.5 -129t72.5 -211q0 -164 -125 -260.5t-319 -96.5q-125 0 -232.5 43t-183.5 117l150 168q127 -102 254 -103q63 0 99 28 t36 77q0 39 -15.5 63.5t-57.5 47t-130 53.5q-150 51 -218.5 130t-68.5 199q0 94 49.5 170t141.5 120t217 44q108 0 202.5 -34.5z" />
<glyph unicode="&#x456;" horiz-adv-x="530" d="M422 1087v-1087h-316v1087h316zM394.5 1603.5q52.5 -51.5 52.5 -126.5q0 -78 -52.5 -129.5t-132.5 -51.5t-131 51.5t-51 129.5q0 76 51 127t131 51t132.5 -51.5z" />
<glyph unicode="&#x457;" horiz-adv-x="530" d="M422 1087v-1087h-316v1087h316zM157 1587q45 -45 45 -112q0 -68 -45 -114t-112 -46q-66 0 -112 46t-46 114q0 66 46 111.5t112 45.5q67 0 112 -45zM592.5 1587q46.5 -45 46.5 -112q0 -68 -45.5 -114t-114.5 -46q-66 0 -112 46t-46 114q0 66 46 111.5t112 45.5 q67 0 113.5 -45z" />
<glyph unicode="&#x458;" horiz-adv-x="530" d="M422 98q0 -158 -51.5 -263t-140.5 -169.5t-220 -118.5l-104 230q72 39 112.5 73.5t64 90t23.5 145.5v1001h316v-989zM394.5 1603.5q52.5 -51.5 52.5 -126.5q0 -78 -52.5 -129.5t-132.5 -51.5t-131 51.5t-51 129.5q0 76 51 127t131 51t132.5 -51.5z" />
<glyph unicode="&#x459;" horiz-adv-x="1472" d="M1334.5 653.5q113.5 -94.5 113.5 -280.5q0 -188 -117 -280.5t-323 -92.5h-387v856h-154l-21 -260q-16 -233 -46.5 -348t-98.5 -176.5t-207 -98.5l-78 230q55 27 81 60.5t39.5 109.5t23.5 239l30 475h746v-339h41q244 0 357.5 -94.5zM1094.5 248q33.5 39 33.5 131 t-32.5 131t-114.5 39h-45v-340h55q70 0 103.5 39z" />
<glyph unicode="&#x45a;" horiz-adv-x="1509" d="M1485 352q0 -174 -118 -263t-323 -89h-380v487h-242v-487h-316v1087h316v-382h242v382h315v-382h43q463 -1 463 -353zM1144 241.5q34 34.5 34 116.5q0 76 -33 111t-117 35h-49v-297h59q72 0 106 34.5z" />
<glyph unicode="&#x45b;" horiz-adv-x="1085" d="M912.5 1037q72.5 -85 72.5 -232v-805h-315v762q0 68 -20.5 95.5t-57.5 27.5q-41 0 -79 -34t-79 -99v-752h-315v1225h-107v184h107v111l315 32v-143h240v-184h-240v-256q57 78 125 115.5t154 37.5q127 0 199.5 -85z" />
<glyph unicode="&#x45c;" horiz-adv-x="1026" d="M1016 1087l-252 -503l272 -584h-323l-207 469h-84v-469h-316v1087h316v-425h90l209 425h295zM656 1700l123 -232l-445 -192l-86 156z" />
<glyph unicode="&#x45d;" horiz-adv-x="1095" d="M989 0h-291v389q0 225 45 393l-321 -782h-316v1087h293v-393q0 -215 -43 -391l316 784h317v-1087zM424 1700l408 -268l-86 -156l-445 192z" />
<glyph unicode="&#x45e;" horiz-adv-x="974" d="M676 -2q-117 -424 -570 -453l-34 219q141 20 210.5 72.5t110.5 163.5h-112l-291 1087h323l168 -886l187 886h317zM256.5 1380q-82.5 84 -95.5 228l170 30q16 -66 53 -94t103 -28q63 0 101 28.5t53 93.5l172 -30q-12 -141 -96.5 -226.5t-229.5 -85.5q-148 0 -230.5 84z " />
<glyph unicode="&#x45f;" horiz-adv-x="1071" d="M963 1087v-1087h-297v-338h-213l-35 338h-312v1087h316v-854h225v854h316z" />
<glyph unicode="&#x460;" horiz-adv-x="1658" d="M1534 1060.5q39 -188.5 39 -442.5q0 -340 -106.5 -496.5t-311.5 -156.5q-131 0 -211 60.5t-115 187.5q-31 -125 -111.5 -186.5t-201.5 -61.5q-219 0 -324.5 153.5t-105.5 499.5q0 254 39 442.5t106 358.5h304q-59 -209 -90 -383t-31 -401q0 -164 14 -257t46 -132t85 -39 q111 0 111 149v461h323v-461q0 -80 28 -115.5t85 -35.5q49 0 78.5 37t45 130t15.5 261q0 229 -33.5 404t-99.5 382h315q68 -170 107 -358.5z" />
<glyph unicode="&#x461;" horiz-adv-x="1435" d="M1372 496q0 -268 -99 -399.5t-269 -131.5q-242 0 -287 236q-29 -123 -97.5 -179.5t-187.5 -56.5q-174 0 -271.5 130t-97.5 401q0 319 115 591h285q-45 -162 -68.5 -300t-23.5 -277q0 -172 27.5 -241.5t84.5 -69.5q47 0 69.5 33.5t22.5 125.5v369l285 39v-408 q0 -88 23.5 -123.5t68.5 -35.5q55 0 84 66.5t29 246.5q0 135 -24.5 274.5t-67.5 300.5h282q117 -274 117 -591z" />
<glyph unicode="&#x462;" horiz-adv-x="1247" d="M1085.5 800.5q135.5 -112.5 135.5 -331.5q0 -233 -138.5 -351t-382.5 -118h-450v1065h-250v199h250v155h328v-155h280v-199h-280v-152h122q250 0 385.5 -112.5zM832.5 292q50.5 54 50.5 173q0 111 -50.5 165t-162.5 54h-92v-446h100q104 0 154.5 54z" />
<glyph unicode="&#x463;" horiz-adv-x="985" d="M845 654.5q116 -93.5 116 -279.5q0 -188 -118 -281.5t-335 -93.5h-385v942h-111v186h111v218l315 32v-250h244l-27 -186h-217v-194h47q244 0 360 -93.5zM605 248q36 39 36 131q0 90 -34 130t-113 40h-56v-340h60q71 0 107 39z" />
<glyph unicode="&#x464;" horiz-adv-x="1585" d="M1577 147q-76 -80 -182.5 -131t-239.5 -51q-244 0 -398.5 163t-178.5 476h-138v-604h-327v1419h327v-571h140q31 295 188.5 450.5t394.5 155.5q121 0 217.5 -39t182.5 -117l-156 -180q-113 96 -227 96q-117 0 -191 -91t-84 -281h430v-230h-430q8 -203 82 -302t195 -99 q72 0 127 28.5t123 84.5z" />
<glyph unicode="&#x465;" horiz-adv-x="1390" d="M1150 215q42 16 91 53l135 -174q-145 -129 -334 -129q-215 0 -345 125t-150 356h-125v-446h-316v1087h316v-428h129q29 215 158 339t327 124q197 0 340 -133l-131 -170q-49 39 -94 55.5t-94 16.5q-88 0 -138.5 -57.5t-58.5 -186.5h342v-184h-344q8 -143 60.5 -203.5 t140.5 -60.5q49 0 91 16z" />
<glyph unicode="&#x466;" horiz-adv-x="1224" d="M930 0l-144 541h-59v-543h-227v543h-66l-141 -541h-316l447 1419h385l438 -1419h-317zM494 766h233l-117 446z" />
<glyph unicode="&#x467;" horiz-adv-x="1087" d="M809 0l-113 389h-57v-389h-199v389h-53l-111 -389h-286l381 1087h348l379 -1087h-289zM444 584h195l-98 338z" />
<glyph unicode="&#x468;" horiz-adv-x="1740" d="M1446 0l-143 541h-60v-543h-227v543h-66l-141 -541h-315l170 539h-224v-541h-327v1421h327v-653h295l205 653h385l438 -1419h-317zM1010 766h233l-117 446z" />
<glyph unicode="&#x469;" horiz-adv-x="1480" d="M1221 0l-109 406h-43v-406h-186v406h-41l-105 -406h-274l127 406h-168v-406h-316v1087h316v-487h229l152 487h350l340 -1087h-272zM891 600h168l-86 320z" />
<glyph unicode="&#x46a;" horiz-adv-x="1505" d="M1206 788l314 -788h-328l-191 563h-100v-563h-293v563h-98l-199 -563h-325l315 788h164l-281 431v200h1141v-200l-291 -431h172zM993 1202h-475l238 -411z" />
<glyph unicode="&#x46b;" horiz-adv-x="1277" d="M1040 635l242 -635h-281l-145 436h-82v-436h-268v436h-84l-146 -436h-280l242 635h151l-205 319v133h897v-133l-204 -319h163zM786 907h-307l156 -270z" />
<glyph unicode="&#x46c;" horiz-adv-x="1828" d="M1614 795l229 -795h-323l-121 561h-80v-561h-293v561h-82l-121 -561h-325l161 559h-219v-559h-327v1419h327v-624h434l-237 424v200h1067v-200l-248 -424h158zM1384 1204h-426l216 -409z" />
<glyph unicode="&#x46d;" horiz-adv-x="1546" d="M1407 633l143 -633h-268l-74 434h-67v-434h-260v434h-68l-74 -434h-266l96 434h-147v-434h-316v1087h316v-454h328l-187 321v133h873v-133l-187 -321h158zM856 907l145 -274l144 274h-289z" />
<glyph unicode="&#x46e;" horiz-adv-x="976" d="M551 1536h-191l-262 266l111 121l248 -170l248 170l108 -121zM833.5 685.5q104.5 -107.5 104.5 -302.5q0 -201 -102.5 -302t-280.5 -142q-94 -23 -137 -38.5t-58.5 -31.5t-15.5 -43q0 -31 21.5 -55.5t64.5 -49.5l-72 -176q-143 49 -223 128t-80 188q0 115 75 178t235 98 q135 31 185 84t50 166q0 115 -51 166t-162 51h-192v187l329 391h-483v237h827v-231l-338 -393q199 -2 303.5 -109.5z" />
<glyph unicode="&#x46f;" horiz-adv-x="952" d="M132 -329q-81 79 -81 184q0 111 76 174t235 96q129 27 178.5 59.5t49.5 100.5q0 53 -35 78.5t-113 25.5h-235v172l295 303h-463v223h809v-204l-318 -310h43q156 0 247 -77.5t91 -214.5q0 -158 -97 -239t-267 -116q-88 -18 -132 -32.5t-60.5 -31t-16.5 -42.5q0 -49 88 -99 l-72 -176q-141 47 -222 126zM692 1659l109 -123l-263 -283h-190l-262 283l110 123l248 -189z" />
<glyph unicode="&#x470;" horiz-adv-x="1353" d="M1323 1419v-557q0 -209 -122 -332.5t-361 -154.5v-375h-328v373q-242 33 -361.5 155.5t-119.5 331.5v559h311v-565q0 -117 43 -175t143 -77v817h297v-817q98 20 142.5 79.5t44.5 172.5v565h311z" />
<glyph unicode="&#x471;" horiz-adv-x="1456" d="M1250 125q-132 -133 -369 -156v-389l-299 -33v420q-244 18 -368 133t-124 295v692h307v-675q0 -98 42 -152.5t143 -69.5v897h299v-892q100 18 147 96t47 225q0 233 -47 571h301q53 -287 53 -579q0 -250 -132 -383z" />
<glyph unicode="&#x472;" horiz-adv-x="1290" d="M1077.5 1264.5q151.5 -189.5 151.5 -553.5q0 -360 -152.5 -553t-431.5 -193t-431.5 190.5t-152.5 555.5q0 358 153 550.5t431 192.5q281 0 432.5 -189.5zM468 1120q-62 -94 -75 -307h504q-12 213 -73.5 307t-178.5 94q-115 0 -177 -94zM827.5 302q61.5 97 69.5 323h-504 q8 -225 70.5 -322.5t181.5 -97.5q121 0 182.5 97z" />
<glyph unicode="&#x473;" horiz-adv-x="1093" d="M906 973.5q130 -148.5 130 -430.5q0 -270 -131 -424t-358 -154q-229 0 -358.5 149.5t-129.5 430.5q0 272 130 424.5t358 152.5q229 0 359 -148.5zM426 834.5q-43 -60.5 -51 -193.5h344q-8 137 -50 195.5t-122 58.5q-78 0 -121 -60.5zM670 256q43 63 51 207h-348 q8 -145 51 -207.5t123 -62.5t123 63z" />
<glyph unicode="&#x474;" horiz-adv-x="1204" d="M-23 1419h336l238 -1161l162 868q29 174 110.5 251t216.5 77q129 0 234 -76l-86 -184q-47 29 -92 29q-39 0 -60.5 -23.5t-36.5 -85.5l-247 -1114h-414z" />
<glyph unicode="&#x475;" horiz-adv-x="989" d="M672 0h-373l-309 1087h329l168 -845l136 680q27 143 90 208.5t184 65.5q80 0 162 -31l-53 -204q-25 10 -52 10t-44 -16.5t-25 -53.5z" />
<glyph unicode="&#x476;" horiz-adv-x="1204" d="M-23 1419h336l238 -1161l162 868q29 174 110.5 251t216.5 77q129 0 234 -76l-86 -184q-47 29 -92 29q-39 0 -60.5 -23.5t-36.5 -85.5l-247 -1114h-414zM297 2013l182 -399l-155 -74l-230 369zM629 2013l166 -399l-158 -66l-213 367z" />
<glyph unicode="&#x477;" horiz-adv-x="989" d="M672 0h-373l-309 1087h329l168 -845l136 680q27 143 90 208.5t184 65.5q80 0 162 -31l-53 -204q-25 10 -52 10t-44 -16.5t-25 -53.5zM258 1755l182 -399l-155 -74l-230 369zM590 1755l166 -399l-158 -66l-213 367z" />
<glyph unicode="&#x478;" horiz-adv-x="2265" d="M1077.5 1264.5q151.5 -189.5 151.5 -553.5q0 -360 -152.5 -553t-431.5 -193t-431.5 190.5t-152.5 555.5q0 358 153 550.5t431 192.5q281 0 432.5 -189.5zM461.5 1097.5q-58.5 -116.5 -58.5 -386.5q0 -274 59.5 -390t182.5 -116q125 0 183.5 115.5t58.5 390.5 q0 270 -58.5 386.5t-183.5 116.5t-183.5 -116.5zM1966 -2q-117 -424 -570 -453l-34 219q141 20 210.5 72.5t110.5 163.5h-112l-291 1087h323l168 -886l187 886h317z" />
<glyph unicode="&#x479;" horiz-adv-x="2052" d="M906 973.5q130 -148.5 130 -430.5q0 -270 -131 -424t-358 -154q-229 0 -358.5 149.5t-129.5 430.5q0 272 130 424.5t358 152.5q229 0 359 -148.5zM424 809q-39 -80 -39 -264q0 -188 39 -268t123 -80t124 80.5t40 265.5q0 188 -39 267t-125 79q-84 0 -123 -80zM1753 -2 q-117 -424 -570 -453l-34 219q141 20 210.5 72.5t110.5 163.5h-112l-291 1087h323l168 -886l187 886h317z" />
<glyph unicode="&#x48a;" horiz-adv-x="1304" d="M384 1622q-83 84 -95 227l170 31q16 -66 53 -94.5t102 -28.5q63 0 101.5 29t52.5 94l172 -31q-12 -141 -96 -226t-230 -85q-147 0 -230 84zM1329 250l-174 -588h-223l72 338h-203v541q0 276 41 555l-340 -1096h-389v1419h311v-549q0 -166 -10.5 -288.5t-28.5 -257.5 l344 1095h385v-1169h215z" />
<glyph unicode="&#x48b;" horiz-adv-x="1167" d="M318.5 1380q-82.5 84 -95.5 228l170 30q16 -66 53 -94t103 -28q63 0 101 28.5t52 93.5l172 -30q-12 -141 -96 -226.5t-229 -85.5q-148 0 -230.5 84zM1200 233l-170 -571h-213l72 338h-191v389q0 225 45 393l-321 -782h-316v1087h293v-393q0 -215 -43 -391l316 784h317 v-854h211z" />
<glyph unicode="&#x48c;" horiz-adv-x="1134" d="M974 801.5q134 -111.5 134 -332.5q0 -233 -138.5 -351t-381.5 -118h-451v1065h-108v197h108v157h328v-157h231v-197h-231v-152h123q252 0 386 -111.5zM718 293q50 55 50 174q0 111 -50 165t-161 54h-92v-448h102q101 0 151 55z" />
<glyph unicode="&#x48d;" horiz-adv-x="995" d="M971 354q0 -176 -119 -265t-334 -89h-387v809h-108v186h108v92h315v-92h244l-24 -186h-220v-102h50q475 -1 475 -353zM615.5 244q35.5 35 35.5 114q0 78 -34.5 114t-112.5 36h-58v-299h62q72 0 107.5 35z" />
<glyph unicode="&#x48e;" horiz-adv-x="1114" d="M1020.5 698.5q-62.5 -106.5 -174.5 -161.5l98 -193h-143l-78 150q-80 -18 -174 -19h-117v-475h-319v1419h405q272 0 418.5 -116.5t146.5 -344.5q0 -153 -62.5 -259.5zM723 776q37 59 37 180q0 119 -56.5 174.5t-181.5 55.5h-90v-486h90q57 0 92 9l-141 272h143z" />
<glyph unicode="&#x48f;" d="M991.5 221q-57.5 -139 -157.5 -205l104 -204h-139l-82 159q-27 -6 -60 -6q-141 0 -235 111v-496l-316 -33v1540h281l14 -118q111 154 283 153q182 0 273.5 -149.5t91.5 -425.5q0 -187 -57.5 -326zM610 176l-141 273h141l90 -177q29 86 29 271q0 201 -37 274.5t-114 73.5 q-88 0 -156 -121v-508q59 -90 145 -90q14 0 43 4z" />
<glyph unicode="&#x490;" horiz-adv-x="946" d="M647 1716h301v-297l-33 -258h-475v-1161h-327v1419h534v297z" />
<glyph unicode="&#x491;" horiz-adv-x="804" d="M535 1399h282v-312l-37 -239h-358v-848h-316v1087h429v312z" />
<glyph unicode="&#x492;" horiz-adv-x="964" d="M932 1161h-475v-293h256v-196h-256v-672h-328v672h-137v196h137v551h836z" />
<glyph unicode="&#x493;" horiz-adv-x="825" d="M799 848h-359v-219h201v-180h-201v-449h-315v449h-107v180h107v458h711z" />
<glyph unicode="&#x494;" horiz-adv-x="1169" d="M1018.5 806q105.5 -122 105.5 -339v-551q0 -182 -104.5 -275.5t-280.5 -93.5q-160 0 -272 86l108 189q37 -20 64 -28.5t61 -8.5q96 0 97 113v569q0 113 -40 166t-124 53q-115 0 -193 -88v-598h-327v1419h819l-33 -248h-459v-356q113 113 285 113q188 0 293.5 -122z" />
<glyph unicode="&#x495;" horiz-adv-x="1028" d="M900 634q73 -87 73 -245v-479q0 -176 -102.5 -269.5t-272.5 -93.5q-166 0 -276 86l108 181q37 -20 63.5 -28.5t63.5 -8.5q47 0 73.5 27.5t26.5 84.5v461q0 74 -19.5 103.5t-57.5 29.5q-41 0 -78 -30.5t-80 -87.5v-365h-316v1087h711l-37 -225h-358v-276 q57 68 124.5 101.5t153.5 33.5q127 0 200 -87z" />
<glyph unicode="&#x496;" horiz-adv-x="1693" d="M1591 250h123v-588h-223l-35 338h-102l-254 623h-107v-623h-299v623h-110l-258 -623h-340l338 774l-306 645h316l258 -563h102v563h299v-563h101l262 563h313l-307 -645z" />
<glyph unicode="&#x497;" horiz-adv-x="1404" d="M1305 233h112v-571h-213l-35 338h-75l-179 467h-79v-467h-275v467h-80l-178 -467h-307l242 582l-222 505h285l176 -428h84v428h275v-428h84l178 428h282l-219 -505z" />
<glyph unicode="&#x498;" horiz-adv-x="1005" d="M859.5 122q-105.5 -114 -284.5 -145q162 -96 162 -249q0 -117 -77.5 -184.5t-202.5 -67.5q-117 0 -205 51l63 154q49 -27 109 -27q51 0 76.5 27.5t25.5 76.5q0 121 -120 207q-135 8 -236.5 57.5t-177.5 141.5l170 168q63 -63 123.5 -93t132.5 -30q94 0 148.5 54t54.5 157 q0 100 -54.5 155.5t-163.5 55.5h-137l37 235h107q88 0 134 47.5t46 133.5q0 76 -38 123t-120 47q-121 0 -252 -113l-149 164q182 186 444 186q137 0 238.5 -48t157 -133t55.5 -192q0 -125 -74 -210t-221 -117q160 -20 247 -108.5t87 -242.5q0 -167 -105.5 -281z" />
<glyph unicode="&#x499;" horiz-adv-x="925" d="M775 84q-91 -86 -249 -111q158 -94 158 -245q0 -117 -78 -184.5t-203 -67.5q-117 0 -204 51l63 154q49 -27 109 -27q51 0 76.5 27.5t25.5 76.5q0 119 -121 209q-205 12 -350 131l145 170q66 -43 119 -60.5t119 -17.5q156 0 156 140q0 68 -42 98.5t-126 30.5h-140l17 203 h100q150 0 150 129q0 57 -34 84.5t-91 27.5q-55 0 -102.5 -17.5t-98.5 -51.5l-143 161q164 127 399 127q168 0 278.5 -82t110.5 -219q0 -92 -56 -151.5t-173 -89.5q139 -20 207.5 -84t68.5 -183q0 -143 -91 -229z" />
<glyph unicode="&#x49a;" horiz-adv-x="1171" d="M1073 250h125v-588h-223l-35 338h-104l-271 621h-125v-621h-327v1419h327v-559h133l263 559h313l-307 -645z" />
<glyph unicode="&#x49b;" horiz-adv-x="1032" d="M928 233h121v-571h-213l-35 338h-88l-207 469h-84v-469h-316v1087h316v-425h90l209 425h295l-252 -503z" />
<glyph unicode="&#x49c;" horiz-adv-x="1193" d="M887 774l307 -774h-340l-221 631h-29v-330h-119v330h-59v-631h-313v1419h313v-571h59v326h119v-326h27l217 571h313z" />
<glyph unicode="&#x49d;" horiz-adv-x="1032" d="M805 584l231 -584h-315l-162 481h-22v-241h-84v241h-47v-481h-300v1087h300v-438h47v238h84v-238h22l170 438h289z" />
<glyph unicode="&#x49e;" horiz-adv-x="1193" d="M864 774l342 -774h-348l-270 621h-125v-621h-328v1063h-106v201h106v155h328v-155h143v-201h-143v-203h133l262 559h313z" />
<glyph unicode="&#x49f;" horiz-adv-x="1038" d="M776 584l273 -584h-324l-207 469h-82v-469h-315v1151h-109v186h109v183l315 30v-213h238v-186h-238v-489h90l209 425h293z" />
<glyph unicode="&#x4a0;" horiz-adv-x="1398" d="M1069 774l342 -774h-348l-270 621h-125v-621h-328v1174l-2 -3h-324v248h654v-559h133l262 559h313z" />
<glyph unicode="&#x4a1;" horiz-adv-x="1187" d="M928 584l272 -584h-323l-207 469h-84v-469h-316v862h-266v225h582v-425h90l209 425h295z" />
<glyph unicode="&#x4a2;" horiz-adv-x="1286" d="M1122 250h148v-588h-223l-35 338h-217v610h-355v-610h-327v1419h327v-553h355v553h327v-1169z" />
<glyph unicode="&#x4a3;" horiz-adv-x="1124" d="M981 233h147v-571h-213l-34 338h-215v436h-244v-436h-316v1087h316v-419h244v419h315v-854z" />
<glyph unicode="&#x4a4;" horiz-adv-x="1460" d="M1462 1419l-35 -250h-305v-1169h-327v610h-355v-610h-327v1419h327v-553h355v551l-2 2h669z" />
<glyph unicode="&#x4a5;" horiz-adv-x="1261" d="M1276 1087l-41 -233h-254v-854h-315v436h-244v-436h-316v1087h316v-419h244v419h610z" />
<glyph unicode="&#x4a6;" horiz-adv-x="1841" d="M1690.5 839q105.5 -122 105.5 -339v-584q0 -182 -104.5 -275.5t-280.5 -93.5q-160 0 -272 86l108 189q37 -20 63.5 -28.5t61.5 -8.5q96 0 96 113v602q0 111 -39.5 164t-123.5 53q-111 0 -185 -80v-637h-329v1167h-351v-1167h-327v1419h1007v-563q111 104 277 105 q188 0 293.5 -122z" />
<glyph unicode="&#x4a7;" horiz-adv-x="1570" d="M1445 634q73 -87 73 -245v-479q0 -176 -102.5 -269.5t-272.5 -93.5q-166 0 -277 86l109 181q37 -20 63.5 -28.5t63.5 -8.5q47 0 73.5 27.5t26.5 84.5v461q0 74 -19.5 103.5t-58.5 29.5q-70 0 -149 -106v-377h-316v854h-237v-854h-316v1087h869v-489q55 61 120.5 92 t149.5 31q127 0 200 -87z" />
<glyph unicode="&#x4a8;" horiz-adv-x="1341" d="M1212.5 275.5q-69.5 -134.5 -198.5 -216.5q20 -31 137 -194l29 -39l-156 -109q-23 31 -40 54.5t-30 40.5l-123 172q-76 -18 -169 -19q-182 0 -317.5 86t-209.5 254t-74 408q0 238 76 404.5t208 251.5t304 85q123 0 219.5 -39t182.5 -117l-156 -182q-55 47 -109.5 70.5 t-115.5 23.5q-266 0 -267 -497q0 -250 72 -372t203 -122h10q-90 170 -90 328q0 166 93 263t247 97q147 0 245.5 -92t98.5 -262q0 -143 -69.5 -277.5zM895 272q133 86 133 291q0 141 -92 142q-100 0 -100 -160q0 -136 59 -273z" />
<glyph unicode="&#x4a9;" horiz-adv-x="1173" d="M1059 228.5q-55 -105.5 -160 -173.5q53 -82 162 -229l-148 -109q-137 184 -190 265q-78 -16 -162 -17q-236 0 -369 148.5t-133 421.5q0 178 60.5 311t172 204.5t261.5 71.5q88 0 155.5 -20.5t127.5 -65.5l-109 -200q-66 45 -149 45q-94 0 -141.5 -78t-47.5 -266 q0 -186 48 -262t138 -76h17q-70 143 -70 256q0 133 80 216t215 83q133 0 215 -79t82 -222q0 -119 -55 -224.5zM791 252q100 68 100 219q0 53 -19.5 81t-54.5 28q-37 0 -57.5 -31t-20.5 -88q1 -92 52 -209z" />
<glyph unicode="&#x4aa;" horiz-adv-x="1073" d="M921 35q-83 -47 -182 -64q154 -94 154 -243q0 -117 -78 -184.5t-203 -67.5q-117 0 -204 51l63 154q49 -27 109 -27q51 0 76.5 27.5t25.5 76.5q0 123 -129 213q-229 35 -360.5 223.5t-131.5 518.5q0 238 76 404.5t208 251.5t304 85q123 0 219.5 -39t182.5 -117l-156 -182 q-55 47 -109.5 70.5t-115.5 23.5q-266 0 -267 -497q0 -494 269 -494q70 0 124 27.5t122 81.5l147 -181q-61 -65 -144 -112z" />
<glyph unicode="&#x4ab;" horiz-adv-x="892" d="M891 94q-115 -104 -262 -125q150 -94 149 -241q0 -117 -77.5 -184.5t-202.5 -67.5q-117 0 -205 51l63 154q49 -27 109 -27q51 0 76.5 27.5t25.5 76.5q0 127 -137 219q-176 39 -273.5 183.5t-97.5 374.5q0 178 60.5 311t172 204.5t261.5 71.5q102 0 184 -32.5t154 -100.5 l-131 -180q-47 37 -90 54.5t-92 17.5q-94 0 -141.5 -78t-47.5 -266q0 -180 48 -252t138 -72q47 0 86 15.5t93 52.5z" />
<glyph unicode="&#x4ac;" horiz-adv-x="1003" d="M971 1169h-305v-919h149v-588h-223l-35 338h-219v1169h-324v250h992z" />
<glyph unicode="&#x4ad;" horiz-adv-x="880" d="M854 854h-256v-621h147v-571h-213l-34 338h-215v854h-279v233h889z" />
<glyph unicode="&#x4ae;" horiz-adv-x="1110" d="M1128 1419l-409 -887v-532h-328v530l-409 889h350l227 -631l232 631h337z" />
<glyph unicode="&#x4af;" horiz-adv-x="962" d="M975 1087l-340 -1075v-432l-307 -33v465l-338 1075h332l165 -808l175 808h313z" />
<glyph unicode="&#x4b0;" horiz-adv-x="1110" d="M1128 1419l-358 -776h137v-186h-188v-457h-328v457h-188v186h137l-358 776h350l227 -631l232 631h337z" />
<glyph unicode="&#x4b1;" horiz-adv-x="962" d="M975 1087l-291 -919h127v-178h-176v-410l-307 -33v443h-174v178h125l-289 919h332l165 -808l175 808h313z" />
<glyph unicode="&#x4b2;" horiz-adv-x="1085" d="M979 250h133v-588h-223l-35 338h-106l-213 547l-205 -547h-342l354 754l-328 665h348l177 -461l188 461h340l-336 -653z" />
<glyph unicode="&#x4b3;" horiz-adv-x="983" d="M856 233h143v-571h-213l-34 338h-113l-168 412l-160 -412h-331l311 571l-283 516h338l133 -352l127 352h326l-264 -505z" />
<glyph unicode="&#x4b4;" horiz-adv-x="1513" d="M1348 250h147v-588h-223l-35 338h-899v1171h-324v248h908l-31 -248h-225v-915h354v1163h328v-1169z" />
<glyph unicode="&#x4b5;" horiz-adv-x="1323" d="M1180 233h147v-571h-213l-35 338h-796v862h-279v225h774l-26 -225h-154v-629h266v854h316v-854z" />
<glyph unicode="&#x4b6;" horiz-adv-x="1206" d="M1188 250v-588h-223l-35 338h-217v526q-63 -55 -130 -81.5t-153 -26.5q-180 0 -286.5 117.5t-106.5 326.5v557h321v-538q0 -119 41 -169t127 -50q113 0 187 77v680h327v-1169h148z" />
<glyph unicode="&#x4b7;" horiz-adv-x="1060" d="M1065 233v-571h-213l-35 338h-215v410q-115 -104 -266 -105q-139 0 -212 83t-73 233v466h316v-432q0 -61 22.5 -88.5t67.5 -27.5q39 0 77.5 19.5t67.5 49.5v479h316v-854h147z" />
<glyph unicode="&#x4b8;" horiz-adv-x="1153" d="M1040 1419v-1419h-327v526q-55 -49 -109 -73v-201h-119v168q-18 -2 -55 -2q-180 0 -286.5 117.5t-106.5 326.5v557h321v-538q0 -104 32 -154.5t95 -60.5v458h119v-452q61 16 109 67v680h327z" />
<glyph unicode="&#x4b9;" horiz-adv-x="1024" d="M918 1087v-1087h-306v418q-45 -41 -88 -66v-178h-92v143q-45 -12 -98 -12q-137 0 -210 83t-73 233v466h301v-438q0 -57 18.5 -83.5t61.5 -30.5v278h92v-264q53 23 88 65v473h306z" />
</font>
</defs>
</svg>
